<svg width="140" height="105" viewBox="0 0 140 105" fill="none" xmlns="http://www.w3.org/2000/svg">
<rect y="27.6597" width="123.781" height="79.3466" rx="2.06045" transform="rotate(-12.9122 0 27.6597)" fill="#0099A1"/>
<rect x="9.77448" y="34.8765" width="105.841" height="10.6749" transform="rotate(-13.2447 9.77448 34.8765)" fill="#F9FBFD"/>
<rect x="12.3768" y="45.9316" width="105.841" height="0.454252" transform="rotate(-13.2447 12.3768 45.9316)" fill="#063A4F"/>
<rect x="9.52026" y="33.7686" width="105.841" height="0.454252" transform="rotate(-13.2447 9.52026 33.7686)" fill="#063A4F"/>
<path d="M66.7784 63.9263L19.2452 75.1143L20.5462 80.6414L68.0794 69.4535L66.7784 63.9263Z" fill="#DA9A28"/>
<path d="M92.7339 47.3169L16.9019 65.1655L18.2028 70.6926L94.0348 52.844L92.7339 47.3169Z" fill="#DA9A28"/>
<path d="M47.895 78.8706L21.5859 85.063L22.8869 90.5901L49.1959 84.3977L47.895 78.8706Z" fill="#DA9A28"/>
<rect x="15.8701" y="25.3896" width="123.781" height="79.3466" rx="2.06045" fill="#063A4F"/>
<path d="M29.7738 34.9121H25.3906V42.9479H29.7738V34.9121Z" fill="#ECAB03"/>
<path d="M41.4597 34.9121H37.0765V42.9479H41.4597V34.9121Z" fill="#ECAB03"/>
<path d="M35.6161 34.9121H31.2329V42.9479H35.6161V34.9121Z" fill="#ECAB03"/>
<path d="M49.7399 34.9121H45.3567V42.9479H49.7399V34.9121Z" fill="#ECAB03"/>
<path d="M61.4285 34.9121H57.0453V42.9479H61.4285V34.9121Z" fill="#ECAB03"/>
<path d="M55.5831 34.9121H51.1999V42.9479H55.5831V34.9121Z" fill="#ECAB03"/>
<path d="M69.709 34.9121H65.3259V42.9479H69.709V34.9121Z" fill="#ECAB03"/>
<path d="M81.399 34.9121H77.0159V42.9479H81.399V34.9121Z" fill="#ECAB03"/>
<path d="M75.5536 34.9121H71.1704V42.9479H75.5536V34.9121Z" fill="#ECAB03"/>
<path d="M89.6783 34.9121H85.2951V42.9479H89.6783V34.9121Z" fill="#ECAB03"/>
<path d="M101.368 34.9121H96.985V42.9479H101.368V34.9121Z" fill="#ECAB03"/>
<path d="M95.5228 34.9121H91.1396V42.9479H95.5228V34.9121Z" fill="#ECAB03"/>
<path d="M101.366 72.6558H25.3909V77.0389H101.366V72.6558Z" fill="#ECAB03"/>
<path d="M71.1705 82.396H25.3906V86.7792H71.1705V82.396Z" fill="#ECAB03"/>
<path d="M49.7416 91.8921H25.3906V96.2753H49.7416V91.8921Z" fill="#ECAB03"/>
<rect x="111.592" y="50.9839" width="8.06628" height="4.52233" rx="0.125264" fill="#ECAB03"/>
<rect x="120.836" y="50.9839" width="8.06628" height="4.52233" rx="0.125264" fill="#ECAB03"/>
<rect x="111.59" y="59.1255" width="8.06628" height="4.52233" rx="0.125264" fill="#ECAB03"/>
<rect x="120.836" y="59.1255" width="8.06628" height="4.52233" rx="0.125264" fill="#ECAB03"/>
<rect x="111.59" y="56.1094" width="8.06628" height="2.41191" rx="0.125264" fill="#ECAB03"/>
<rect x="120.836" y="56.1094" width="8.06628" height="2.41191" rx="0.125264" fill="#ECAB03"/>
<rect x="118.579" y="53.2524" width="3.33246" height="7.94641" rx="0.271895" fill="#114B59" stroke="#063A4F" stroke-width="0.167998"/>
</svg>
