<svg width="53" height="58" viewBox="0 0 53 58" fill="none" xmlns="http://www.w3.org/2000/svg">
<path opacity="0.06" d="M12.0788 23.4865C18.7497 23.4865 24.1575 18.2288 24.1575 11.7432C24.1575 5.25763 18.7497 0 12.0788 0C5.40784 0 0 5.25763 0 11.7432C0 18.2288 5.40784 23.4865 12.0788 23.4865Z" fill="#00B8C2"/>
<path opacity="0.06" d="M29.5254 57.0386C42.126 57.0386 52.3408 46.8238 52.3408 34.2231C52.3408 21.6225 42.126 11.4077 29.5254 11.4077C16.9248 11.4077 6.70996 21.6225 6.70996 34.2231C6.70996 46.8238 16.9248 57.0386 29.5254 57.0386Z" fill="#00B8C2"/>
<path d="M43.1028 51.1662V32.0063C43.1028 30.2476 42.3625 28.5815 41.067 27.3783L33.7566 20.6214H29.8701V51.0736" fill="#0099A1"/>
<path d="M36.28 22.9604L33.9666 20.8315H30.0801V34.0676H36.28V22.9604Z" fill="#01838A"/>
<rect x="6.979" y="5.81567" width="26.7764" height="45.3623" rx="3.5" fill="#055072"/>
<g filter="url(#filter0_d)">
<path fill-rule="evenodd" clip-rule="evenodd" d="M13.9051 7.6008C13.8976 7.66633 13.8938 7.73296 13.8938 7.80049V8.01563C13.8938 8.97445 14.6711 9.75172 15.6299 9.75172H25.4851C26.444 9.75172 27.2212 8.97445 27.2212 8.01563V7.80049C27.2212 7.73296 27.2174 7.66633 27.2099 7.6008H29.4975C31.1543 7.6008 32.4975 8.94395 32.4975 10.6008V46.288C32.4975 47.9448 31.1543 49.288 29.4975 49.288H11.2412C9.58436 49.288 8.24121 47.9448 8.24121 46.288V10.6008C8.24121 8.94395 9.58436 7.6008 11.2412 7.6008H13.9051Z" fill="#DA9A28"/>
<rect x="8.23877" y="10.9808" width="24.2317" height="35.0295" fill="#FAB417"/>
<g filter="url(#filter1_d)">
<rect x="15.1689" y="7.6008" width="10.9206" height="1.15506" rx="0.462957" fill="white"/>
</g>
<rect x="15.4072" y="47.2928" width="10.7023" height="1.12668" rx="0.462957" fill="#055072"/>
<path d="M14.7165 19.606L15.1614 20.5088C15.3393 20.87 15.6062 21.0505 15.9621 21.1408L16.9409 21.3214L16.2291 22.0437C15.9621 22.3145 15.8732 22.6757 15.9621 23.0368L16.1401 24.03L15.2503 23.5786C14.9834 23.398 14.5385 23.398 14.2716 23.5786L13.3818 24.03L13.5598 23.0368C13.6488 22.6757 13.4708 22.3145 13.2929 22.0437L12.5811 21.3214L13.5598 21.1408C13.9157 21.0505 14.1826 20.87 14.3606 20.5088L14.7165 19.606Z" fill="#E6E7E8"/>
<path d="M20.1437 19.606L20.5886 20.5088C20.7666 20.87 21.0335 21.0505 21.3894 21.1408L22.3681 21.3214L21.6563 22.0437C21.3894 22.3145 21.3004 22.6757 21.3894 23.0368L21.5673 24.03L20.6776 23.5786C20.4106 23.398 19.9658 23.398 19.6988 23.5786L18.8091 24.03L18.987 23.0368C19.076 22.6757 18.8981 22.3145 18.7201 22.0437L18.0083 21.3214L18.987 21.1408C19.3429 21.0505 19.6099 20.87 19.7878 20.5088L20.1437 19.606Z" fill="#F1F2F2"/>
<path d="M25.6608 19.606L26.1057 20.5088C26.2836 20.87 26.5506 21.0505 26.9065 21.1408L27.8852 21.3214L27.1734 22.0437C26.9065 22.3145 26.8175 22.6757 26.9065 23.0368L27.0844 24.03L26.1947 23.5786C25.9277 23.398 25.4829 23.398 25.2159 23.5786L24.3262 24.03L24.5041 23.0368C24.5931 22.6757 24.4151 22.3145 24.2372 22.0437L23.5254 21.3214L24.5041 21.1408C24.86 21.0505 25.127 20.87 25.3049 20.5088L25.6608 19.606Z" fill="#E6E7E8"/>
<path d="M17.3854 25.2938L17.8303 26.1967C18.0082 26.5578 18.2752 26.7384 18.6311 26.8287L19.6098 27.0092L18.898 27.7315C18.6311 28.0024 18.5421 28.3635 18.6311 28.7247L18.809 29.7178L17.9193 29.2664C17.6523 29.0858 17.2075 29.0858 16.9405 29.2664L16.0508 29.7178L16.2287 28.7247C16.3177 28.3635 16.1398 28.0024 15.9618 27.7315L15.25 27.0092L16.2287 26.8287C16.5846 26.7384 16.8516 26.5578 17.0295 26.1967L17.3854 25.2938Z" fill="#F1F2F2"/>
<path d="M22.901 25.2938L23.3459 26.1967C23.5239 26.5578 23.7908 26.7384 24.1467 26.8287L25.1254 27.0092L24.4136 27.7315C24.1467 28.0024 24.0577 28.3635 24.1467 28.7247L24.3247 29.7178L23.4349 29.2664C23.168 29.0858 22.7231 29.0858 22.4562 29.2664L21.5664 29.7178L21.7444 28.7247C21.8333 28.3635 21.6554 28.0024 21.4774 27.7315L20.7656 27.0092L21.7444 26.8287C22.1003 26.7384 22.3672 26.5578 22.5451 26.1967L22.901 25.2938Z" fill="#E6E7E8"/>
</g>
<path d="M41.3339 41.9644C40.9818 41.9709 40.6264 41.7931 40.271 41.6153L29.6849 30.9332C29.1466 30.3901 29.1262 29.2842 29.6439 28.7215C30.1617 28.1587 31.0418 28.1424 31.7561 28.6823L42.3421 39.3645C42.8804 39.9076 42.9009 41.0135 42.3831 41.5762C42.2105 41.7638 41.6859 41.9579 41.3339 41.9644Z" fill="#01838A"/>
<path d="M28.9554 51.1462V49.7578C28.9554 46.0554 30.0659 42.5381 32.1017 39.3911L26.642 33.93C25.3465 32.6342 25.3465 30.5053 26.642 29.2095C26.7346 29.1169 26.8271 29.0244 26.9196 29.0244C28.3077 27.9136 30.2509 28.0988 31.4539 29.302L43.1135 40.9646V51.1462H28.9554Z" fill="#00B8C2"/>
<defs>
<filter id="filter0_d" x="7.75729" y="7.6008" width="25.2217" height="42.6501" filterUnits="userSpaceOnUse" color-interpolation-filters="sRGB">
<feFlood flood-opacity="0" result="BackgroundImageFix"/>
<feColorMatrix in="SourceAlpha" type="matrix" values="0 0 0 0 0 0 0 0 0 0 0 0 0 0 0 0 0 0 127 0"/>
<feOffset dy="0.481481"/>
<feGaussianBlur stdDeviation="0.240741"/>
<feColorMatrix type="matrix" values="0 0 0 0 0 0 0 0 0 0 0 0 0 0 0 0 0 0 0.25 0"/>
<feBlend mode="normal" in2="BackgroundImageFix" result="effect1_dropShadow"/>
<feBlend mode="normal" in="SourceGraphic" in2="effect1_dropShadow" result="shape"/>
</filter>
<filter id="filter1_d" x="14.9618" y="7.6008" width="11.3348" height="1.84365" filterUnits="userSpaceOnUse" color-interpolation-filters="sRGB">
<feFlood flood-opacity="0" result="BackgroundImageFix"/>
<feColorMatrix in="SourceAlpha" type="matrix" values="0 0 0 0 0 0 0 0 0 0 0 0 0 0 0 0 0 0 127 0"/>
<feOffset dy="0.481481"/>
<feGaussianBlur stdDeviation="0.103553"/>
<feColorMatrix type="matrix" values="0 0 0 0 0 0 0 0 0 0 0 0 0 0 0 0 0 0 0.25 0"/>
<feBlend mode="normal" in2="BackgroundImageFix" result="effect1_dropShadow"/>
<feBlend mode="normal" in="SourceGraphic" in2="effect1_dropShadow" result="shape"/>
</filter>
</defs>
</svg>
