<svg width="142" height="142" viewBox="0 0 142 142" fill="none" xmlns="http://www.w3.org/2000/svg">
<g style="mix-blend-mode:multiply" opacity="0.1">
<circle cx="3.905" cy="3.905" r="3.905" fill="#00B8C2"/>
<circle cx="18.8149" cy="3.905" r="3.905" fill="#00B8C2"/>
<circle cx="33.7249" cy="3.905" r="3.905" fill="#00B8C2"/>
<circle cx="48.635" cy="3.905" r="3.905" fill="#00B8C2"/>
<circle cx="63.5452" cy="3.905" r="3.905" fill="#00B8C2"/>
<circle cx="78.4548" cy="3.905" r="3.905" fill="#00B8C2"/>
<circle cx="93.3649" cy="3.905" r="3.905" fill="#00B8C2"/>
<circle cx="108.275" cy="3.905" r="3.905" fill="#00B8C2"/>
<circle cx="123.185" cy="3.905" r="3.905" fill="#00B8C2"/>
<circle cx="138.095" cy="3.905" r="3.905" fill="#00B8C2"/>
<circle cx="3.905" cy="18.815" r="3.905" fill="#00B8C2"/>
<circle cx="18.8149" cy="18.815" r="3.905" fill="#00B8C2"/>
<circle cx="33.7249" cy="18.815" r="3.905" fill="#00B8C2"/>
<circle cx="48.635" cy="18.815" r="3.905" fill="#00B8C2"/>
<circle cx="63.5452" cy="18.815" r="3.905" fill="#00B8C2"/>
<circle cx="78.4548" cy="18.815" r="3.905" fill="#00B8C2"/>
<circle cx="93.3649" cy="18.815" r="3.905" fill="#00B8C2"/>
<circle cx="108.275" cy="18.815" r="3.905" fill="#00B8C2"/>
<circle cx="123.185" cy="18.815" r="3.905" fill="#00B8C2"/>
<circle cx="138.095" cy="18.815" r="3.905" fill="#00B8C2"/>
<circle cx="3.905" cy="33.725" r="3.905" fill="#00B8C2"/>
<circle cx="18.8149" cy="33.725" r="3.905" fill="#00B8C2"/>
<circle cx="33.7249" cy="33.725" r="3.905" fill="#00B8C2"/>
<circle cx="48.635" cy="33.725" r="3.905" fill="#00B8C2"/>
<circle cx="63.5452" cy="33.725" r="3.905" fill="#00B8C2"/>
<circle cx="78.4548" cy="33.725" r="3.905" fill="#00B8C2"/>
<circle cx="93.3649" cy="33.725" r="3.905" fill="#00B8C2"/>
<circle cx="108.275" cy="33.725" r="3.905" fill="#00B8C2"/>
<circle cx="123.185" cy="33.725" r="3.905" fill="#00B8C2"/>
<circle cx="138.095" cy="33.725" r="3.905" fill="#00B8C2"/>
<circle cx="3.905" cy="48.635" r="3.905" fill="#00B8C2"/>
<circle cx="18.8149" cy="48.635" r="3.905" fill="#00B8C2"/>
<circle cx="33.7249" cy="48.635" r="3.905" fill="#00B8C2"/>
<circle cx="48.635" cy="48.635" r="3.905" fill="#00B8C2"/>
<circle cx="63.5452" cy="48.635" r="3.905" fill="#00B8C2"/>
<circle cx="78.4548" cy="48.635" r="3.905" fill="#00B8C2"/>
<circle cx="93.3649" cy="48.635" r="3.905" fill="#00B8C2"/>
<circle cx="108.275" cy="48.635" r="3.905" fill="#00B8C2"/>
<circle cx="123.185" cy="48.635" r="3.905" fill="#00B8C2"/>
<circle cx="138.095" cy="48.635" r="3.905" fill="#00B8C2"/>
<circle cx="3.905" cy="63.545" r="3.905" fill="#00B8C2"/>
<circle cx="18.8149" cy="63.545" r="3.905" fill="#00B8C2"/>
<circle cx="33.7249" cy="63.545" r="3.905" fill="#00B8C2"/>
<circle cx="48.635" cy="63.545" r="3.905" fill="#00B8C2"/>
<circle cx="63.5452" cy="63.545" r="3.905" fill="#00B8C2"/>
<circle cx="78.4548" cy="63.545" r="3.905" fill="#00B8C2"/>
<circle cx="93.3649" cy="63.545" r="3.905" fill="#00B8C2"/>
<circle cx="108.275" cy="63.545" r="3.905" fill="#00B8C2"/>
<circle cx="123.185" cy="63.545" r="3.905" fill="#00B8C2"/>
<circle cx="138.095" cy="63.545" r="3.905" fill="#00B8C2"/>
<circle cx="3.905" cy="78.455" r="3.905" fill="#00B8C2"/>
<circle cx="18.8149" cy="78.455" r="3.905" fill="#00B8C2"/>
<circle cx="33.7249" cy="78.455" r="3.905" fill="#00B8C2"/>
<circle cx="48.635" cy="78.455" r="3.905" fill="#00B8C2"/>
<circle cx="63.5452" cy="78.455" r="3.905" fill="#00B8C2"/>
<circle cx="78.4548" cy="78.455" r="3.905" fill="#00B8C2"/>
<circle cx="93.3649" cy="78.455" r="3.905" fill="#00B8C2"/>
<circle cx="108.275" cy="78.455" r="3.905" fill="#00B8C2"/>
<circle cx="123.185" cy="78.455" r="3.905" fill="#00B8C2"/>
<circle cx="138.095" cy="78.455" r="3.905" fill="#00B8C2"/>
<circle cx="3.905" cy="93.365" r="3.905" fill="#00B8C2"/>
<circle cx="18.8149" cy="93.365" r="3.905" fill="#00B8C2"/>
<circle cx="33.7249" cy="93.365" r="3.905" fill="#00B8C2"/>
<circle cx="48.635" cy="93.365" r="3.905" fill="#00B8C2"/>
<circle cx="63.5452" cy="93.365" r="3.905" fill="#00B8C2"/>
<circle cx="78.4548" cy="93.365" r="3.905" fill="#00B8C2"/>
<circle cx="93.3649" cy="93.365" r="3.905" fill="#00B8C2"/>
<circle cx="108.275" cy="93.365" r="3.905" fill="#00B8C2"/>
<circle cx="123.185" cy="93.365" r="3.905" fill="#00B8C2"/>
<circle cx="138.095" cy="93.365" r="3.905" fill="#00B8C2"/>
<circle cx="3.905" cy="108.275" r="3.905" fill="#00B8C2"/>
<circle cx="18.8149" cy="108.275" r="3.905" fill="#00B8C2"/>
<circle cx="33.7249" cy="108.275" r="3.905" fill="#00B8C2"/>
<circle cx="48.635" cy="108.275" r="3.905" fill="#00B8C2"/>
<circle cx="63.5452" cy="108.275" r="3.905" fill="#00B8C2"/>
<circle cx="78.4548" cy="108.275" r="3.905" fill="#00B8C2"/>
<circle cx="93.3649" cy="108.275" r="3.905" fill="#00B8C2"/>
<circle cx="108.275" cy="108.275" r="3.905" fill="#00B8C2"/>
<circle cx="123.185" cy="108.275" r="3.905" fill="#00B8C2"/>
<circle cx="138.095" cy="108.275" r="3.905" fill="#00B8C2"/>
<circle cx="3.905" cy="123.185" r="3.905" fill="#00B8C2"/>
<circle cx="18.8149" cy="123.185" r="3.905" fill="#00B8C2"/>
<circle cx="33.7249" cy="123.185" r="3.905" fill="#00B8C2"/>
<circle cx="48.635" cy="123.185" r="3.905" fill="#00B8C2"/>
<circle cx="63.5452" cy="123.185" r="3.905" fill="#00B8C2"/>
<circle cx="78.4548" cy="123.185" r="3.905" fill="#00B8C2"/>
<circle cx="93.3649" cy="123.185" r="3.905" fill="#00B8C2"/>
<circle cx="108.275" cy="123.185" r="3.905" fill="#00B8C2"/>
<circle cx="123.185" cy="123.185" r="3.905" fill="#00B8C2"/>
<circle cx="138.095" cy="123.185" r="3.905" fill="#00B8C2"/>
<circle cx="3.905" cy="138.095" r="3.905" fill="#00B8C2"/>
<circle cx="18.8149" cy="138.095" r="3.905" fill="#00B8C2"/>
<circle cx="33.7249" cy="138.095" r="3.905" fill="#00B8C2"/>
<circle cx="48.635" cy="138.095" r="3.905" fill="#00B8C2"/>
<circle cx="63.5452" cy="138.095" r="3.905" fill="#00B8C2"/>
<circle cx="78.4548" cy="138.095" r="3.905" fill="#00B8C2"/>
<circle cx="93.3649" cy="138.095" r="3.905" fill="#00B8C2"/>
<circle cx="108.275" cy="138.095" r="3.905" fill="#00B8C2"/>
<circle cx="123.185" cy="138.095" r="3.905" fill="#00B8C2"/>
<circle cx="138.095" cy="138.095" r="3.905" fill="#00B8C2"/>
</g>
</svg>
