<svg width="167" height="133" viewBox="0 0 167 133" fill="none" xmlns="http://www.w3.org/2000/svg">
<path d="M16.3487 17.2992C23.207 -0.482714 41.3484 -10.223 59.2584 -7.55197C59.537 -7.59728 59.7121 -7.60386 59.8872 -7.61045C77.28 -4.74573 95.0399 -13.6356 102.544 -30.3618C102.607 -30.5035 102.846 -30.6518 103.084 -30.8002C113.286 -47.593 134.86 -54.4314 153.418 -46.1059L154.135 -45.7845C172.693 -37.459 181.93 -16.7984 176.17 1.98739C176.258 2.36732 176.266 2.54122 176.203 2.68296C168.731 19.3383 173.868 38.5853 187.572 49.6714C187.684 49.8065 187.795 49.9417 187.947 50.1799C201.851 61.781 206.638 81.8077 197.917 98.7538C188.909 116.338 167.679 124.522 148.907 117.633C126.886 109.542 116.62 84.8442 125.936 64.0782C126.032 63.8656 126.159 63.5821 126.254 63.3695C128.717 55.1942 128.489 46.4931 125.666 38.5862C123.291 31.9864 115.91 28.6755 109.401 31.2894C101.619 34.4388 94.8966 40.0219 90.4994 47.3293C90.404 47.5419 90.2768 47.8254 90.1814 48.038C80.8655 68.804 55.5919 77.5584 34.9071 66.4909C17.3513 57.0826 9.27585 35.7512 16.3487 17.2992Z" fill="url(#paint0_linear)"/>
<defs>
<linearGradient id="paint0_linear" x1="70.5608" y1="155.362" x2="64.8469" y2="-85.6752" gradientUnits="userSpaceOnUse">
<stop stop-color="#F0AA22"/>
<stop offset="1" stop-color="#F05822"/>
</linearGradient>
</defs>
</svg>
