<svg width="53" height="58" viewBox="0 0 53 58" fill="none" xmlns="http://www.w3.org/2000/svg">
<path opacity="0.06" d="M12.0788 23.4865C18.7497 23.4865 24.1575 18.2288 24.1575 11.7432C24.1575 5.25763 18.7497 0 12.0788 0C5.40784 0 0 5.25763 0 11.7432C0 18.2288 5.40784 23.4865 12.0788 23.4865Z" fill="#00B8C2"/>
<path opacity="0.06" d="M29.5254 57.0386C42.126 57.0386 52.3408 46.8238 52.3408 34.2231C52.3408 21.6225 42.126 11.4077 29.5254 11.4077C16.9248 11.4077 6.70996 21.6225 6.70996 34.2231C6.70996 46.8238 16.9248 57.0386 29.5254 57.0386Z" fill="#00B8C2"/>
<rect y="20.1109" width="40.7725" height="26.1362" rx="2.06045" transform="rotate(-12.9122 0 20.1109)" fill="#0099A1"/>
<rect x="3.21973" y="22.4884" width="34.8632" height="3.51625" transform="rotate(-13.2447 3.21973 22.4884)" fill="#F9FBFD"/>
<rect x="4.07666" y="26.1293" width="34.8632" height="0.149627" transform="rotate(-13.2447 4.07666 26.1293)" fill="#063A4F"/>
<rect x="3.13574" y="22.1239" width="34.8632" height="0.149627" transform="rotate(-13.2447 3.13574 22.1239)" fill="#063A4F"/>
<path d="M21.9965 32.057L6.33936 35.7422L6.76787 37.5628L22.425 33.8776L21.9965 32.057Z" fill="#DA9A28"/>
<path d="M30.5459 26.5861L5.56738 32.4653L5.9959 34.2859L30.9744 28.4066L30.5459 26.5861Z" fill="#DA9A28"/>
<path d="M15.7764 36.9797L7.11035 39.0194L7.53887 40.84L16.2049 38.8003L15.7764 36.9797Z" fill="#DA9A28"/>
<rect x="5.22754" y="19.3636" width="40.7725" height="26.1362" rx="2.06045" fill="#063A4F"/>
<path d="M9.80707 22.4998H8.36328V25.1468H9.80707V22.4998Z" fill="#ECAB03"/>
<path d="M13.6567 22.4998H12.2129V25.1468H13.6567V22.4998Z" fill="#ECAB03"/>
<path d="M11.7319 22.4998H10.2881V25.1468H11.7319V22.4998Z" fill="#ECAB03"/>
<path d="M16.3842 22.4998H14.9404V25.1468H16.3842V22.4998Z" fill="#ECAB03"/>
<path d="M20.2343 22.4998H18.7905V25.1468H20.2343V22.4998Z" fill="#ECAB03"/>
<path d="M18.309 22.4998H16.8652V25.1468H18.309V22.4998Z" fill="#ECAB03"/>
<path d="M22.9619 22.4998H21.5181V25.1468H22.9619V22.4998Z" fill="#ECAB03"/>
<path d="M26.8124 22.4998H25.3687V25.1468H26.8124V22.4998Z" fill="#ECAB03"/>
<path d="M24.8867 22.4998H23.4429V25.1468H24.8867V22.4998Z" fill="#ECAB03"/>
<path d="M29.5395 22.4998H28.0957V25.1468H29.5395V22.4998Z" fill="#ECAB03"/>
<path d="M33.3901 22.4998H31.9463V25.1468H33.3901V22.4998Z" fill="#ECAB03"/>
<path d="M31.4643 22.4998H30.0205V25.1468H31.4643V22.4998Z" fill="#ECAB03"/>
<path d="M33.389 34.9325H8.36328V36.3763H33.389V34.9325Z" fill="#ECAB03"/>
<path d="M23.4429 38.141H8.36328V39.5847H23.4429V38.141Z" fill="#ECAB03"/>
<path d="M16.3843 41.2692H8.36328V42.713H16.3843V41.2692Z" fill="#ECAB03"/>
<rect x="36.7573" y="27.794" width="2.65698" height="1.48962" rx="0.125264" fill="#ECAB03"/>
<rect x="39.8027" y="27.7938" width="2.65698" height="1.48962" rx="0.125264" fill="#ECAB03"/>
<rect x="36.7568" y="30.4752" width="2.65698" height="1.48962" rx="0.125264" fill="#ECAB03"/>
<rect x="39.8027" y="30.4752" width="2.65698" height="1.48962" rx="0.125264" fill="#ECAB03"/>
<rect x="36.7568" y="29.482" width="2.65698" height="0.794466" rx="0.125264" fill="#ECAB03"/>
<rect x="39.8027" y="29.482" width="2.65698" height="0.794466" rx="0.125264" fill="#ECAB03"/>
<rect x="39.0024" y="28.4845" width="1.21035" height="2.73015" rx="0.271895" fill="#114B59" stroke="#063A4F" stroke-width="0.167998"/>
</svg>
