<svg width="74" height="105" viewBox="0 0 74 105" fill="none" xmlns="http://www.w3.org/2000/svg">
<path d="M42.6915 34.055V98.6375C42.7015 99.5973 42.5001 100.548 42.1017 101.421C41.7034 102.294 41.1177 103.069 40.3864 103.69C39.3815 104.534 38.1119 104.998 36.7998 105H6.30336C3.04138 105 0.400728 102.151 0.400728 98.6313V34.055C0.393389 32.6691 0.818556 31.3154 1.61698 30.1825C2.69499 28.6665 4.38967 27.6895 6.29715 27.6895H36.7889C40.0509 27.6895 42.6915 30.5398 42.6915 34.0581" fill="#065072"/>
<path d="M11.3269 30.731H7.74181C4.79049 30.731 2.39838 33.3126 2.39838 36.4969V96.0141C2.39838 99.1984 4.79049 101.78 7.74181 101.78H35.3615C38.3128 101.78 40.7049 99.1984 40.7049 96.0141V36.4969C40.7049 33.3126 38.3128 30.731 35.3615 30.731H32.3744V32.0435C32.3744 33.3436 31.3974 34.3968 30.1998 34.3968H13.514C12.3086 34.3968 11.3315 33.3436 11.3315 32.0435L11.3269 30.731Z" fill="#DA9A28"/>
<path d="M40.6629 36.4922H2.39673V96.1942H40.6629V36.4922Z" fill="#F8B318"/>
<path d="M13.9225 30.731H30.0056C30.1649 30.737 30.3154 30.8057 30.4244 30.922C30.5335 31.0383 30.5923 31.1929 30.5881 31.3523V32.0668C30.5923 32.2262 30.5335 32.3808 30.4244 32.4971C30.3154 32.6134 30.1649 32.6821 30.0056 32.6881H13.9225C13.7634 32.6817 13.6133 32.6129 13.5046 32.4966C13.3959 32.3803 13.3373 32.2259 13.3415 32.0668V31.3523C13.3373 31.1932 13.3959 31.0388 13.5046 30.9225C13.6133 30.8062 13.7634 30.7374 13.9225 30.731Z" fill="white"/>
<path d="M14.2999 98.3799H30.0366C30.1959 98.386 30.3464 98.4546 30.4555 98.5709C30.5645 98.6872 30.6233 98.8418 30.6191 99.0012V99.666C30.6233 99.8254 30.5645 99.98 30.4555 100.096C30.3464 100.213 30.1959 100.281 30.0366 100.287H14.2999C14.1406 100.281 13.9901 100.213 13.881 100.096C13.772 99.98 13.7132 99.8254 13.7174 99.666V99.0121C13.7132 98.8527 13.772 98.6981 13.881 98.5818C13.9901 98.4655 14.1406 98.3968 14.2999 98.3908" fill="#065072"/>
<path d="M28.4989 56.1681V56.9681C28.5068 57.1923 28.4257 57.4105 28.2731 57.575C28.1206 57.7395 27.9091 57.8368 27.6849 57.8457H6.51467C6.29037 57.8372 6.07862 57.74 5.92599 57.5755C5.77336 57.4109 5.69233 57.1924 5.70073 56.9681V56.1681C5.69233 55.9438 5.77336 55.7254 5.92599 55.5608C6.07862 55.3962 6.29037 55.299 6.51467 55.2905H27.6849C27.9091 55.2994 28.1206 55.3968 28.2731 55.5612C28.4257 55.7257 28.5068 55.944 28.4989 56.1681Z" fill="white"/>
<path d="M72.8727 64.2843L59.4924 53.9531C62.1294 50.1227 63.538 45.5804 63.531 40.9301C63.531 28.2316 53.1998 17.8989 40.4999 17.8989C27.7999 17.8989 17.4734 28.2316 17.4734 40.9301C17.4734 53.6285 27.8045 63.9612 40.503 63.9612C43.708 63.9623 46.8777 63.2929 49.8086 61.996C52.7395 60.6991 55.3666 58.8034 57.5212 56.4307L70.9404 66.7882C71.0777 66.8942 71.2345 66.972 71.402 67.0173C71.5694 67.0625 71.7441 67.0743 71.9161 67.052C72.0881 67.0296 72.254 66.9735 72.4043 66.887C72.5545 66.8004 72.6863 66.685 72.7919 66.5475L73.1026 66.1343C73.2087 65.9972 73.2868 65.8405 73.3323 65.6732C73.3778 65.5059 73.3898 65.3312 73.3677 65.1592C73.3457 64.9872 73.2899 64.8213 73.2036 64.6709C73.1173 64.5205 73.0022 64.3886 72.8649 64.2827L72.8727 64.2843ZM40.503 60.8002C36.5732 60.8005 32.7316 59.6354 29.464 57.4524C26.1964 55.2693 23.6496 52.1663 22.1456 48.5357C20.6416 44.9051 20.248 40.9101 21.0145 37.0558C21.7811 33.2016 23.6735 29.6612 26.4522 26.8824C29.231 24.1037 32.7714 22.2113 36.6256 21.4447C40.4799 20.6782 44.4749 21.0718 48.1055 22.5757C51.7361 24.0797 54.8391 26.6266 57.0222 29.8942C59.2052 33.1618 60.3703 37.0034 60.37 40.9332C60.3659 46.201 58.2714 51.2518 54.5465 54.9767C50.8216 58.7016 45.7708 60.7961 40.503 60.8002Z" fill="#0099A0"/>
<path d="M60.3699 40.9301C60.3658 44.8739 59.1898 48.7275 56.9914 52.0018C54.793 55.276 51.6713 57.8232 48.0226 59.3199V30.9469H23.3247C25.5193 27.1699 28.8978 24.2216 32.9372 22.5585C36.9765 20.8953 41.4515 20.6101 45.6693 21.747C49.8871 22.8838 53.6126 25.3793 56.269 28.8471C58.9254 32.315 60.3645 36.5618 60.3637 40.9301" fill="#065072"/>
<path d="M5.06073 12.3053C5.06073 12.8057 4.91232 13.2949 4.63428 13.7111C4.35624 14.1272 3.96106 14.4515 3.4987 14.643C3.03633 14.8345 2.52756 14.8846 2.03671 14.787C1.54587 14.6894 1.09501 14.4484 0.741129 14.0945C0.387251 13.7406 0.146257 13.2898 0.0486223 12.7989C-0.0490124 12.3081 0.00109369 11.7993 0.192611 11.3369C0.384128 10.8746 0.708451 10.4794 1.12457 10.2013C1.54068 9.92331 2.02991 9.7749 2.53037 9.7749C3.20146 9.7749 3.84507 10.0415 4.3196 10.516C4.79414 10.9906 5.06073 11.6342 5.06073 12.3053Z" fill="#0099A0"/>
<path d="M14.3559 20.5583C14.3562 21.39 14.1098 22.2031 13.648 22.8948C13.1861 23.5865 12.5295 24.1257 11.7612 24.4442C10.9929 24.7626 10.1474 24.8461 9.33165 24.6841C8.51588 24.522 7.7665 24.1217 7.17829 23.5337C6.59008 22.9457 6.18945 22.1964 6.02708 21.3807C5.86471 20.565 5.94789 19.7195 6.2661 18.9511C6.58431 18.1826 7.12325 17.5258 7.81477 17.0637C8.50628 16.6016 9.31931 16.355 10.151 16.355C11.2659 16.355 12.3352 16.7978 13.1237 17.586C13.9123 18.3742 14.3555 19.4433 14.3559 20.5583Z" fill="#0099A0"/>
<path d="M20.5039 6.15272C20.5039 7.36961 20.1431 8.55917 19.467 9.57098C18.7909 10.5828 17.83 11.3714 16.7057 11.8371C15.5815 12.3028 14.3444 12.4246 13.1509 12.1872C11.9574 11.9498 10.861 11.3638 10.0006 10.5033C9.1401 9.64287 8.55412 8.54656 8.31671 7.35305C8.07931 6.15954 8.20115 4.92243 8.66684 3.79817C9.13252 2.67391 9.92113 1.71299 10.9329 1.03692C11.9447 0.360851 13.1343 0 14.3512 0C15.1592 0 15.9593 0.159145 16.7057 0.468348C17.4522 0.777551 18.1305 1.23076 18.7018 1.80209C19.2732 2.37342 19.7264 3.05169 20.0356 3.79817C20.3448 4.54465 20.5039 5.34473 20.5039 6.15272Z" fill="#0099A0"/>
<path d="M36.3059 66.6081V67.4081C36.3139 67.6324 36.2327 67.8508 36.0802 68.0155C35.9277 68.1803 35.7162 68.2779 35.4919 68.2872H6.51467C6.29023 68.2784 6.07849 68.1808 5.9259 68.016C5.7733 67.8511 5.69232 67.6325 5.70073 67.4081V66.6081C5.69233 66.3838 5.77336 66.1653 5.92599 66.0008C6.07862 65.8362 6.29037 65.739 6.51467 65.7305H35.4919C35.7161 65.7394 35.9276 65.8367 36.0801 66.0012C36.2327 66.1657 36.3139 66.3839 36.3059 66.6081Z" fill="white"/>
<path d="M28.1152 76.178V76.9764C28.1152 77.4611 27.848 77.8556 27.5187 77.8556H6.29722C5.96792 77.8556 5.70074 77.4611 5.70074 76.9764V76.178C5.70074 75.6918 5.96792 75.2988 6.29722 75.2988H27.5172C27.8465 75.2988 28.1137 75.6918 28.1137 76.178" fill="white"/>
<path d="M32.5686 85.7561V86.5545C32.5686 87.0407 32.2486 87.4337 31.8541 87.4337H6.41527C6.02073 87.4337 5.70074 87.0407 5.70074 86.5545V85.7561C5.70074 85.2699 6.02073 84.877 6.41527 84.877H31.8541C32.2486 84.877 32.5686 85.2699 32.5686 85.7561Z" fill="white"/>
<path d="M15.8548 43.3596V44.2916C15.8548 44.7762 15.6078 45.1692 15.3034 45.1692H6.25217C5.94151 45.1692 5.70074 44.7762 5.70074 44.2916V43.3596C5.70074 42.8749 5.94772 42.4819 6.25217 42.4819H15.3034C15.6141 42.4819 15.8548 42.8749 15.8548 43.3596Z" fill="white"/>
<path d="M48.0225 30.9468V59.3198C44.1825 60.8939 39.9458 61.2255 35.9076 60.2683C31.8694 59.311 28.2325 57.1128 25.5076 53.9825C22.7828 50.8522 21.1069 46.947 20.7154 42.8153C20.3239 38.6837 21.2363 34.5332 23.3247 30.9468H48.0225Z" fill="#F8B318"/>
</svg>
