<svg width="1260" height="370" viewBox="0 0 1260 370" fill="none" xmlns="http://www.w3.org/2000/svg">
<mask id="mask0_471_12284" style="mask-type:alpha" maskUnits="userSpaceOnUse" x="0" y="0" width="1260" height="370">
<path d="M0 24C0 10.7452 10.7452 0 24 0H1236C1249.25 0 1260 10.7452 1260 24V346C1260 359.255 1249.25 370 1236 370H24C10.7452 370 0 359.255 0 346V24Z" fill="#063A4F"/>
</mask>
<g mask="url(#mask0_471_12284)">
<g opacity="0.5">
<g opacity="0.2">
<path d="M179.662 -13.9634C175.46 -1.48463 161.467 5.50255 148.284 1.75825L151.332 -7.28129C159.218 -5.14228 167.591 -9.31888 170.117 -16.8486C172.644 -24.3777 168.423 -32.4372 160.702 -35.0585L163.75 -44.0986C176.77 -39.8671 183.864 -26.4399 179.662 -13.9634Z" stroke="#F9FBFD"/>
<path d="M88.6951 51.1111C78.6215 41.9731 77.9458 26.7022 87.28 16.7939C96.6167 6.88288 112.476 5.99959 122.911 14.7472L116.127 21.941C109.831 16.7736 100.346 17.3603 94.7449 23.2997C89.1387 29.2442 89.5166 38.3994 95.4476 43.9474L88.6951 51.1111Z" stroke="#F9FBFD"/>
<path d="M34.3735 48.8203L16.702 22.8874L25.0813 17.6235L42.7528 43.5564L34.3735 48.8203Z" stroke="#F9FBFD"/>
<path d="M153.378 26.1898C157.46 27.22 159.872 31.2212 158.81 35.1003C157.748 38.9794 153.599 41.3252 149.517 40.2949C145.434 39.2647 143.023 35.2634 144.084 31.3844C145.146 27.5053 149.295 25.1595 153.378 26.1898Z" stroke="#F9FBFD"/>
<path d="M203.939 28.9582C208.047 29.8897 210.562 33.8314 209.602 37.734C208.642 41.6366 204.557 44.0819 200.448 43.1504C196.34 42.2189 193.825 38.2772 194.785 34.3746C195.745 30.4721 199.83 28.0267 203.939 28.9582Z" stroke="#F9FBFD"/>
<path d="M287.702 50.9732L281.825 43.2064L307.949 24.9817L313.826 32.7485L287.702 50.9732Z" stroke="#F9FBFD"/>
<path d="M280.598 14.1127L287.551 20.9964C277.668 30.0159 262.058 29.7759 252.481 20.307C242.936 10.8695 242.946 -4.25961 252.481 -13.6848L259.403 -6.83052C253.81 -1.12357 253.833 7.93076 259.569 13.589C265.303 19.244 274.627 19.4498 280.598 14.1127Z" stroke="#F9FBFD"/>
<path d="M247.028 38.2574C248.629 41.9666 246.8 46.2429 242.904 47.7924C239.008 49.342 234.565 47.5598 232.965 43.8506C231.365 40.1415 233.194 35.8652 237.09 34.3156C240.986 32.7661 245.428 34.5483 247.028 38.2574Z" stroke="#F9FBFD"/>
<path d="M304.27 192.692L293.961 163.333L303.457 160.259L313.767 189.618L304.27 192.692Z" stroke="#F9FBFD"/>
<path d="M179.662 300.455C175.46 312.933 161.467 319.921 148.284 316.176L151.332 307.137C159.218 309.276 167.591 305.099 170.117 297.569C172.644 290.04 168.423 281.981 160.702 279.359L163.75 270.319C176.77 274.551 183.864 287.978 179.662 300.455Z" stroke="#F9FBFD"/>
<path d="M88.6951 365.529C78.6215 356.391 77.9458 341.12 87.28 331.212C96.6167 321.301 112.476 320.418 122.911 329.165L116.127 336.359C109.831 331.192 100.346 331.778 94.7449 337.718C89.1387 343.662 89.5166 352.817 95.4476 358.365L88.6951 365.529Z" stroke="#F9FBFD"/>
<path d="M222.512 291.553C225.481 294.404 225.481 299.026 222.512 301.877C219.543 304.728 214.728 304.728 211.759 301.877C208.79 299.026 208.79 294.404 211.759 291.553C214.728 288.702 219.543 288.702 222.512 291.553Z" stroke="#F9FBFD"/>
<path d="M66.0309 292.592L35.474 282.541L38.7113 273.468L69.2681 283.52L66.0309 292.592Z" stroke="#F9FBFD"/>
<path d="M34.3735 363.238L16.702 337.305L25.0813 332.041L42.7528 357.974L34.3735 363.238Z" stroke="#F9FBFD"/>
<path d="M1.94297 108.072C1.94297 112.044 -1.39937 115.295 -5.56026 115.295C-9.72115 115.295 -13.0635 112.044 -13.0635 108.072C-13.0635 104.1 -9.72115 100.85 -5.56026 100.85C-1.39937 100.85 1.94297 104.1 1.94297 108.072Z" stroke="#F9FBFD"/>
<path d="M18.4602 157.455C19.7187 161.281 17.5131 165.39 13.4891 166.611C9.46511 167.831 5.20137 165.684 3.94283 161.858C2.6843 158.032 4.88995 153.923 8.91393 152.703C12.9379 151.482 17.2016 153.63 18.4602 157.455Z" stroke="#F9FBFD"/>
<path d="M69.9703 161.027C69.9703 164.999 66.628 168.25 62.4671 168.25C58.3062 168.25 54.9639 164.999 54.9639 161.027C54.9639 157.055 58.3062 153.805 62.4671 153.805C66.628 153.805 69.9703 157.055 69.9703 161.027Z" stroke="#F9FBFD"/>
<path d="M240.253 138.462C226.31 138.462 215.028 127.634 215.028 114.416C215.028 101.167 226.342 90.3691 240.253 90.3691C254.164 90.3691 265.478 101.198 265.478 114.416C265.478 127.665 254.164 138.462 240.253 138.462ZM240.253 99.8403C231.858 99.8403 225.002 106.35 225.002 114.416C225.002 122.482 231.858 128.991 240.253 128.991C248.647 128.991 255.504 122.482 255.504 114.416C255.504 106.349 248.614 99.8403 240.253 99.8403Z" stroke="#F9FBFD"/>
<path d="M301.493 263.627V263.628C301.524 277.038 290.33 287.95 276.554 287.95C262.779 287.95 251.615 277.008 251.615 263.627C251.615 250.216 262.811 239.305 276.554 239.305C290.329 239.305 301.493 250.246 301.493 263.627ZM276.554 248.894C268.239 248.894 261.467 255.484 261.467 263.627C261.467 271.77 268.239 278.361 276.554 278.361C284.869 278.361 291.641 271.77 291.641 263.627C291.641 255.484 284.869 248.894 276.554 248.894Z" stroke="#F9FBFD"/>
<path d="M133.996 76.3553V76.3565C134.029 89.568 122.593 100.402 108.486 100.402C94.3798 100.402 82.9756 89.5688 82.9756 76.3553C82.9756 63.1114 94.4119 52.3086 108.486 52.3086C122.592 52.3086 133.996 63.1417 133.996 76.3553ZM108.486 61.7487C100.006 61.7487 93.0712 68.2532 93.0712 76.3242C93.0712 84.3951 100.006 90.8997 108.486 90.8997C116.966 90.8997 123.901 84.3951 123.901 76.3242C123.901 68.285 116.966 61.7487 108.486 61.7487Z" stroke="#F9FBFD"/>
<path d="M13.2888 295.961C17.3999 296.882 19.9252 300.818 18.9759 304.723C18.0266 308.628 13.9477 311.083 9.83658 310.162C5.72547 309.241 3.20021 305.305 4.1495 301.4C5.09879 297.495 9.17772 295.04 13.2888 295.961Z" stroke="#F9FBFD"/>
<path d="M105.227 126.097C109.315 127.11 111.744 131.1 110.701 134.984C109.657 138.867 105.519 141.231 101.432 140.218C97.3442 139.205 94.9144 135.214 95.9583 131.331C97.0021 127.447 101.14 125.084 105.227 126.097Z" stroke="#F9FBFD"/>
<path d="M153.378 340.608C157.46 341.638 159.872 345.639 158.81 349.518C157.748 353.397 153.599 355.743 149.517 354.713C145.434 353.683 143.023 349.681 144.084 345.802C145.146 341.923 149.295 339.577 153.378 340.608Z" stroke="#F9FBFD"/>
<path d="M203.939 343.376C208.047 344.308 210.562 348.249 209.602 352.152C208.642 356.055 204.557 358.5 200.448 357.568C196.34 356.637 193.825 352.695 194.785 348.793C195.745 344.89 199.83 342.445 203.939 343.376Z" stroke="#F9FBFD"/>
<path d="M195.924 165.925L171.68 145.452L178.285 138.24L202.53 158.713L195.924 165.925Z" stroke="#F9FBFD"/>
<path d="M287.702 365.391L281.825 357.624L307.949 339.4L313.826 347.166L287.702 365.391Z" stroke="#F9FBFD"/>
<path d="M191.733 100.49C193.333 104.199 191.504 108.475 187.608 110.025C183.712 111.574 179.27 109.792 177.669 106.083C176.069 102.374 177.898 98.0976 181.794 96.548C185.69 94.9985 190.132 96.7807 191.733 100.49Z" stroke="#F9FBFD"/>
<path d="M303.194 122.644C307.303 123.575 309.817 127.517 308.858 131.42C307.898 135.322 303.813 137.767 299.704 136.836C295.596 135.904 293.081 131.963 294.041 128.06C295 124.158 299.086 121.712 303.194 122.644Z" stroke="#F9FBFD"/>
<path d="M163.723 68.6323C163.723 72.4198 160.287 75.579 155.934 75.579C151.58 75.579 148.145 72.4198 148.145 68.6323C148.145 64.8448 151.58 61.6855 155.934 61.6855C160.287 61.6855 163.723 64.8448 163.723 68.6323Z" stroke="#F9FBFD"/>
<path d="M304.343 80.5674L312.137 86.5387C303.489 96.7426 287.95 98.4475 277.184 90.2166C266.45 81.9849 264.467 66.9255 272.688 56.3656L280.486 62.3394C275.682 68.7127 276.88 77.7553 283.351 82.6688C289.784 87.578 299.112 86.6492 304.343 80.5674Z" stroke="#F9FBFD"/>
<path d="M238.208 80.9085L210.994 64.2143L216.376 56.126L243.59 72.8201L238.208 80.9085Z" stroke="#F9FBFD"/>
<path d="M15.6625 75.7394L11.8602 66.8695L41.7275 55.0661L45.5298 63.936L15.6625 75.7394Z" stroke="#F9FBFD"/>
<path d="M280.598 328.531L287.551 335.414C277.668 344.434 262.058 344.194 252.481 334.725C242.936 325.287 242.946 310.158 252.481 300.733L259.403 307.587C253.81 313.294 253.833 322.349 259.569 328.007C265.303 333.662 274.627 333.868 280.598 328.531Z" stroke="#F9FBFD"/>
<path d="M308.924 222.256C308.924 226.245 305.692 229.478 301.707 229.478C297.721 229.478 294.489 226.245 294.489 222.256C294.489 218.267 297.721 215.033 301.707 215.033C305.692 215.033 308.924 218.267 308.924 222.256Z" stroke="#F9FBFD"/>
<path d="M312.354 302.515C312.354 306.318 309.029 309.462 304.851 309.462C300.672 309.462 297.348 306.318 297.348 302.515C297.348 298.712 300.672 295.568 304.851 295.568C309.029 295.568 312.354 298.712 312.354 302.515Z" stroke="#F9FBFD"/>
<path d="M247.028 352.675C248.629 356.385 246.8 360.661 242.904 362.21C239.008 363.76 234.565 361.978 232.965 358.269C231.365 354.559 233.194 350.283 237.09 348.734C240.986 347.184 245.428 348.966 247.028 352.675Z" stroke="#F9FBFD"/>
<path d="M263.252 155.281C264.852 158.99 263.024 163.266 259.127 164.816C255.231 166.365 250.789 164.583 249.189 160.874C247.589 157.165 249.417 152.889 253.313 151.339C257.209 149.79 261.652 151.572 263.252 155.281Z" stroke="#F9FBFD"/>
<path d="M189.1 259.42L185.335 250.536L215.25 238.848L219.016 247.732L189.1 259.42Z" stroke="#F9FBFD"/>
<path d="M249.841 201.335C253.949 202.267 256.464 206.208 255.504 210.111C254.545 214.014 250.459 216.459 246.351 215.527C242.242 214.596 239.727 210.654 240.687 206.752C241.647 202.849 245.732 200.404 249.841 201.335Z" stroke="#F9FBFD"/>
<path d="M150.003 114.416C150.003 118.557 146.644 121.915 142.499 121.915C138.355 121.915 134.996 118.557 134.996 114.416C134.996 110.275 138.355 106.918 142.499 106.918C146.644 106.918 150.003 110.275 150.003 114.416Z" stroke="#F9FBFD"/>
<path d="M61.9674 252.043C61.9674 256.015 58.6251 259.265 54.4642 259.265C50.3033 259.265 46.9609 256.015 46.9609 252.043C46.9609 248.071 50.3033 244.82 54.4642 244.82C58.6251 244.82 61.9674 248.071 61.9674 252.043Z" stroke="#F9FBFD"/>
<path d="M66.6291 200.272C77.4524 192.277 93.1945 193.853 101.941 203.847L101.941 203.847C110.717 213.868 109.29 228.648 98.8441 237.015L92.4908 229.742C98.6577 224.624 99.4645 215.76 94.1774 209.766C88.8962 203.75 79.4948 202.783 73.0082 207.513L66.6291 200.272Z" stroke="#F9FBFD"/>
<path d="M205.097 197.215L214.455 200.248C209.868 212.567 195.843 219.179 182.914 214.974C169.985 210.769 162.953 197.313 167.018 184.824L176.409 187.887C174.069 195.427 178.35 203.439 186.094 205.965C193.84 208.492 202.242 204.586 205.097 197.215Z" stroke="#F9FBFD"/>
<path d="M152.144 225.902C155.113 228.753 155.113 233.376 152.144 236.227C149.174 239.078 144.36 239.078 141.391 236.227C138.421 233.376 138.421 228.753 141.391 225.902C144.36 223.051 149.174 223.051 152.144 225.902Z" stroke="#F9FBFD"/>
<path d="M12.8626 226.498L9.09731 217.614L39.0132 205.926L42.7785 214.81L12.8626 226.498Z" stroke="#F9FBFD"/>
<path d="M129.202 184.913L120.093 180.908L133.527 152.736L142.636 156.741L129.202 184.913Z" stroke="#F9FBFD"/>
<path d="M124.278 283.209C124.278 287.334 120.808 290.708 116.489 290.708C112.17 290.708 108.7 287.334 108.7 283.209C108.7 279.085 112.17 275.711 116.489 275.711C120.808 275.711 124.278 279.085 124.278 283.209Z" stroke="#F9FBFD"/>
<path d="M54.7713 124.062L44.4617 94.7025L53.9579 91.6283L64.2676 120.987L54.7713 124.062Z" stroke="#F9FBFD"/>
<path d="M377.523 9.6108C377.523 13.3983 374.088 16.5575 369.734 16.5575C365.381 16.5575 361.945 13.3983 361.945 9.6108C361.945 5.82327 365.381 2.66406 369.734 2.66406C374.088 2.66406 377.523 5.82327 377.523 9.6108Z" stroke="#F9FBFD"/>
<path d="M333.392 1.4232L327.058 -28.9526L336.886 -30.8419L343.22 -0.466093L333.392 1.4232Z" stroke="#F9FBFD"/>
<path d="M618.125 -13.9634C613.923 -1.48463 599.929 5.50255 586.747 1.75825L589.795 -7.28129C597.681 -5.14228 606.054 -9.31888 608.58 -16.8486C611.107 -24.3777 606.886 -32.4372 599.165 -35.0585L602.213 -44.0986C615.233 -39.8671 622.327 -26.4399 618.125 -13.9634Z" stroke="#F9FBFD"/>
<path d="M527.158 51.1111C517.084 41.9731 516.409 26.7022 525.743 16.7939C535.08 6.88288 550.939 5.99959 561.374 14.7472L554.59 21.941C548.294 16.7736 538.809 17.3603 533.208 23.2997C527.602 29.2442 527.98 38.3994 533.91 43.9474L527.158 51.1111Z" stroke="#F9FBFD"/>
<path d="M418.755 49.3502L409.647 45.3456L423.081 17.1736L432.19 21.1782L418.755 49.3502Z" stroke="#F9FBFD"/>
<path d="M343.796 38.2952C343.796 42.4198 340.326 45.7936 336.007 45.7936C331.688 45.7936 328.218 42.4198 328.218 38.2952C328.218 34.1707 331.688 30.7969 336.007 30.7969C340.326 30.7969 343.796 34.1707 343.796 38.2952Z" stroke="#F9FBFD"/>
<path d="M472.836 48.8203L455.165 22.8874L463.544 17.6235L481.216 43.5564L472.836 48.8203Z" stroke="#F9FBFD"/>
<path d="M591.841 26.1898C595.923 27.22 598.335 31.2212 597.273 35.1003C596.211 38.9794 592.062 41.3252 587.98 40.2949C583.897 39.2647 581.486 35.2634 582.547 31.3844C583.609 27.5053 587.758 25.1595 591.841 26.1898Z" stroke="#F9FBFD"/>
<path d="M642.401 28.9582C646.51 29.8897 649.025 33.8314 648.065 37.734C647.105 41.6366 643.02 44.0819 638.911 43.1504C634.803 42.2189 632.288 38.2772 633.248 34.3746C634.207 30.4721 638.293 28.0267 642.401 28.9582Z" stroke="#F9FBFD"/>
<path d="M726.165 50.9732L720.288 43.2064L746.412 24.9817L752.289 32.7485L726.165 50.9732Z" stroke="#F9FBFD"/>
<path d="M719.061 14.1127L726.013 20.9964C716.131 30.0159 700.521 29.7759 690.944 20.307C681.399 10.8695 681.409 -4.25961 690.944 -13.6848L697.866 -6.83052C692.273 -1.12357 692.296 7.93076 698.032 13.589C703.766 19.244 713.09 19.4498 719.061 14.1127Z" stroke="#F9FBFD"/>
<path d="M685.491 38.2574C687.091 41.9666 685.263 46.2429 681.367 47.7924C677.471 49.342 673.028 47.5598 671.428 43.8506C669.828 40.1415 671.657 35.8652 675.553 34.3156C679.449 32.7661 683.891 34.5483 685.491 38.2574Z" stroke="#F9FBFD"/>
<path d="M417.539 211.775C417.539 215.764 414.308 218.998 410.322 218.998C406.336 218.998 403.104 215.764 403.104 211.775C403.104 207.786 406.336 204.553 410.322 204.553C414.308 204.553 417.539 207.786 417.539 211.775Z" stroke="#F9FBFD"/>
<path d="M377.523 324.029C377.523 327.816 374.088 330.976 369.734 330.976C365.381 330.976 361.945 327.816 361.945 324.029C361.945 320.241 365.381 317.082 369.734 317.082C374.088 317.082 377.523 320.241 377.523 324.029Z" stroke="#F9FBFD"/>
<path d="M434.118 274.108V274.109C434.149 287.488 422.955 298.43 409.179 298.43C395.404 298.43 384.24 287.488 384.24 274.108C384.24 260.696 395.436 249.785 409.179 249.785C422.954 249.785 434.118 260.727 434.118 274.108ZM409.179 259.343C400.864 259.343 394.092 265.933 394.092 274.076C394.092 282.219 400.864 288.81 409.179 288.81C417.494 288.81 424.266 282.219 424.266 274.076C424.266 265.965 417.495 259.343 409.179 259.343Z" stroke="#F9FBFD"/>
<path d="M742.733 192.692L732.424 163.333L741.92 160.259L752.23 189.618L742.733 192.692Z" stroke="#F9FBFD"/>
<path d="M321.656 210.22L315.166 202.913L339.734 182.795L346.225 190.103L321.656 210.22Z" stroke="#F9FBFD"/>
<path d="M333.392 315.841L327.058 285.465L336.886 283.576L343.22 313.952L333.392 315.841Z" stroke="#F9FBFD"/>
<path d="M618.125 300.455C613.923 312.933 599.929 319.921 586.747 316.176L589.795 307.137C597.681 309.276 606.054 305.099 608.58 297.569C611.107 290.04 606.886 281.981 599.165 279.359L602.213 270.319C615.233 274.551 622.327 287.978 618.125 300.455Z" stroke="#F9FBFD"/>
<path d="M527.158 365.529C517.084 356.391 516.409 341.12 525.743 331.212C535.08 321.301 550.939 320.418 561.374 329.165L554.59 336.359C548.294 331.192 538.809 331.778 533.208 337.718C527.602 343.662 527.98 352.817 533.91 358.365L527.158 365.529Z" stroke="#F9FBFD"/>
<path d="M356.072 63.5808C365.403 73.3608 364.728 88.4326 354.654 97.4525L347.906 90.3843C353.833 84.9036 354.21 75.8616 348.602 69.9909C343 64.126 333.517 63.5481 327.222 68.6515L320.444 61.5542C330.879 52.9228 346.737 53.7974 356.072 63.5808Z" stroke="#F9FBFD"/>
<path d="M399.984 154.454L405.891 162.203C394.647 169.77 379.014 167.326 370.841 156.693C362.672 146.065 364.979 131.093 375.906 123.104L381.844 130.827C375.402 135.695 374.066 144.658 378.983 151.043C383.895 157.423 393.218 158.909 399.984 154.454Z" stroke="#F9FBFD"/>
<path d="M660.974 291.553C663.943 294.404 663.943 299.026 660.974 301.877C658.005 304.728 653.19 304.728 650.221 301.877C647.252 299.026 647.251 294.404 650.221 291.553C653.19 288.702 658.005 288.702 660.974 291.553Z" stroke="#F9FBFD"/>
<path d="M418.755 363.768L409.647 359.764L423.081 331.592L432.19 335.596L418.755 363.768Z" stroke="#F9FBFD"/>
<path d="M504.494 292.592L473.937 282.541L477.174 273.468L507.731 283.52L504.494 292.592Z" stroke="#F9FBFD"/>
<path d="M343.796 352.713C343.796 356.838 340.326 360.212 336.007 360.212C331.688 360.212 328.218 356.838 328.218 352.713C328.218 348.589 331.688 345.215 336.007 345.215C340.326 345.215 343.796 348.589 343.796 352.713Z" stroke="#F9FBFD"/>
<path d="M339.786 248.746L333.578 241.218L358.894 221.974L365.101 229.502L339.786 248.746Z" stroke="#F9FBFD"/>
<path d="M472.836 363.238L455.165 337.305L463.544 332.041L481.216 357.974L472.836 363.238Z" stroke="#F9FBFD"/>
<path d="M440.406 108.072C440.406 112.044 437.064 115.295 432.903 115.295C428.742 115.295 425.399 112.044 425.399 108.072C425.399 104.1 428.742 100.85 432.903 100.85C437.064 100.85 440.406 104.1 440.406 108.072Z" stroke="#F9FBFD"/>
<path d="M456.923 157.455C458.182 161.281 455.976 165.39 451.952 166.611C447.928 167.831 443.664 165.684 442.406 161.858C441.147 158.032 443.353 153.923 447.377 152.703C451.401 151.482 455.665 153.63 456.923 157.455Z" stroke="#F9FBFD"/>
<path d="M348.075 132.459L324.907 110.868L331.875 103.975L355.043 125.566L348.075 132.459Z" stroke="#F9FBFD"/>
<path d="M508.433 161.027C508.433 164.999 505.091 168.25 500.93 168.25C496.769 168.25 493.427 164.999 493.427 161.027C493.427 157.055 496.769 153.805 500.93 153.805C505.091 153.805 508.433 157.055 508.433 161.027Z" stroke="#F9FBFD"/>
<path d="M334.969 153.936C336.545 157.654 334.689 161.919 330.783 163.446C326.877 164.972 322.446 163.164 320.87 159.446C319.294 155.727 321.15 151.462 325.056 149.935C328.962 148.409 333.392 150.217 334.969 153.936Z" stroke="#F9FBFD"/>
<path d="M678.716 138.462C664.773 138.462 653.491 127.634 653.491 114.416C653.491 101.167 664.804 90.3691 678.716 90.3691C692.627 90.3691 703.941 101.198 703.941 114.416C703.941 127.665 692.627 138.462 678.716 138.462ZM678.716 99.8403C670.321 99.8403 663.465 106.35 663.465 114.416C663.465 122.482 670.321 128.991 678.716 128.991C687.11 128.991 693.967 122.482 693.967 114.416C693.967 106.349 687.077 99.8403 678.716 99.8403Z" stroke="#F9FBFD"/>
<path d="M739.956 263.627V263.628C739.987 277.038 728.793 287.95 715.017 287.95C701.242 287.95 690.078 277.008 690.078 263.627C690.078 250.216 701.274 239.305 715.017 239.305C728.792 239.305 739.956 250.246 739.956 263.627ZM715.017 248.894C706.702 248.894 699.93 255.484 699.93 263.627C699.93 271.77 706.702 278.361 715.017 278.361C723.332 278.361 730.104 271.77 730.104 263.627C730.104 255.484 723.332 248.894 715.017 248.894Z" stroke="#F9FBFD"/>
<path d="M572.459 76.3553V76.3565C572.492 89.568 561.056 100.402 546.949 100.402C532.843 100.402 521.438 89.5688 521.438 76.3553C521.438 63.1114 532.875 52.3086 546.949 52.3086C561.055 52.3086 572.459 63.1417 572.459 76.3553ZM546.949 61.7487C538.469 61.7487 531.534 68.2532 531.534 76.3242C531.534 84.3951 538.469 90.8997 546.949 90.8997C555.429 90.8997 562.364 84.3951 562.364 76.3242C562.364 68.285 555.429 61.7487 546.949 61.7487Z" stroke="#F9FBFD"/>
<path d="M399.098 82.3273L374.775 61.9376L381.354 54.703L405.676 75.0926L399.098 82.3273Z" stroke="#F9FBFD"/>
<path d="M451.752 295.961C455.863 296.882 458.388 300.818 457.439 304.723C456.489 308.628 452.411 311.083 448.299 310.162C444.188 309.241 441.663 305.305 442.612 301.4C443.562 297.495 447.641 295.04 451.752 295.961Z" stroke="#F9FBFD"/>
<path d="M543.69 126.097C547.777 127.11 550.207 131.1 549.163 134.984C548.12 138.867 543.982 141.231 539.894 140.218C535.807 139.205 533.377 135.214 534.421 131.331C535.465 127.447 539.603 125.084 543.69 126.097Z" stroke="#F9FBFD"/>
<path d="M591.841 340.608C595.923 341.638 598.335 345.639 597.273 349.518C596.211 353.397 592.062 355.743 587.98 354.713C583.897 353.683 581.486 349.681 582.547 345.802C583.609 341.923 587.758 339.577 591.841 340.608Z" stroke="#F9FBFD"/>
<path d="M642.401 343.376C646.51 344.308 649.025 348.249 648.065 352.152C647.105 356.055 643.02 358.5 638.911 357.568C634.803 356.637 632.288 352.695 633.248 348.793C634.207 344.89 638.293 342.445 642.401 343.376Z" stroke="#F9FBFD"/>
<path d="M634.387 165.925L610.143 145.452L616.748 138.24L640.993 158.713L634.387 165.925Z" stroke="#F9FBFD"/>
<path d="M726.165 365.391L720.288 357.624L746.412 339.4L752.289 347.166L726.165 365.391Z" stroke="#F9FBFD"/>
<path d="M630.195 100.49C631.796 104.199 629.967 108.475 626.071 110.025C622.175 111.574 617.732 109.792 616.132 106.083C614.532 102.374 616.361 98.0976 620.257 96.548C624.153 94.9985 628.595 96.7807 630.195 100.49Z" stroke="#F9FBFD"/>
<path d="M741.657 122.644C745.766 123.575 748.28 127.517 747.321 131.42C746.361 135.322 742.275 137.767 738.167 136.836C734.058 135.904 731.544 131.963 732.503 128.06C733.463 124.158 737.549 121.712 741.657 122.644Z" stroke="#F9FBFD"/>
<path d="M602.186 68.6323C602.186 72.4198 598.75 75.579 594.396 75.579C590.043 75.579 586.607 72.4198 586.607 68.6323C586.607 64.8448 590.043 61.6855 594.396 61.6855C598.75 61.6855 602.186 64.8448 602.186 68.6323Z" stroke="#F9FBFD"/>
<path d="M742.806 80.5674L750.6 86.5387C741.952 96.7426 726.413 98.4475 715.647 90.2166C704.913 81.9849 702.93 66.9255 711.151 56.3656L718.949 62.3394C714.145 68.7127 715.343 77.7553 721.814 82.6688C728.246 87.578 737.575 86.6492 742.806 80.5674Z" stroke="#F9FBFD"/>
<path d="M676.671 80.9085L649.457 64.2143L654.839 56.126L682.053 72.8201L676.671 80.9085Z" stroke="#F9FBFD"/>
<path d="M454.125 75.7394L450.323 66.8695L480.19 55.0661L483.993 63.936L454.125 75.7394Z" stroke="#F9FBFD"/>
<path d="M719.061 328.531L726.013 335.414C716.131 344.434 700.521 344.194 690.944 334.725C681.399 325.287 681.409 310.158 690.944 300.733L697.866 307.587C692.273 313.294 692.296 322.349 698.032 328.007C703.766 333.662 713.09 333.868 719.061 328.531Z" stroke="#F9FBFD"/>
<path d="M747.387 222.256C747.387 226.245 744.155 229.478 740.17 229.478C736.184 229.478 732.952 226.245 732.952 222.256C732.952 218.267 736.184 215.033 740.17 215.033C744.155 215.033 747.387 218.267 747.387 222.256Z" stroke="#F9FBFD"/>
<path d="M750.817 302.515C750.817 306.318 747.492 309.462 743.314 309.462C739.135 309.462 735.811 306.318 735.811 302.515C735.811 298.712 739.135 295.568 743.314 295.568C747.492 295.568 750.817 298.712 750.817 302.515Z" stroke="#F9FBFD"/>
<path d="M685.491 352.675C687.091 356.385 685.263 360.661 681.367 362.21C677.471 363.76 673.028 361.978 671.428 358.269C669.828 354.559 671.657 350.283 675.553 348.734C679.449 347.184 683.891 348.966 685.491 352.675Z" stroke="#F9FBFD"/>
<path d="M701.715 155.281C703.315 158.99 701.486 163.266 697.59 164.816C693.694 166.365 689.252 164.583 687.652 160.874C686.052 157.165 687.88 152.889 691.776 151.339C695.672 149.79 700.115 151.572 701.715 155.281Z" stroke="#F9FBFD"/>
<path d="M627.563 259.42L623.798 250.536L653.713 238.848L657.479 247.732L627.563 259.42Z" stroke="#F9FBFD"/>
<path d="M688.304 201.335C692.412 202.267 694.927 206.208 693.967 210.111C693.007 214.014 688.922 216.459 684.813 215.527C680.705 214.596 678.19 210.654 679.15 206.752C680.11 202.849 684.195 200.404 688.304 201.335Z" stroke="#F9FBFD"/>
<path d="M588.465 114.416C588.465 118.557 585.106 121.915 580.962 121.915C576.818 121.915 573.459 118.557 573.459 114.416C573.459 110.275 576.818 106.918 580.962 106.918C585.106 106.918 588.465 110.275 588.465 114.416Z" stroke="#F9FBFD"/>
<path d="M500.43 252.043C500.43 256.015 497.088 259.265 492.927 259.265C488.766 259.265 485.424 256.015 485.424 252.043C485.424 248.071 488.766 244.82 492.927 244.82C497.088 244.82 500.43 248.071 500.43 252.043Z" stroke="#F9FBFD"/>
<path d="M505.092 200.272C515.915 192.277 531.657 193.853 540.404 203.847L540.404 203.847C549.179 213.868 547.753 228.648 537.307 237.015L530.954 229.742C537.121 224.624 537.927 215.76 532.64 209.766C527.359 203.75 517.958 202.783 511.471 207.513L505.092 200.272Z" stroke="#F9FBFD"/>
<path d="M643.56 197.215L652.918 200.248C648.331 212.567 634.306 219.179 621.377 214.974C608.447 210.769 601.416 197.313 605.48 184.824L614.872 187.887C612.532 195.427 616.813 203.439 624.557 205.965C632.303 208.492 640.705 204.586 643.56 197.215Z" stroke="#F9FBFD"/>
<path d="M590.607 225.902C593.576 228.753 593.576 233.376 590.607 236.227C587.637 239.078 582.823 239.078 579.854 236.227C576.884 233.376 576.884 228.753 579.854 225.902C582.823 223.051 587.637 223.051 590.607 225.902Z" stroke="#F9FBFD"/>
<path d="M451.325 226.498L447.56 217.614L477.476 205.926L481.241 214.81L451.325 226.498Z" stroke="#F9FBFD"/>
<path d="M567.665 184.913L558.556 180.908L571.99 152.736L581.099 156.741L567.665 184.913Z" stroke="#F9FBFD"/>
<path d="M562.741 283.209C562.741 287.334 559.271 290.708 554.952 290.708C550.633 290.708 547.163 287.334 547.163 283.209C547.163 279.085 550.633 275.711 554.952 275.711C559.271 275.711 562.741 279.085 562.741 283.209Z" stroke="#F9FBFD"/>
<path d="M493.234 124.062L482.925 94.7025L492.421 91.6283L502.73 120.987L493.234 124.062Z" stroke="#F9FBFD"/>
<path d="M815.984 9.6108C815.984 13.3983 812.549 16.5575 808.195 16.5575C803.842 16.5575 800.406 13.3983 800.406 9.6108C800.406 5.82327 803.842 2.66406 808.195 2.66406C812.549 2.66406 815.984 5.82327 815.984 9.6108Z" stroke="#F9FBFD"/>
<path d="M771.853 1.4232L765.519 -28.9526L775.347 -30.8419L781.681 -0.466093L771.853 1.4232Z" stroke="#F9FBFD"/>
<path d="M1056.59 -13.9634C1052.38 -1.48463 1038.39 5.50255 1025.21 1.75825L1028.26 -7.28129C1036.14 -5.14228 1044.51 -9.31888 1047.04 -16.8486C1049.57 -24.3777 1045.35 -32.4372 1037.63 -35.0585L1040.67 -44.0986C1053.69 -39.8671 1060.79 -26.4399 1056.59 -13.9634Z" stroke="#F9FBFD"/>
<path d="M965.619 51.1111C955.545 41.9731 954.87 26.7022 964.204 16.7939C973.541 6.88288 989.4 5.99959 999.835 14.7472L993.051 21.941C986.755 16.7736 977.27 17.3603 971.669 23.2997C966.063 29.2442 966.44 38.3994 972.371 43.9474L965.619 51.1111Z" stroke="#F9FBFD"/>
<path d="M857.216 49.3502L848.107 45.3456L861.542 17.1736L870.651 21.1782L857.216 49.3502Z" stroke="#F9FBFD"/>
<path d="M782.257 38.2952C782.257 42.4198 778.787 45.7936 774.468 45.7936C770.149 45.7936 766.679 42.4198 766.679 38.2952C766.679 34.1707 770.149 30.7969 774.468 30.7969C778.787 30.7969 782.257 34.1707 782.257 38.2952Z" stroke="#F9FBFD"/>
<path d="M911.297 48.8203L893.626 22.8874L902.005 17.6235L919.677 43.5564L911.297 48.8203Z" stroke="#F9FBFD"/>
<path d="M1030.3 26.1898C1034.38 27.22 1036.8 31.2212 1035.73 35.1003C1034.67 38.9794 1030.52 41.3252 1026.44 40.2949C1022.36 39.2647 1019.95 35.2634 1021.01 31.3844C1022.07 27.5053 1026.22 25.1595 1030.3 26.1898Z" stroke="#F9FBFD"/>
<path d="M1080.86 28.9582C1084.97 29.8897 1087.49 33.8314 1086.53 37.734C1085.57 41.6366 1081.48 44.0819 1077.37 43.1504C1073.26 42.2189 1070.75 38.2772 1071.71 34.3746C1072.67 30.4721 1076.75 28.0267 1080.86 28.9582Z" stroke="#F9FBFD"/>
<path d="M1164.63 50.9732L1158.75 43.2064L1184.87 24.9817L1190.75 32.7485L1164.63 50.9732Z" stroke="#F9FBFD"/>
<path d="M1157.52 14.1127L1164.47 20.9964C1154.59 30.0159 1138.98 29.7759 1129.4 20.307C1119.86 10.8695 1119.87 -4.25961 1129.41 -13.6848L1136.33 -6.83052C1130.73 -1.12357 1130.76 7.93076 1136.49 13.589C1142.23 19.244 1151.55 19.4498 1157.52 14.1127Z" stroke="#F9FBFD"/>
<path d="M1123.95 38.2574C1125.55 41.9666 1123.72 46.2429 1119.83 47.7924C1115.93 49.342 1111.49 47.5598 1109.89 43.8506C1108.29 40.1415 1110.12 35.8652 1114.01 34.3156C1117.91 32.7661 1122.35 34.5483 1123.95 38.2574Z" stroke="#F9FBFD"/>
<path d="M856 211.775C856 215.764 852.769 218.998 848.783 218.998C844.797 218.998 841.565 215.764 841.565 211.775C841.565 207.786 844.797 204.553 848.783 204.553C852.769 204.553 856 207.786 856 211.775Z" stroke="#F9FBFD"/>
<path d="M815.984 324.029C815.984 327.816 812.549 330.976 808.195 330.976C803.842 330.976 800.406 327.816 800.406 324.029C800.406 320.241 803.842 317.082 808.195 317.082C812.549 317.082 815.984 320.241 815.984 324.029Z" stroke="#F9FBFD"/>
<path d="M872.579 274.108V274.109C872.61 287.488 861.416 298.43 847.64 298.43C833.865 298.43 822.701 287.488 822.701 274.108C822.701 260.696 833.897 249.785 847.64 249.785C861.415 249.785 872.579 260.727 872.579 274.108ZM847.64 259.343C839.325 259.343 832.553 265.933 832.553 274.076C832.553 282.219 839.325 288.81 847.64 288.81C855.955 288.81 862.727 282.219 862.727 274.076C862.727 265.965 855.955 259.343 847.64 259.343Z" stroke="#F9FBFD"/>
<path d="M1181.19 192.692L1170.88 163.333L1180.38 160.259L1190.69 189.618L1181.19 192.692Z" stroke="#F9FBFD"/>
<path d="M760.117 210.22L753.627 202.913L778.195 182.795L784.686 190.103L760.117 210.22Z" stroke="#F9FBFD"/>
<path d="M771.853 315.841L765.519 285.465L775.347 283.576L781.681 313.952L771.853 315.841Z" stroke="#F9FBFD"/>
<path d="M1056.59 300.455C1052.38 312.933 1038.39 319.921 1025.21 316.176L1028.26 307.137C1036.14 309.276 1044.51 305.099 1047.04 297.569C1049.57 290.04 1045.35 281.981 1037.63 279.359L1040.67 270.319C1053.69 274.551 1060.79 287.978 1056.59 300.455Z" stroke="#F9FBFD"/>
<path d="M965.619 365.529C955.545 356.391 954.87 341.12 964.204 331.212C973.541 321.301 989.4 320.418 999.835 329.165L993.051 336.359C986.755 331.192 977.27 331.778 971.669 337.718C966.063 343.662 966.44 352.817 972.371 358.365L965.619 365.529Z" stroke="#F9FBFD"/>
<path d="M794.533 63.5808C803.864 73.3608 803.189 88.4326 793.115 97.4525L786.367 90.3843C792.294 84.9036 792.671 75.8616 787.063 69.9909C781.461 64.126 771.978 63.5481 765.683 68.6515L758.904 61.5542C769.34 52.9228 785.198 53.7974 794.533 63.5808Z" stroke="#F9FBFD"/>
<path d="M838.445 154.452L844.352 162.201C833.108 169.768 817.475 167.324 809.302 156.691C801.133 146.063 803.44 131.091 814.367 123.102L820.305 130.825C813.863 135.693 812.527 144.656 817.444 151.041C822.356 157.421 831.679 158.907 838.445 154.452Z" stroke="#F9FBFD"/>
<path d="M1099.43 291.553C1102.4 294.404 1102.4 299.026 1099.43 301.877C1096.47 304.728 1091.65 304.728 1088.68 301.877C1085.71 299.026 1085.71 294.404 1088.68 291.553C1091.65 288.702 1096.47 288.702 1099.43 291.553Z" stroke="#F9FBFD"/>
<path d="M857.216 363.768L848.107 359.764L861.542 331.592L870.651 335.596L857.216 363.768Z" stroke="#F9FBFD"/>
<path d="M942.955 292.592L912.398 282.541L915.635 273.468L946.192 283.52L942.955 292.592Z" stroke="#F9FBFD"/>
<path d="M782.257 352.713C782.257 356.838 778.787 360.212 774.468 360.212C770.149 360.212 766.679 356.838 766.679 352.713C766.679 348.589 770.149 345.215 774.468 345.215C778.787 345.215 782.257 348.589 782.257 352.713Z" stroke="#F9FBFD"/>
<path d="M778.247 248.746L772.039 241.218L797.355 221.974L803.562 229.502L778.247 248.746Z" stroke="#F9FBFD"/>
<path d="M911.297 363.238L893.626 337.305L902.005 332.041L919.677 357.974L911.297 363.238Z" stroke="#F9FBFD"/>
<path d="M878.867 108.072C878.867 112.044 875.524 115.295 871.364 115.295C867.203 115.295 863.86 112.044 863.86 108.072C863.86 104.1 867.203 100.85 871.364 100.85C875.524 100.85 878.867 104.1 878.867 108.072Z" stroke="#F9FBFD"/>
<path d="M895.384 157.455C896.643 161.281 894.437 165.39 890.413 166.611C886.389 167.831 882.125 165.684 880.867 161.858C879.608 158.032 881.814 153.923 885.838 152.703C889.862 151.482 894.125 153.63 895.384 157.455Z" stroke="#F9FBFD"/>
<path d="M786.536 132.459L763.368 110.868L770.336 103.975L793.504 125.566L786.536 132.459Z" stroke="#F9FBFD"/>
<path d="M946.894 161.027C946.894 164.999 943.552 168.25 939.391 168.25C935.23 168.25 931.888 164.999 931.888 161.027C931.888 157.055 935.23 153.805 939.391 153.805C943.552 153.805 946.894 157.055 946.894 161.027Z" stroke="#F9FBFD"/>
<path d="M773.43 153.936C775.006 157.654 773.15 161.919 769.244 163.446C765.338 164.972 760.907 163.164 759.331 159.446C757.755 155.727 759.611 151.462 763.517 149.935C767.423 148.409 771.853 150.217 773.43 153.936Z" stroke="#F9FBFD"/>
<path d="M1117.18 138.462C1103.23 138.462 1091.95 127.634 1091.95 114.416C1091.95 101.167 1103.27 90.3691 1117.18 90.3691C1131.09 90.3691 1142.4 101.198 1142.4 114.416C1142.4 127.665 1131.09 138.462 1117.18 138.462ZM1117.18 99.8403C1108.78 99.8403 1101.93 106.35 1101.93 114.416C1101.93 122.482 1108.78 128.991 1117.18 128.991C1125.57 128.991 1132.43 122.482 1132.43 114.416C1132.43 106.349 1125.54 99.8403 1117.18 99.8403Z" stroke="#F9FBFD"/>
<path d="M1178.42 263.627V263.628C1178.45 277.038 1167.25 287.95 1153.48 287.95C1139.7 287.95 1128.54 277.008 1128.54 263.627C1128.54 250.216 1139.73 239.305 1153.48 239.305C1167.25 239.305 1178.42 250.246 1178.42 263.627ZM1153.48 248.894C1145.16 248.894 1138.39 255.484 1138.39 263.627C1138.39 271.77 1145.16 278.361 1153.48 278.361C1161.79 278.361 1168.56 271.77 1168.56 263.627C1168.56 255.484 1161.79 248.894 1153.48 248.894Z" stroke="#F9FBFD"/>
<path d="M1010.92 76.3553V76.3565C1010.95 89.568 999.517 100.402 985.41 100.402C971.304 100.402 959.899 89.5688 959.899 76.3553C959.899 63.1114 971.336 52.3086 985.41 52.3086C999.516 52.3086 1010.92 63.1417 1010.92 76.3553ZM985.41 61.7487C976.93 61.7487 969.995 68.2532 969.995 76.3242C969.995 84.3951 976.93 90.8997 985.41 90.8997C993.889 90.8997 1000.82 84.3951 1000.82 76.3242C1000.82 68.285 993.89 61.7487 985.41 61.7487Z" stroke="#F9FBFD"/>
<path d="M837.56 82.3273L813.237 61.9376L819.816 54.703L844.138 75.0926L837.56 82.3273Z" stroke="#F9FBFD"/>
<path d="M890.213 295.961C894.324 296.882 896.849 300.818 895.9 304.723C894.95 308.628 890.872 311.083 886.76 310.162C882.649 309.241 880.124 305.305 881.073 301.4C882.023 297.495 886.102 295.04 890.213 295.961Z" stroke="#F9FBFD"/>
<path d="M982.151 126.097C986.238 127.11 988.668 131.1 987.624 134.984C986.581 138.867 982.443 141.231 978.355 140.218C974.268 139.205 971.838 135.214 972.882 131.331C973.926 127.447 978.064 125.084 982.151 126.097Z" stroke="#F9FBFD"/>
<path d="M1030.3 340.608C1034.38 341.638 1036.8 345.639 1035.73 349.518C1034.67 353.397 1030.52 355.743 1026.44 354.713C1022.36 353.683 1019.95 349.681 1021.01 345.802C1022.07 341.923 1026.22 339.577 1030.3 340.608Z" stroke="#F9FBFD"/>
<path d="M1080.86 343.376C1084.97 344.308 1087.49 348.249 1086.53 352.152C1085.57 356.055 1081.48 358.5 1077.37 357.568C1073.26 356.637 1070.75 352.695 1071.71 348.793C1072.67 344.89 1076.75 342.445 1080.86 343.376Z" stroke="#F9FBFD"/>
<path d="M1072.85 165.925L1048.6 145.452L1055.21 138.24L1079.45 158.713L1072.85 165.925Z" stroke="#F9FBFD"/>
<path d="M1164.63 365.391L1158.75 357.624L1184.87 339.4L1190.75 347.166L1164.63 365.391Z" stroke="#F9FBFD"/>
<path d="M1068.66 100.49C1070.26 104.199 1068.43 108.475 1064.53 110.025C1060.64 111.574 1056.19 109.792 1054.59 106.083C1052.99 102.374 1054.82 98.0976 1058.72 96.548C1062.61 94.9985 1067.06 96.7807 1068.66 100.49Z" stroke="#F9FBFD"/>
<path d="M1180.12 122.644C1184.23 123.575 1186.74 127.517 1185.78 131.42C1184.82 135.322 1180.74 137.767 1176.63 136.836C1172.52 135.904 1170 131.963 1170.96 128.06C1171.92 124.158 1176.01 121.712 1180.12 122.644Z" stroke="#F9FBFD"/>
<path d="M1040.65 68.6323C1040.65 72.4198 1037.21 75.579 1032.86 75.579C1028.5 75.579 1025.07 72.4198 1025.07 68.6323C1025.07 64.8448 1028.5 61.6855 1032.86 61.6855C1037.21 61.6855 1040.65 64.8448 1040.65 68.6323Z" stroke="#F9FBFD"/>
<path d="M1181.27 80.5674L1189.06 86.5387C1180.41 96.7426 1164.87 98.4475 1154.11 90.2166C1143.37 81.9849 1141.39 66.9255 1149.61 56.3656L1157.41 62.3394C1152.61 68.7127 1153.8 77.7553 1160.27 82.6688C1166.71 87.578 1176.04 86.6492 1181.27 80.5674Z" stroke="#F9FBFD"/>
<path d="M1115.13 80.9085L1087.92 64.2143L1093.3 56.126L1120.51 72.8201L1115.13 80.9085Z" stroke="#F9FBFD"/>
<path d="M892.586 75.7394L888.784 66.8695L918.651 55.0661L922.454 63.936L892.586 75.7394Z" stroke="#F9FBFD"/>
<path d="M1157.52 328.531L1164.47 335.414C1154.59 344.434 1138.98 344.194 1129.4 334.725C1119.86 325.287 1119.87 310.158 1129.41 300.733L1136.33 307.587C1130.73 313.294 1130.76 322.349 1136.49 328.007C1142.23 333.662 1151.55 333.868 1157.52 328.531Z" stroke="#F9FBFD"/>
<path d="M1185.85 222.256C1185.85 226.245 1182.62 229.478 1178.63 229.478C1174.64 229.478 1171.41 226.245 1171.41 222.256C1171.41 218.267 1174.64 215.033 1178.63 215.033C1182.62 215.033 1185.85 218.267 1185.85 222.256Z" stroke="#F9FBFD"/>
<path d="M1189.28 302.515C1189.28 306.318 1185.95 309.462 1181.77 309.462C1177.6 309.462 1174.27 306.318 1174.27 302.515C1174.27 298.712 1177.6 295.568 1181.77 295.568C1185.95 295.568 1189.28 298.712 1189.28 302.515Z" stroke="#F9FBFD"/>
<path d="M1123.95 352.675C1125.55 356.385 1123.72 360.661 1119.83 362.21C1115.93 363.76 1111.49 361.978 1109.89 358.269C1108.29 354.559 1110.12 350.283 1114.01 348.734C1117.91 347.184 1122.35 348.966 1123.95 352.675Z" stroke="#F9FBFD"/>
<path d="M1140.18 155.281C1141.78 158.99 1139.95 163.266 1136.05 164.816C1132.16 166.365 1127.71 164.583 1126.11 160.874C1124.51 157.165 1126.34 152.889 1130.24 151.339C1134.13 149.79 1138.58 151.572 1140.18 155.281Z" stroke="#F9FBFD"/>
<path d="M1066.02 259.42L1062.26 250.536L1092.17 238.848L1095.94 247.732L1066.02 259.42Z" stroke="#F9FBFD"/>
<path d="M1126.76 201.335C1130.87 202.267 1133.39 206.208 1132.43 210.111C1131.47 214.014 1127.38 216.459 1123.27 215.527C1119.17 214.596 1116.65 210.654 1117.61 206.752C1118.57 202.849 1122.66 200.404 1126.76 201.335Z" stroke="#F9FBFD"/>
<path d="M1026.93 114.416C1026.93 118.557 1023.57 121.915 1019.42 121.915C1015.28 121.915 1011.92 118.557 1011.92 114.416C1011.92 110.275 1015.28 106.918 1019.42 106.918C1023.57 106.918 1026.93 110.275 1026.93 114.416Z" stroke="#F9FBFD"/>
<path d="M938.891 252.043C938.891 256.015 935.549 259.265 931.388 259.265C927.227 259.265 923.885 256.015 923.885 252.043C923.885 248.071 927.227 244.82 931.388 244.82C935.549 244.82 938.891 248.071 938.891 252.043Z" stroke="#F9FBFD"/>
<path d="M943.553 200.272C954.376 192.277 970.118 193.853 978.865 203.847L978.865 203.847C987.64 213.868 986.214 228.648 975.768 237.015L969.415 229.742C975.582 224.624 976.388 215.76 971.101 209.766C965.82 203.75 956.419 202.783 949.932 207.513L943.553 200.272Z" stroke="#F9FBFD"/>
<path d="M1082.02 197.215L1091.38 200.248C1086.79 212.567 1072.77 219.179 1059.84 214.974C1046.91 210.769 1039.88 197.313 1043.94 184.824L1053.33 187.887C1050.99 195.427 1055.27 203.439 1063.02 205.965C1070.76 208.492 1079.17 204.586 1082.02 197.215Z" stroke="#F9FBFD"/>
<path d="M1029.07 225.902C1032.04 228.753 1032.04 233.376 1029.07 236.227C1026.1 239.078 1021.28 239.078 1018.31 236.227C1015.35 233.376 1015.35 228.753 1018.31 225.902C1021.28 223.051 1026.1 223.051 1029.07 225.902Z" stroke="#F9FBFD"/>
<path d="M889.786 226.498L886.021 217.614L915.937 205.926L919.702 214.81L889.786 226.498Z" stroke="#F9FBFD"/>
<path d="M1006.13 184.913L997.017 180.908L1010.45 152.736L1019.56 156.741L1006.13 184.913Z" stroke="#F9FBFD"/>
<path d="M1001.2 283.209C1001.2 287.334 997.732 290.708 993.413 290.708C989.094 290.708 985.624 287.334 985.624 283.209C985.624 279.085 989.094 275.711 993.413 275.711C997.732 275.711 1001.2 279.085 1001.2 283.209Z" stroke="#F9FBFD"/>
<path d="M931.695 124.062L921.386 94.7025L930.882 91.6283L941.191 120.987L931.695 124.062Z" stroke="#F9FBFD"/>
<path d="M1254.45 9.6108C1254.45 13.3983 1251.01 16.5575 1246.66 16.5575C1242.3 16.5575 1238.87 13.3983 1238.87 9.6108C1238.87 5.82327 1242.3 2.66406 1246.66 2.66406C1251.01 2.66406 1254.45 5.82327 1254.45 9.6108Z" stroke="#F9FBFD"/>
<path d="M1210.31 1.4232L1203.98 -28.9526L1213.81 -30.8419L1220.14 -0.466093L1210.31 1.4232Z" stroke="#F9FBFD"/>
<path d="M1220.72 38.2952C1220.72 42.4198 1217.25 45.7936 1212.93 45.7936C1208.61 45.7936 1205.14 42.4198 1205.14 38.2952C1205.14 34.1707 1208.61 30.7969 1212.93 30.7969C1217.25 30.7969 1220.72 34.1707 1220.72 38.2952Z" stroke="#F9FBFD"/>
<path d="M1254.45 324.029C1254.45 327.816 1251.01 330.976 1246.66 330.976C1242.3 330.976 1238.87 327.816 1238.87 324.029C1238.87 320.241 1242.3 317.082 1246.66 317.082C1251.01 317.082 1254.45 320.241 1254.45 324.029Z" stroke="#F9FBFD"/>
<path d="M1198.58 210.22L1192.09 202.913L1216.66 182.795L1223.15 190.103L1198.58 210.22Z" stroke="#F9FBFD"/>
<path d="M1210.31 315.841L1203.98 285.465L1213.81 283.576L1220.14 313.952L1210.31 315.841Z" stroke="#F9FBFD"/>
<path d="M1232.99 63.5808C1242.33 73.3608 1241.65 88.4326 1231.58 97.4525L1224.83 90.3843C1230.76 84.9036 1231.13 75.8616 1225.53 69.9909C1219.92 64.126 1210.44 63.5481 1204.14 68.6515L1197.37 61.5542C1207.8 52.9228 1223.66 53.7974 1232.99 63.5808Z" stroke="#F9FBFD"/>
<path d="M1276.91 154.452L1282.81 162.201C1271.57 169.768 1255.94 167.324 1247.76 156.691C1239.6 146.063 1241.9 131.091 1252.83 123.102L1258.77 130.825C1252.32 135.693 1250.99 144.656 1255.91 151.041C1260.82 157.421 1270.14 158.907 1276.91 154.452Z" stroke="#F9FBFD"/>
<path d="M1220.72 352.713C1220.72 356.838 1217.25 360.212 1212.93 360.212C1208.61 360.212 1205.14 356.838 1205.14 352.713C1205.14 348.589 1208.61 345.215 1212.93 345.215C1217.25 345.215 1220.72 348.589 1220.72 352.713Z" stroke="#F9FBFD"/>
<path d="M1216.71 248.746L1210.5 241.218L1235.82 221.974L1242.02 229.502L1216.71 248.746Z" stroke="#F9FBFD"/>
<path d="M1225 132.459L1201.83 110.868L1208.8 103.975L1231.97 125.566L1225 132.459Z" stroke="#F9FBFD"/>
<path d="M1211.89 153.936C1213.47 157.654 1211.61 161.919 1207.71 163.446C1203.8 164.972 1199.37 163.164 1197.79 159.446C1196.22 155.727 1198.07 151.462 1201.98 149.935C1205.88 148.409 1210.32 150.217 1211.89 153.936Z" stroke="#F9FBFD"/>
<path d="M1276.02 82.3273L1251.7 61.9376L1258.28 54.703L1282.6 75.0926L1276.02 82.3273Z" stroke="#F9FBFD"/>
</g>
<g opacity="0.2">
<path d="M133.996 388.166V388.167C134.029 401.379 122.593 412.212 108.486 412.212C94.3798 412.212 82.9756 401.379 82.9756 388.166C82.9756 374.922 94.4119 364.119 108.486 364.119C122.592 364.119 133.996 374.952 133.996 388.166ZM108.486 373.559C100.006 373.559 93.0712 380.064 93.0712 388.135C93.0712 396.206 100.006 402.71 108.486 402.71C116.966 402.71 123.901 396.206 123.901 388.135C123.901 380.096 116.966 373.559 108.486 373.559Z" stroke="#F9FBFD"/>
<path d="M304.343 392.378L312.137 398.349C303.489 408.553 287.95 410.258 277.184 402.027C266.45 393.795 264.467 378.736 272.688 368.176L280.486 374.15C275.682 380.523 276.88 389.566 283.351 394.479C289.784 399.389 299.112 398.46 304.343 392.378Z" stroke="#F9FBFD"/>
<path d="M238.208 392.719L210.994 376.025L216.376 367.936L243.59 384.631L238.208 392.719Z" stroke="#F9FBFD"/>
<path d="M15.6625 387.55L11.8602 378.68L41.7275 366.877L45.5298 375.747L15.6625 387.55Z" stroke="#F9FBFD"/>
<path d="M356.072 375.391C365.403 385.171 364.728 400.243 354.654 409.263L347.906 402.195C353.833 396.714 354.21 387.672 348.602 381.801C343 375.937 333.517 375.359 327.222 380.462L320.444 373.365C330.879 364.733 346.737 365.608 356.072 375.391Z" stroke="#F9FBFD"/>
<path d="M572.459 388.166V388.167C572.492 401.379 561.056 412.212 546.949 412.212C532.843 412.212 521.438 401.379 521.438 388.166C521.438 374.922 532.875 364.119 546.949 364.119C561.055 364.119 572.459 374.952 572.459 388.166ZM546.949 373.559C538.469 373.559 531.534 380.064 531.534 388.135C531.534 396.206 538.469 402.71 546.949 402.71C555.429 402.71 562.364 396.206 562.364 388.135C562.364 380.096 555.429 373.559 546.949 373.559Z" stroke="#F9FBFD"/>
<path d="M399.098 394.138L374.775 373.748L381.354 366.514L405.676 386.903L399.098 394.138Z" stroke="#F9FBFD"/>
<path d="M742.806 392.378L750.6 398.349C741.952 408.553 726.413 410.258 715.647 402.027C704.913 393.795 702.93 378.736 711.151 368.176L718.949 374.15C714.145 380.523 715.343 389.566 721.814 394.479C728.246 399.389 737.575 398.46 742.806 392.378Z" stroke="#F9FBFD"/>
<path d="M676.671 392.719L649.457 376.025L654.839 367.936L682.053 384.631L676.671 392.719Z" stroke="#F9FBFD"/>
<path d="M454.125 387.55L450.323 378.68L480.19 366.877L483.993 375.747L454.125 387.55Z" stroke="#F9FBFD"/>
<path d="M794.533 375.391C803.864 385.171 803.189 400.243 793.115 409.263L786.367 402.195C792.294 396.714 792.671 387.672 787.063 381.801C781.461 375.937 771.978 375.359 765.683 380.462L758.904 373.365C769.34 364.733 785.198 365.608 794.533 375.391Z" stroke="#F9FBFD"/>
<path d="M1010.92 388.166V388.167C1010.95 401.379 999.517 412.212 985.41 412.212C971.304 412.212 959.899 401.379 959.899 388.166C959.899 374.922 971.336 364.119 985.41 364.119C999.516 364.119 1010.92 374.952 1010.92 388.166ZM985.41 373.559C976.93 373.559 969.995 380.064 969.995 388.135C969.995 396.206 976.93 402.71 985.41 402.71C993.889 402.71 1000.82 396.206 1000.82 388.135C1000.82 380.096 993.89 373.559 985.41 373.559Z" stroke="#F9FBFD"/>
<path d="M837.56 394.138L813.237 373.748L819.816 366.514L844.138 386.903L837.56 394.138Z" stroke="#F9FBFD"/>
<path d="M1181.27 392.378L1189.06 398.349C1180.41 408.553 1164.87 410.258 1154.11 402.027C1143.37 393.795 1141.39 378.736 1149.61 368.176L1157.41 374.15C1152.61 380.523 1153.8 389.566 1160.27 394.479C1166.71 399.389 1176.04 398.46 1181.27 392.378Z" stroke="#F9FBFD"/>
<path d="M1115.13 392.719L1087.92 376.025L1093.3 367.936L1120.51 384.631L1115.13 392.719Z" stroke="#F9FBFD"/>
<path d="M892.586 387.55L888.784 378.68L918.651 366.877L922.454 375.747L892.586 387.55Z" stroke="#F9FBFD"/>
<path d="M1232.99 375.391C1242.33 385.171 1241.65 400.243 1231.58 409.263L1224.83 402.195C1230.76 396.714 1231.13 387.672 1225.53 381.801C1219.92 375.937 1210.44 375.359 1204.14 380.462L1197.37 373.365C1207.8 364.733 1223.66 365.608 1232.99 375.391Z" stroke="#F9FBFD"/>
<path d="M1276.02 394.138L1251.7 373.748L1258.28 366.514L1282.6 386.903L1276.02 394.138Z" stroke="#F9FBFD"/>
</g>
</g>
</g>
</svg>
