<svg width="93" height="105" viewBox="0 0 93 105" fill="none" xmlns="http://www.w3.org/2000/svg">
<path d="M91.5383 11.1025C91.5383 11.1025 91.3181 12.8849 77.6331 12.0934C63.9481 11.3019 54.2397 1.59668 52.0328 1.59668C49.8259 1.59668 40.1143 11.3051 26.4309 12.0966C12.7475 12.8881 12.5273 11.1056 12.5273 11.1056C12.5273 11.1056 8.3337 52.9138 18.706 71.3286C29.0782 89.7433 52.0328 105 52.0328 105C52.0328 105 74.9858 89.7481 85.3581 71.3302C95.7303 52.9122 91.5383 11.1072 91.5383 11.1072" fill="#065072"/>
<path d="M28.0267 15.2702L26.7405 17.5872C26.5799 17.8771 26.4764 18.1951 26.4357 18.5239L26.1166 21.1521C26.0638 21.5865 25.901 22.0002 25.6435 22.3541C25.386 22.7079 25.0424 22.9901 24.6453 23.1739L22.2517 24.2909C21.9507 24.4318 21.6798 24.6296 21.4538 24.8734L19.6459 26.809C19.3477 27.1299 18.9725 27.3693 18.5558 27.5045C18.1391 27.6396 17.6948 27.6661 17.2651 27.5813L14.6704 27.0723C14.3426 27.0084 14.0056 27.0084 13.6778 27.0723L11.0816 27.5813C10.6521 27.6656 10.2081 27.639 9.79177 27.5038C9.37543 27.3687 9.00046 27.1295 8.70236 26.809L6.90397 24.8718C6.67847 24.6275 6.40744 24.4297 6.1061 24.2893L3.7125 23.1723C3.31586 22.988 2.97275 22.7057 2.71559 22.3519C2.45844 21.9981 2.29573 21.5847 2.24284 21.1505L1.92369 18.5223C1.88386 18.1933 1.78034 17.8751 1.6189 17.5856L0.332744 15.2686C0.120794 14.8866 0.00958252 14.4569 0.00958252 14.02C0.00958252 13.5831 0.120794 13.1534 0.332744 12.7713L1.6189 10.4543C1.78 10.1647 1.8835 9.8466 1.92369 9.51762L2.24284 6.88786C2.29616 6.45385 2.45904 6.04056 2.71615 5.68686C2.97325 5.33317 3.31613 5.05071 3.7125 4.86607L6.1061 3.74906C6.40744 3.6087 6.67847 3.41085 6.90397 3.16661L8.70395 1.22939C9.00241 0.909929 9.37727 0.671697 9.79324 0.537136C10.2092 0.402576 10.6526 0.376117 11.0816 0.460252L13.6747 0.970886C14.0024 1.03472 14.3394 1.03472 14.6672 0.970886L17.2619 0.460252C17.6918 0.376132 18.136 0.403056 18.5526 0.538481C18.9692 0.673905 19.3444 0.913351 19.6427 1.23418L21.4411 3.1714C21.6673 3.41479 21.9382 3.61251 22.239 3.75384L24.6325 4.87085C25.0296 5.0545 25.3731 5.33668 25.6304 5.69056C25.8876 6.04445 26.0501 6.45826 26.1022 6.89265L26.4214 9.52082C26.4621 9.84968 26.5655 10.1677 26.7261 10.4575L28.0267 12.7665C28.2386 13.1486 28.3498 13.5783 28.3498 14.0152C28.3498 14.4521 28.2386 14.8818 28.0267 15.2639" fill="#00848A"/>
<path d="M28.0267 14.8587L26.7405 17.1757C26.5799 17.4656 26.4764 17.7836 26.4357 18.1124L26.1166 20.7406C26.0638 21.175 25.901 21.5887 25.6435 21.9426C25.386 22.2964 25.0424 22.5786 24.6453 22.7624L22.2517 23.8794C21.9507 24.0203 21.6798 24.2181 21.4538 24.4618L19.6555 26.3991C19.3573 26.72 18.9821 26.9594 18.5654 27.0946C18.1487 27.2297 17.7044 27.2562 17.2746 27.1714L14.68 26.6624C14.3522 26.5985 14.0152 26.5985 13.6874 26.6624L11.0816 27.1698C10.6516 27.2547 10.207 27.2283 9.79003 27.0932C9.37307 26.958 8.99757 26.7185 8.69916 26.3975L6.90077 24.4602C6.67527 24.216 6.40424 24.0182 6.1029 23.8778L3.70931 22.7608C3.31231 22.5779 2.96846 22.2969 2.7102 21.9443C2.45194 21.5917 2.2878 21.1791 2.23325 20.7454L1.91411 18.1172C1.87428 17.7882 1.77076 17.47 1.60932 17.1805L0.323164 14.8635C0.111214 14.4815 0 14.0518 0 13.6149C0 13.178 0.111214 12.7482 0.323164 12.3662L1.60932 10.0492C1.77042 9.75956 1.87392 9.44148 1.91411 9.1125L2.23325 6.48274C2.28658 6.04873 2.44946 5.63543 2.70657 5.28174C2.96367 4.92804 3.30655 4.64558 3.70292 4.46094L6.09652 3.34393C6.39786 3.20358 6.66888 3.00573 6.89439 2.76149L8.69437 0.824273C8.9931 0.50213 9.36927 0.261758 9.78711 0.126016C10.2049 -0.0097258 10.6506 -0.036325 11.0816 0.0487472L13.6747 0.559381C14.0024 0.623211 14.3394 0.623211 14.6672 0.559381L17.2619 0.0487472C17.6918 -0.0353736 18.136 -0.00844887 18.5526 0.126975C18.9692 0.2624 19.3444 0.501846 19.6427 0.822676L21.4411 2.75989C21.6673 3.00328 21.9382 3.20101 22.2389 3.34234L24.6325 4.45935C25.0296 4.64299 25.3731 4.92517 25.6304 5.27906C25.8876 5.63294 26.0501 6.04676 26.1022 6.48114L26.4214 9.10931C26.4621 9.43817 26.5655 9.75616 26.7261 10.046L28.0123 12.363C28.2243 12.7451 28.3355 13.1748 28.3355 13.6117C28.3355 14.0486 28.2243 14.4783 28.0123 14.8603" fill="#EBAB21"/>
<path d="M14.0767 8.71338L15.0613 10.7112C15.2269 11.0665 15.4733 11.3782 15.7808 11.6212C16.0884 11.8642 16.4486 12.0318 16.8326 12.1107L18.9996 12.5112L17.4246 14.1069C17.1399 14.3886 16.9347 14.7404 16.8296 15.1268C16.7245 15.5132 16.7233 15.9205 16.8262 16.3075L17.2267 18.5112L15.2576 17.5122C14.9303 17.3157 14.5558 17.2119 14.1741 17.2119C13.7923 17.2119 13.4178 17.3157 13.0906 17.5122L11.1214 18.5112L11.5156 16.3123C11.7118 15.5144 11.3177 14.7165 10.9252 14.1149L9.34857 12.5192L11.5156 12.1187C12.3039 11.9192 12.8943 11.5187 13.2884 10.7192L14.0767 8.71338Z" fill="white"/>
<g opacity="0.9">
<g opacity="0.9">
<path opacity="0.9" d="M31.5245 31.7432H19.7432V36.7921H31.5245V31.7432Z" fill="#00848A"/>
</g>
</g>
<g opacity="0.9">
<g opacity="0.9">
<path opacity="0.9" d="M53.402 31.7432H38.2553V36.7921H53.402V31.7432Z" fill="#00848A"/>
</g>
</g>
<g opacity="0.9">
<g opacity="0.9">
<path opacity="0.9" d="M65.1848 31.7432H60.1359V36.7921H65.1848V31.7432Z" fill="#00848A"/>
</g>
</g>
<g opacity="0.3">
<g opacity="0.3">
<path opacity="0.3" d="M65.1849 31.7432H19.7432V36.7921H65.1849V31.7432Z" fill="#0099A0"/>
</g>
</g>
<g opacity="0.9">
<g opacity="0.9">
<path opacity="0.9" d="M43.3058 62.5981H31.5245V67.647H43.3058V62.5981Z" fill="#00848A"/>
</g>
</g>
<g opacity="0.9">
<g opacity="0.9">
<path opacity="0.9" d="M65.1849 62.5981H50.0382V67.647H65.1849V62.5981Z" fill="#00848A"/>
</g>
</g>
<g opacity="0.8">
<g opacity="0.8">
<path opacity="0.8" d="M65.1848 77.7466H41.6223V82.7955H65.1848V77.7466Z" fill="#00848A"/>
</g>
</g>
<g opacity="0.9">
<g opacity="0.9">
<path opacity="0.9" d="M34.8899 47.4517H23.1086V52.5006H34.8899V47.4517Z" fill="#00848A"/>
</g>
</g>
<g opacity="0.9">
<g opacity="0.9">
<path opacity="0.9" d="M51.72 47.4517H41.6223V52.5006H51.72V47.4517Z" fill="#00848A"/>
</g>
</g>
<g opacity="0.9">
<g opacity="0.9">
<path opacity="0.9" d="M65.1848 47.4517H58.4525V52.5006H65.1848V47.4517Z" fill="#00848A"/>
</g>
</g>
<g opacity="0.3">
<g opacity="0.3">
<path opacity="0.3" d="M65.1848 47.4517H23.1086V52.5006H65.1848V47.4517Z" fill="#0099A0"/>
</g>
</g>
<g opacity="0.3">
<g opacity="0.3">
<path opacity="0.3" d="M65.1849 62.5981H31.5245V67.647H65.1849V62.5981Z" fill="#0099A0"/>
</g>
</g>
<path d="M73.8737 36.9419C73.897 36.9877 73.9271 37.0296 73.963 37.0664L74.3396 37.443C74.4311 37.5342 74.5551 37.5854 74.6843 37.5854C74.8135 37.5854 74.9375 37.5342 75.029 37.443L80.3124 32.1579C80.3588 32.1133 80.3956 32.0597 80.4208 32.0005C80.446 31.9413 80.4589 31.8776 80.4589 31.8132C80.4589 31.7489 80.446 31.6852 80.4208 31.626C80.3956 31.5668 80.3588 31.5132 80.3124 31.4686L79.9358 31.092C79.8912 31.0459 79.8378 31.0092 79.7787 30.9842C79.7196 30.9592 79.6561 30.9463 79.592 30.9463C79.5278 30.9463 79.4643 30.9592 79.4052 30.9842C79.3462 31.0092 79.2927 31.0459 79.2481 31.092L74.7003 35.6398L73.1971 34.135C73.1056 34.0438 72.9816 33.9926 72.8524 33.9926C72.7232 33.9926 72.5992 34.0438 72.5077 34.135L72.1311 34.5116C72.0399 34.6031 71.9887 34.7271 71.9887 34.8563C71.9887 34.9855 72.0399 35.1094 72.1311 35.201L73.8737 36.9419Z" fill="#33A86A"/>
<path d="M73.8736 67.5181C73.8967 67.5635 73.9268 67.605 73.963 67.641L74.3396 68.0175C74.4311 68.1088 74.555 68.16 74.6843 68.16C74.8135 68.16 74.9374 68.1088 75.0289 68.0175L80.3124 62.7341C80.3587 62.6894 80.3956 62.6359 80.4208 62.5767C80.4459 62.5174 80.4589 62.4537 80.4589 62.3894C80.4589 62.3251 80.4459 62.2614 80.4208 62.2021C80.3956 62.1429 80.3587 62.0894 80.3124 62.0447L79.9358 61.6681C79.8912 61.6221 79.8377 61.5854 79.7787 61.5604C79.7196 61.5354 79.6561 61.5225 79.5919 61.5225C79.5278 61.5225 79.4643 61.5354 79.4052 61.5604C79.3461 61.5854 79.2927 61.6221 79.248 61.6681L74.7002 66.2144L73.197 64.7112C73.1524 64.6649 73.0988 64.628 73.0396 64.6028C72.9804 64.5777 72.9167 64.5647 72.8524 64.5647C72.788 64.5647 72.7243 64.5777 72.6651 64.6028C72.6059 64.628 72.5523 64.6649 72.5077 64.7112L72.1311 65.0878C72.085 65.1324 72.0484 65.1859 72.0233 65.2449C71.9983 65.304 71.9854 65.3675 71.9854 65.4317C71.9854 65.4958 71.9983 65.5593 72.0233 65.6184C72.0484 65.6775 72.085 65.7309 72.1311 65.7755L73.8736 67.5181Z" fill="#33A86A"/>
<path d="M79.8864 52.1462L77.1816 49.9983L79.8848 47.8058C79.926 47.7725 79.9601 47.7314 79.9854 47.6849C80.0106 47.6384 80.0264 47.5874 80.0319 47.5348C80.0374 47.4822 80.0324 47.429 80.0173 47.3783C80.0022 47.3275 79.9772 47.2803 79.9439 47.2393L79.6678 46.8978C79.6345 46.8567 79.5935 46.8225 79.547 46.7972C79.5005 46.772 79.4494 46.7562 79.3968 46.7507C79.3442 46.7452 79.291 46.7502 79.2403 46.7653C79.1896 46.7804 79.1423 46.8054 79.1013 46.8388L76.229 49.2323L73.3487 46.8388C73.3078 46.8054 73.2607 46.7805 73.2101 46.7654C73.1595 46.7503 73.1065 46.7453 73.054 46.7508C73.0015 46.7563 72.9506 46.7721 72.9042 46.7973C72.8579 46.8226 72.8169 46.8567 72.7838 46.8978L72.4998 47.2345C72.4664 47.2755 72.4414 47.3228 72.4263 47.3735C72.4112 47.4242 72.4062 47.4774 72.4117 47.53C72.4172 47.5826 72.433 47.6336 72.4583 47.6801C72.4835 47.7266 72.5177 47.7677 72.5588 47.801L75.262 49.9935L72.5588 52.1414C72.5177 52.1746 72.4835 52.2157 72.4583 52.2622C72.433 52.3087 72.4172 52.3597 72.4117 52.4124C72.4062 52.465 72.4112 52.5182 72.4263 52.5689C72.4414 52.6196 72.4664 52.6668 72.4998 52.7079L72.7774 53.0493C72.8106 53.0904 72.8515 53.1246 72.8978 53.1498C72.9442 53.175 72.9951 53.1908 73.0476 53.1963C73.1001 53.2018 73.1531 53.1968 73.2037 53.1818C73.2543 53.1667 73.3014 53.1417 73.3423 53.1084L76.2226 50.7722L79.0949 53.1084C79.136 53.1418 79.1832 53.1667 79.2339 53.1819C79.2846 53.197 79.3378 53.2019 79.3904 53.1964C79.443 53.191 79.4941 53.1751 79.5406 53.1499C79.5871 53.1247 79.6281 53.0905 79.6614 53.0493L79.9375 52.7079C79.971 52.6669 79.996 52.6198 80.0113 52.5691C80.0265 52.5185 80.0316 52.4653 80.0263 52.4127C80.0209 52.3601 80.0053 52.309 79.9802 52.2625C79.9551 52.2159 79.9211 52.1748 79.88 52.1414" fill="#EC2027"/>
</svg>
