<svg width="15" height="30" viewBox="0 0 381 333" fill="none" xmlns="http://www.w3.org/2000/svg">
<path d="M447.223 70.602C449.161 106.477 425.317 137.226 392.233 146.451C391.786 146.744 391.488 146.89 391.19 147.037C358.852 155.53 335.008 184.522 335.008 219.079C335.008 219.372 334.71 219.811 334.412 220.25C329.792 257.004 297.752 285.41 259.155 285.41H257.664C219.067 285.41 187.027 257.004 182.407 220.25C181.96 219.665 181.811 219.372 181.811 219.079C181.811 184.669 157.967 155.53 125.629 147.037C125.331 146.89 125.033 146.744 124.586 146.451C91.5022 137.226 67.6584 106.477 69.5957 70.602C71.533 33.4095 101.934 2.9527 139.786 0.317011C184.195 -2.75796 221.153 31.7988 221.153 74.7019C221.153 75.1412 221.153 75.7269 221.153 76.1662C223.24 92.1267 230.393 106.916 241.421 118.337C250.66 127.855 266.01 127.855 275.249 118.337C286.277 106.916 293.579 92.1267 295.517 76.1662C295.517 75.7269 295.517 75.1412 295.517 74.7019C295.517 31.7988 332.475 -2.75796 376.884 0.317011C414.587 2.9527 445.137 33.4095 447.223 70.602Z" fill="#f9fbfd05"/>
<path d="M439.026 332.121C480.919 332.121 514.88 298.752 514.88 257.59C514.88 216.427 480.919 183.058 439.026 183.058C397.133 183.058 363.173 216.427 363.173 257.59C363.173 298.752 397.133 332.121 439.026 332.121Z" fill="#f9fbfd05"/>
<path d="M75.8534 332.853C117.746 332.853 151.707 299.484 151.707 258.322C151.707 217.159 117.746 183.79 75.8534 183.79C33.9607 183.79 0 217.159 0 258.322C0 299.484 33.9607 332.853 75.8534 332.853Z" fill="#f9fbfd05"/>
</svg>
