<svg width="83" height="83" viewBox="0 0 83 83" fill="none" xmlns="http://www.w3.org/2000/svg">
<rect width="83" height="83" rx="41.5" fill="#00B8C2" fill-opacity="0.1"/>
<path d="M56.4116 47.3804L49.2243 49.3578C49.2243 49.5323 49.2243 49.7067 49.2243 49.8812C49.0971 51.7423 47.5706 53.3126 45.5352 53.6615L45.2172 53.7197C42.4822 54.2431 39.7473 54.4757 37.0123 54.592L34.7861 54.6502C34.4681 54.6502 34.0865 54.5339 33.8321 54.3012C33.5776 54.0686 33.4504 53.7778 33.4504 53.487C33.4504 53.1381 33.5776 52.8473 33.8321 52.6147C34.0865 52.382 34.4045 52.2657 34.7225 52.2657L37.0759 52.2075C39.62 52.1494 42.1006 51.9168 44.5812 51.4515L45.0264 51.3933C45.9169 51.2189 46.5529 50.5791 46.6165 49.7649C46.6165 49.2996 46.4893 48.8344 46.1077 48.4854C45.7261 48.1365 45.2808 47.9038 44.7084 47.9038L33.1324 47.2641C31.8603 47.2059 30.5882 47.5549 29.5706 48.1946L18.567 55.8715C17.8674 56.3949 17.8038 57.3255 18.4398 57.9071L24.6094 63.5484C25.1183 64.0137 25.9451 64.0718 26.5812 63.6647L29.2526 61.8037C29.6978 61.5129 30.2066 61.3966 30.7791 61.3966L39.4928 62.2689C41.1465 62.4434 42.8639 61.9781 44.1995 61.0476L58.5741 51.0444C59.0829 50.6954 59.401 50.172 59.4646 49.5323C59.5282 48.9507 59.3374 48.3691 58.8921 47.9038C58.1925 47.3804 57.302 47.1478 56.4116 47.3804Z" fill="url(#paint0_linear_402_13050)"/>
<path d="M60.3554 24H28.2989C27.2176 24 26.3271 24.8142 26.3271 25.8029V42.9014C26.3271 43.8901 27.2176 44.7044 28.2989 44.7044H60.3554C61.4367 44.7044 62.3271 43.8901 62.3271 42.9014V25.8029C62.3271 24.8142 61.4367 24 60.3554 24ZM59.5286 38.7141C57.6204 39.063 56.0939 40.4006 55.7759 42.1454H32.942C32.5604 40.4006 31.0975 39.0048 29.1893 38.7141V29.9903C31.0975 29.6414 32.624 28.3037 32.942 26.559H55.7759C56.1575 28.3037 57.6204 29.6995 59.5286 29.9903V38.7141Z" fill="#00B8C2"/>
<path d="M44.3268 28.7051C41.0055 28.7051 38.3271 31.3836 38.3271 34.7051C38.3271 38.0265 41.0055 40.7051 44.3268 40.7051C47.648 40.7051 50.3264 38.0265 50.3264 34.7051C50.3799 31.3836 47.648 28.7051 44.3268 28.7051ZM44.9696 38.0801V38.8837C44.9696 38.9908 44.8624 39.0979 44.7553 39.0979H43.9518C43.8446 39.0979 43.7375 38.9908 43.7375 38.8837V38.1336C42.8804 38.0801 42.2376 37.3836 42.1305 36.5801C42.1305 36.5265 42.1305 36.4729 42.184 36.4194C42.2376 36.3658 42.2912 36.3658 42.3447 36.3658H43.2018C43.309 36.3658 43.3625 36.4194 43.4161 36.5265C43.4697 36.7408 43.6839 36.9551 43.8982 36.9551H44.6482C45.0767 36.9551 45.3981 36.6336 45.4517 36.2586C45.4517 36.0444 45.3981 35.8301 45.2374 35.6694C45.0767 35.5087 44.8624 35.4015 44.6482 35.4015H44.1125C43.0411 35.4015 42.1305 34.5979 42.0233 33.5801C41.9162 32.5086 42.6662 31.5444 43.7375 31.3836V30.5801C43.7375 30.4729 43.8446 30.3658 43.9518 30.3658H44.7553C44.8624 30.3658 44.9696 30.4729 44.9696 30.5801V31.3301C45.8267 31.3836 46.4695 32.0801 46.5766 32.8836C46.5766 32.9372 46.5766 32.9908 46.523 33.0444C46.4695 33.0979 46.4159 33.0979 46.3623 33.0979H45.5053C45.3981 33.0979 45.3446 33.0444 45.291 32.9372C45.2374 32.7229 45.0231 32.5086 44.8089 32.5086H44.0589C43.6304 32.5086 43.309 32.8301 43.2554 33.2051C43.2554 33.4194 43.309 33.6336 43.4697 33.7944C43.6304 33.9551 43.8446 34.0622 44.0589 34.0622H44.7017C45.291 34.0622 45.8267 34.3301 46.2016 34.7051C46.5766 35.1336 46.7909 35.6694 46.7373 36.2586C46.5766 37.1694 45.8802 37.9194 44.9696 38.0801Z" fill="#00B8C2"/>
<path d="M32.9417 32.8984C32.0512 32.8984 31.3516 33.5382 31.3516 34.3524C31.3516 35.1666 32.0512 35.8064 32.9417 35.8064C33.8321 35.8064 34.5318 35.1666 34.5318 34.3524C34.5318 33.5382 33.8321 32.8984 32.9417 32.8984Z" fill="#00B8C2"/>
<path d="M55.7122 32.8984C54.8217 32.8984 54.1221 33.5382 54.1221 34.3524C54.1221 35.1666 54.8217 35.8064 55.7122 35.8064C56.6026 35.8064 57.3023 35.1666 57.3023 34.3524C57.3659 33.5382 56.6026 32.8984 55.7122 32.8984Z" fill="#00B8C2"/>
<path d="M44.3225 28.7051C42.0851 28.7051 40.3271 31.3451 40.3271 34.7051C40.3271 38.0651 42.0851 40.7051 44.3225 40.7051C46.5599 40.7051 48.3178 38.0651 48.3178 34.7051C48.4776 31.3451 46.5599 28.7051 44.3225 28.7051Z" fill="#00B8C2"/>
<defs>
<linearGradient id="paint0_linear_402_13050" x1="37.3899" y1="39.941" x2="44.3811" y2="67.6197" gradientUnits="userSpaceOnUse">
<stop stop-color="#F0AA22"/>
<stop offset="1" stop-color="#F05822"/>
</linearGradient>
</defs>
</svg>
