<svg width="104" height="25" viewBox="0 0 104 25" fill="none" xmlns="http://www.w3.org/2000/svg">
<g clip-path="url(#clip0_27321_286783)">
<g clip-path="url(#clip1_27321_286783)">
<path d="M44.3795 10.8053C45.1722 10.097 46.1411 9.75 47.3007 9.75C48.4751 9.75 49.444 10.097 50.2367 10.8053C51.0294 11.4992 51.4257 12.41 51.4257 13.5231C51.4257 14.6218 51.0294 15.5326 50.2367 16.2265C49.4587 16.9059 48.4898 17.2529 47.3154 17.2529C46.1411 17.2529 45.1722 16.9059 44.3795 16.2265C43.6015 15.5326 43.2051 14.6218 43.2051 13.5231C43.2051 12.41 43.6015 11.4992 44.3795 10.8053ZM47.3154 15.2434C48.2402 15.2434 48.9742 14.564 48.9742 13.5231C48.9742 12.4678 48.2402 11.7594 47.3154 11.7594C46.3906 11.7594 45.6566 12.4678 45.6566 13.5231C45.6566 14.564 46.4053 15.2434 47.3154 15.2434Z" fill="#063A4F" fill-opacity="0.9"/>
<path d="M56.96 9.75C55.9325 9.75 55.1545 10.1692 54.6554 10.9933H54.626L54.6407 10.8198V10.7186C54.6407 10.2126 54.2884 9.90902 53.6278 9.90902H51.4552V11.9329H51.9983C52.2185 11.9329 52.3066 12.0341 52.3066 12.2365V17.0794H54.7581V13.899C54.7581 13.5376 54.8021 13.2195 54.9049 12.9593C55.1398 12.2799 55.6242 11.9329 56.3435 11.9329C56.8867 11.9329 57.1509 12.251 57.1509 12.8726V16.0674C57.1509 16.7758 57.4592 17.0794 58.1785 17.0794H59.5877V12.4389C59.5877 10.6318 58.7069 9.75 56.96 9.75Z" fill="#063A4F" fill-opacity="0.9"/>
<path d="M61.3346 7.13281V9.08443H63.3898V7.13281H61.3346ZM62.5677 9.90844H60.3071V11.9323H60.8502C61.0557 11.9323 61.1585 12.0335 61.1585 12.2359V16.0669C61.1585 16.7752 61.4667 17.0788 62.186 17.0788H63.5953V10.9348C63.5953 10.212 63.287 9.90844 62.5677 9.90844Z" fill="#063A4F" fill-opacity="0.9"/>
<path d="M65.489 10.8198C66.1789 10.1114 67.1037 9.75 68.2488 9.75C69.291 9.75 70.1131 10.068 70.7149 10.7186C71.3168 11.3547 71.6251 12.1931 71.6251 13.2051C71.6251 13.3786 71.6104 13.6243 71.5663 13.9568H66.9716C67.1478 14.7953 67.8377 15.2434 68.6745 15.2434C69.2763 15.2434 69.9516 15.0121 70.6856 14.5206L71.5957 16.212C70.8177 16.8625 69.614 17.2529 68.4836 17.2529C67.2505 17.2529 66.2817 16.877 65.5624 16.1397C64.8431 15.4024 64.4908 14.5062 64.4908 13.4942C64.4614 12.4244 64.799 11.5281 65.489 10.8198ZM69.2029 12.5835C69.2029 11.9763 68.8066 11.5137 68.2047 11.5137C67.5882 11.5137 67.1918 11.8751 67.0303 12.5835H69.2029Z" fill="#063A4F" fill-opacity="0.9"/>
<path d="M72.4911 10.0407H73.7682V10.6623C73.7682 10.9514 73.7242 11.1972 73.7242 11.1972H73.7535C74.2086 10.3442 75.1187 9.86719 76.161 9.86719C78.0987 9.86719 79.3024 11.3707 79.3024 13.5536C79.3024 15.7943 77.9372 17.2399 76.0582 17.2399C75.1481 17.2399 74.326 16.7918 73.8416 16.0401H73.8122C73.8122 16.0401 73.871 16.2858 73.871 16.6472V19.8566H72.5058V10.0407H72.4911ZM75.8527 16.0834C76.983 16.0834 77.9225 15.1727 77.9225 13.5825C77.9225 12.0501 77.0858 11.0671 75.8967 11.0671C74.8251 11.0671 73.8269 11.8188 73.8269 13.5969C73.8269 14.8402 74.5315 16.0834 75.8527 16.0834Z" fill="#063A4F" fill-opacity="0.9"/>
<path d="M83.8091 9.86719C85.9523 9.86719 87.6698 11.414 87.6698 13.5391C87.6698 15.6787 85.9376 17.2399 83.8238 17.2399C81.6805 17.2399 79.963 15.6787 79.963 13.5391C79.963 11.414 81.6952 9.86719 83.8091 9.86719ZM83.8238 16.0834C85.1743 16.0834 86.2899 15.0281 86.2899 13.5536C86.2899 12.0935 85.1743 11.0526 83.8238 11.0526C82.4585 11.0526 81.3576 12.0935 81.3576 13.5536C81.3723 15.0281 82.4732 16.0834 83.8238 16.0834Z" fill="#063A4F" fill-opacity="0.9"/>
<path d="M88.7415 7.25H90.1508V8.6089H88.7415V7.25ZM88.7709 10.0401H90.1361V17.0948H88.7709V10.0401Z" fill="#063A4F" fill-opacity="0.9"/>
<path d="M91.6774 10.0407H93.0132V10.9948C93.0132 11.2839 92.9692 11.5297 92.9692 11.5297H92.9985C93.2628 10.9225 94.1435 9.86719 95.7143 9.86719C97.4024 9.86719 98.1657 10.7779 98.1657 12.5705V17.0809H96.8005V12.8741C96.8005 11.8911 96.6097 11.1104 95.45 11.1104C94.0555 11.1104 93.0573 12.2525 93.0573 13.6981V17.0809H91.6921V10.0407H91.6774Z" fill="#063A4F" fill-opacity="0.9"/>
<path d="M99.942 11.2019H99.0025V10.1032H99.9714V8.09375H101.322V10.1032H103.054V11.2019H101.322V14.3534C101.322 15.7556 102.32 15.9436 102.849 15.9436C102.951 15.9436 103.039 15.9436 103.171 15.9147V17.1145C103.054 17.129 102.907 17.1579 102.687 17.1579C101.762 17.1579 99.942 16.8688 99.942 14.5124V11.2019V11.2019Z" fill="#063A4F" fill-opacity="0.9"/>
<path d="M42.4273 12.8286L41.9576 7.13281H39.0951C39.0951 7.13281 36.9078 11.5276 36.7317 12.1203H36.7023L34.4123 7.13281H31.5498L31.08 12.0769L30.6837 17.0933H32.4305C33.1792 17.0933 33.4875 16.7752 33.5462 15.9946C33.5462 15.9946 33.8398 11.3974 33.7957 10.7325H33.8251L33.9132 11.036C34.0306 11.4408 35.66 15.3585 35.66 15.3585H37.8033C37.8033 15.3585 39.4327 11.4986 39.6382 10.7325H39.6676L39.9171 15.9946C39.9758 16.7752 40.2841 17.0933 41.0328 17.0933H42.7796L42.4273 12.8286Z" fill="#063A4F" fill-opacity="0.9"/>
<path fill-rule="evenodd" clip-rule="evenodd" d="M13.0829 24.2H13.1709C18.8666 24.2 22.6833 23.029 23.476 22.2918C24.3128 21.5545 25.4137 17.7235 25.4137 12.1C25.4137 6.47646 24.3128 2.64552 23.476 1.90824C22.6833 1.18542 18.8666 0.0144564 13.1709 0H13.0829C7.40187 0.0144564 3.57049 1.18542 2.77779 1.90824C1.94106 2.64552 0.840088 6.47646 0.840088 12.1C0.840088 17.738 1.94106 21.5545 2.77779 22.2918C3.57049 23.0146 7.38719 24.1855 13.0829 24.2ZM18.3233 7.17488L18.793 12.8273L19.116 17.0486H17.3838C16.6498 17.0486 16.3415 16.7306 16.2828 15.9499L16.0332 10.7312H16.0039C15.7984 11.4973 14.1836 15.3283 14.1836 15.3283H12.0551C12.0551 15.3283 10.4403 11.4395 10.3229 11.0347L10.2348 10.7312H10.2055C10.2495 11.3961 9.9559 15.9499 9.9559 15.9499C9.89718 16.7306 9.60359 17.0486 8.85493 17.0486H7.12274L7.51909 12.0756L7.98884 7.17488H10.8367L13.112 12.119H13.1414C13.3322 11.5263 15.4901 7.17488 15.4901 7.17488H18.3233Z" fill="#063A4F" fill-opacity="0.9"/>
</g>
</g>
<defs>
<clipPath id="clip0_27321_286783">
<rect width="102.331" height="24.2" fill="white" transform="translate(0.840027)"/>
</clipPath>
<clipPath id="clip1_27321_286783">
<rect width="102.331" height="24.2" fill="white" transform="translate(0.840027)"/>
</clipPath>
</defs>
</svg>