<svg width="84" height="105" viewBox="0 0 84 105" fill="none" xmlns="http://www.w3.org/2000/svg">
<path d="M83.615 104.973V60.6241C83.615 56.5533 81.9015 52.6969 78.9028 49.9116L61.9816 34.2715H52.9855V104.759" fill="#0099A1"/>
<path d="M67.822 39.6845L62.4672 34.7568H53.4711V65.3944H67.822V39.6845Z" fill="#01838A"/>
<rect width="61.9792" height="105" rx="4.69444" fill="#055072"/>
<g filter="url(#filter0_d)">
<path fill-rule="evenodd" clip-rule="evenodd" d="M16.0054 4.13184H7.16961C4.82095 4.13184 2.91699 6.03579 2.91699 8.38445V96.3723C2.91699 98.7209 4.82095 100.625 7.1696 100.625H54.8102C57.1589 100.625 59.0628 98.7209 59.0628 96.3723V8.38445C59.0628 6.0358 57.1589 4.13184 54.8102 4.13184H46.8544V7.37525C46.8544 8.33406 46.0771 9.11134 45.1183 9.11134H17.7415C16.7827 9.11134 16.0054 8.33406 16.0054 7.37525V4.13184Z" fill="#DA9A28"/>
<rect x="2.91559" y="11.9556" width="56.089" height="81.0826" fill="#FAB417"/>
<g filter="url(#filter1_d)">
<rect x="18.9568" y="4.13135" width="25.2778" height="2.67361" rx="0.462957" fill="white"/>
</g>
<rect x="19.5081" y="96.0068" width="24.7727" height="2.60792" rx="0.462957" fill="#055072"/>
<path d="M17.9088 31.9199L18.9386 34.0098C19.3505 34.8457 19.9684 35.2637 20.7922 35.4727L23.0576 35.8907L21.41 37.5625C20.7922 38.1895 20.5862 39.0254 20.7922 39.8614L21.2041 42.1602L19.1446 41.1153C18.5267 40.6973 17.4969 40.6973 16.8791 41.1153L14.8196 42.1602L15.2315 39.8614C15.4374 39.0254 15.0255 38.1895 14.6136 37.5625L12.966 35.8907L15.2315 35.4727C16.0553 35.2637 16.6731 34.8457 17.085 34.0098L17.9088 31.9199Z" fill="#E6E7E8"/>
<path d="M30.4709 31.9199L31.5006 34.0098C31.9125 34.8457 32.5304 35.2637 33.3542 35.4727L35.6197 35.8907L33.972 37.5625C33.3542 38.1895 33.1482 39.0254 33.3542 39.8614L33.7661 42.1602L31.7066 41.1153C31.0887 40.6973 30.059 40.6973 29.4411 41.1153L27.3816 42.1602L27.7935 39.8614C27.9994 39.0254 27.5875 38.1895 27.1756 37.5625L25.528 35.8907L27.7935 35.4727C28.6173 35.2637 29.2351 34.8457 29.6471 34.0098L30.4709 31.9199Z" fill="#F1F2F2"/>
<path d="M43.241 31.9199L44.2708 34.0098C44.6827 34.8457 45.3005 35.2637 46.1243 35.4727L48.3898 35.8907L46.7422 37.5625C46.1243 38.1895 45.9184 39.0254 46.1243 39.8614L46.5362 42.1602L44.4767 41.1153C43.8589 40.6973 42.8291 40.6973 42.2112 41.1153L40.1517 42.1602L40.5636 39.8614C40.7696 39.0254 40.3577 38.1895 39.9458 37.5625L38.2982 35.8907L40.5636 35.4727C41.3874 35.2637 42.0053 34.8457 42.4172 34.0098L43.241 31.9199Z" fill="#E6E7E8"/>
<path d="M24.0869 45.0859L25.1167 47.1758C25.5286 48.0117 26.1465 48.4296 26.9703 48.6386L29.2357 49.0566L27.5881 50.7285C26.9703 51.3554 26.7643 52.1914 26.9703 53.0273L27.3822 55.3261L25.3227 54.2812C24.7048 53.8633 23.675 53.8633 23.0572 54.2812L20.9977 55.3261L21.4096 53.0273C21.6155 52.1914 21.2036 51.3554 20.7917 50.7285L19.1441 49.0566L21.4096 48.6386C22.2334 48.4296 22.8512 48.0117 23.2631 47.1758L24.0869 45.0859Z" fill="#F1F2F2"/>
<path d="M36.8526 45.0859L37.8824 47.1758C38.2943 48.0117 38.9122 48.4296 39.736 48.6386L42.0014 49.0566L40.3538 50.7285C39.736 51.3554 39.53 52.1914 39.736 53.0273L40.1479 55.3261L38.0883 54.2812C37.4705 53.8633 36.4407 53.8633 35.8229 54.2812L33.7634 55.3261L34.1753 53.0273C34.3812 52.1914 33.9693 51.3554 33.5574 50.7285L31.9098 49.0566L34.1753 48.6386C34.9991 48.4296 35.6169 48.0117 36.0288 47.1758L36.8526 45.0859Z" fill="#E6E7E8"/>
</g>
<path d="M79.5202 83.673C78.7054 83.6881 77.8827 83.2765 77.0599 82.865L52.5565 58.1392C51.3105 56.882 51.2631 54.3221 52.4616 53.0196C53.6601 51.7171 55.6972 51.6793 57.3505 52.929L81.854 77.6549C83.0999 78.9122 83.1474 81.4719 81.9488 82.7744C81.5493 83.2086 80.335 83.6579 79.5202 83.673Z" fill="#01838A"/>
<path d="M50.868 104.927V101.713C50.868 93.1431 53.4383 85.0017 58.1506 77.7172L45.5132 65.0765C42.5145 62.077 42.5145 57.1494 45.5132 54.1499C45.7274 53.9357 45.9416 53.7214 46.1558 53.7214C49.3687 51.1504 53.8667 51.5789 56.6512 54.3641L83.6395 81.3594V104.927H50.868Z" fill="#00B8C2"/>
<defs>
<filter id="filter0_d" x="2.43411" y="4.13135" width="57.1102" height="97.4565" filterUnits="userSpaceOnUse" color-interpolation-filters="sRGB">
<feFlood flood-opacity="0" result="BackgroundImageFix"/>
<feColorMatrix in="SourceAlpha" type="matrix" values="0 0 0 0 0 0 0 0 0 0 0 0 0 0 0 0 0 0 127 0"/>
<feOffset dy="0.481481"/>
<feGaussianBlur stdDeviation="0.240741"/>
<feColorMatrix type="matrix" values="0 0 0 0 0 0 0 0 0 0 0 0 0 0 0 0 0 0 0.25 0"/>
<feBlend mode="normal" in2="BackgroundImageFix" result="effect1_dropShadow"/>
<feBlend mode="normal" in="SourceGraphic" in2="effect1_dropShadow" result="shape"/>
</filter>
<filter id="filter1_d" x="18.7497" y="4.13135" width="25.692" height="3.3622" filterUnits="userSpaceOnUse" color-interpolation-filters="sRGB">
<feFlood flood-opacity="0" result="BackgroundImageFix"/>
<feColorMatrix in="SourceAlpha" type="matrix" values="0 0 0 0 0 0 0 0 0 0 0 0 0 0 0 0 0 0 127 0"/>
<feOffset dy="0.481481"/>
<feGaussianBlur stdDeviation="0.103553"/>
<feColorMatrix type="matrix" values="0 0 0 0 0 0 0 0 0 0 0 0 0 0 0 0 0 0 0.25 0"/>
<feBlend mode="normal" in2="BackgroundImageFix" result="effect1_dropShadow"/>
<feBlend mode="normal" in="SourceGraphic" in2="effect1_dropShadow" result="shape"/>
</filter>
</defs>
</svg>
