<svg width="41" height="41" viewBox="0 0 41 41" fill="none" xmlns="http://www.w3.org/2000/svg">
<circle cx="20.5" cy="20.5" r="20.5" fill="#00B8C2" fill-opacity="0.1"/>
<g clip-path="url(#clip0_402_12922)">
<path d="M26.7977 6.40625H14.5203C13.5971 6.40625 12.8125 7.14474 12.8125 8.11401V26.1609C12.8125 27.084 13.5971 27.8687 14.5203 27.8687H26.8438C27.767 27.8687 28.5516 27.084 28.5516 26.1609V8.11401C28.5054 7.14474 27.767 6.40625 26.7977 6.40625ZM17.5204 25.6993H14.9357V23.4839H17.5204V25.6993ZM17.5204 21.453H14.9357V19.1914H17.5204V21.453ZM17.5204 17.1605H14.9357V14.8989H17.5204V17.1605ZM21.9513 25.6993H19.3666V23.4839H21.9513V25.6993ZM21.9513 21.453H19.3666V19.1914H21.9513V21.453ZM21.9513 17.1605H19.3666V14.8989H21.9513V17.1605ZM26.3823 25.6993H23.7976V23.4839H26.3823V25.6993ZM26.3823 21.453H23.7976V19.1914H26.3823V21.453ZM26.3823 17.1605H23.7976V14.8989H26.3823V17.1605ZM26.3823 12.6373H14.9357V8.52941H26.3823V12.6373Z" fill="#00B8C2"/>
<path d="M20.3364 28.5156V35.4851H24.3981C25.4597 35.4851 26.3367 34.6082 26.3367 33.5466V28.5156H20.3364ZM15.167 28.5156V33.5004C15.167 34.6082 16.044 35.4851 17.1517 35.4851H17.5671V28.5156H15.167ZM18.2133 28.5156V35.4851H19.6441V28.5156H18.2133Z" fill="#00B8C2"/>
<path d="M20.3364 28.5156V35.4851H24.3981C25.4597 35.4851 26.3367 34.6082 26.3367 33.5466V28.5156H20.3364ZM15.167 28.5156V33.5004C15.167 34.6082 16.044 35.4851 17.1517 35.4851H17.5671V28.5156H15.167ZM18.2133 28.5156V35.4851H19.6441V28.5156H18.2133Z" fill="url(#paint0_linear_402_12922)"/>
</g>
<defs>
<linearGradient id="paint0_linear_402_12922" x1="20.3887" y1="25.4582" x2="24.5687" y2="36.1236" gradientUnits="userSpaceOnUse">
<stop stop-color="#F0AA22"/>
<stop offset="1" stop-color="#F05822"/>
</linearGradient>
<clipPath id="clip0_402_12922">
<rect width="30.75" height="30.75" fill="white" transform="translate(5.125 5.125)"/>
</clipPath>
</defs>
</svg>
