<svg width="78" height="85" viewBox="0 0 78 85" fill="none" xmlns="http://www.w3.org/2000/svg">
<path opacity="0.06" d="M18 35C27.9411 35 36 27.165 36 17.5C36 7.83502 27.9411 0 18 0C8.05888 0 0 7.83502 0 17.5C0 27.165 8.05888 35 18 35Z" fill="#00B8C2"/>
<path opacity="0.06" d="M44 85C62.7777 85 78 69.7777 78 51C78 32.2223 62.7777 17 44 17C25.2223 17 10 32.2223 10 51C10 69.7777 25.2223 85 44 85Z" fill="#00B8C2"/>
<path d="M52.3205 22.9556V11.0674H28.0803V4H24.2475V11.0674H0V80.4346H52.3205V75.5214L72.4945 66.0859L52.3205 22.9556ZM48.488 76.6021H3.83246V14.8998H24.2475V21.7841C23.3713 22.2167 22.6672 22.9329 22.2496 23.8164C21.8321 24.6999 21.7257 25.6986 21.9478 26.6502C22.1699 27.6018 22.7074 28.4503 23.4728 29.0577C24.2383 29.6651 25.1867 29.9957 26.1639 29.9957C27.1411 29.9957 28.0895 29.6651 28.855 29.0577C29.6205 28.4503 30.1579 27.6018 30.38 26.6502C30.6021 25.6986 30.4957 24.6999 30.0782 23.8164C29.6607 22.9329 28.9566 22.2167 28.0803 21.7841V14.8998H48.488V76.6021ZM52.3205 32.0079L67.3973 64.2387L52.3205 71.2904V32.0079Z" fill="#063A4F"/>
<path d="M18.2724 48.1239C19.014 48.1239 19.7389 47.904 20.3555 47.492C20.9721 47.08 21.4526 46.4944 21.7364 45.8093C22.0202 45.1242 22.0944 44.3703 21.9498 43.643C21.8051 42.9157 21.448 42.2476 20.9236 41.7232C20.3993 41.1988 19.7312 40.8418 19.0039 40.6971C18.2765 40.5524 17.5227 40.6267 16.8376 40.9104C16.1524 41.1942 15.5669 41.6748 15.1549 42.2914C14.7429 42.9079 14.523 43.6329 14.5229 44.3744C14.5229 44.8668 14.6199 45.3544 14.8083 45.8093C14.9968 46.2642 15.2729 46.6776 15.6211 47.0257C15.9693 47.3739 16.3826 47.6501 16.8375 47.8385C17.2925 48.0269 17.78 48.1239 18.2724 48.1239Z" fill="#FDB515"/>
<path d="M34.3817 58.0743C33.6402 58.0743 32.9153 58.2942 32.2987 58.7062C31.6821 59.1182 31.2015 59.7038 30.9177 60.3889C30.6339 61.074 30.5597 61.8279 30.7044 62.5552C30.8491 63.2826 31.2062 63.9506 31.7305 64.475C32.2549 64.9994 32.923 65.3565 33.6503 65.5011C34.3776 65.6458 35.1315 65.5715 35.8166 65.2877C36.5018 65.004 37.0873 64.5234 37.4993 63.9068C37.9113 63.2902 38.1312 62.5653 38.1312 61.8237C38.1312 60.8293 37.7361 59.8756 37.033 59.1725C36.3298 58.4693 35.3761 58.0743 34.3817 58.0743Z" fill="#FDB515"/>
<path d="M33.3694 42.0634L14.6216 60.8105L19.2835 65.4726L38.0313 46.7254L33.3694 42.0634Z" fill="#FDB515"/>
</svg>
