<svg width="505" height="340" viewBox="0 0 505 340" fill="none" xmlns="http://www.w3.org/2000/svg">
<mask id="mask0_402_13132" style="mask-type:alpha" maskUnits="userSpaceOnUse" x="0" y="0" width="505" height="340">
<rect width="505" height="340" fill="#D9D9D9"/>
</mask>
<g mask="url(#mask0_402_13132)">
<rect x="9" y="67" width="142" height="56" rx="8" fill="white" fill-opacity="0.6"/>
<circle cx="41.5" cy="94.5" r="7.5" fill="white"/>
<path d="M42 105C36.4797 104.994 32.0061 100.52 32 95V94.8C32.1099 89.3045 36.6346 84.928 42.1307 85.0009C47.6268 85.0738 52.0337 89.5689 51.9978 95.0654C51.9619 100.562 47.4966 104.999 42 105ZM38.1157 95.293C37.7257 94.9045 37.0949 94.9051 36.7057 95.2943C36.3159 95.6841 36.3159 96.316 36.7057 96.7057L38.9206 98.9207C39.5168 99.5168 40.4832 99.5168 41.0794 98.9207L47.295 92.705C47.6848 92.3153 47.6859 91.6837 47.2975 91.2925C46.9072 90.8994 46.2717 90.8983 45.88 91.29L40.2303 96.9397C40.1031 97.067 39.8967 97.0672 39.7692 96.9401L38.1157 95.293Z" fill="url(#paint0_linear_402_13132)"/>
<path d="M63.632 100.5C63.5253 100.5 63.4347 100.463 63.36 100.388C63.2853 100.313 63.248 100.223 63.248 100.116V89.7C63.248 89.5827 63.28 89.4867 63.344 89.412C63.4187 89.3373 63.5147 89.3 63.632 89.3H70.576C70.6933 89.3 70.7893 89.3373 70.864 89.412C70.9387 89.4867 70.976 89.5827 70.976 89.7V90.82C70.976 90.9373 70.9387 91.0333 70.864 91.108C70.7893 91.172 70.6933 91.204 70.576 91.204H65.44V94.244H70.256C70.3733 94.244 70.4693 94.2813 70.544 94.356C70.6187 94.4307 70.656 94.5267 70.656 94.644V95.764C70.656 95.8813 70.6187 95.9773 70.544 96.052C70.4693 96.116 70.3733 96.148 70.256 96.148H65.44V100.116C65.44 100.233 65.4027 100.329 65.328 100.404C65.2533 100.468 65.1573 100.5 65.04 100.5H63.632ZM72.9854 90.804C72.8787 90.804 72.788 90.7667 72.7134 90.692C72.6387 90.6173 72.6014 90.5267 72.6014 90.42V89.268C72.6014 89.1613 72.6387 89.0707 72.7134 88.996C72.788 88.9213 72.8787 88.884 72.9854 88.884H74.4414C74.548 88.884 74.6387 88.9213 74.7134 88.996C74.7987 89.0707 74.8414 89.1613 74.8414 89.268V90.42C74.8414 90.5267 74.804 90.6173 74.7294 90.692C74.6547 90.7667 74.5587 90.804 74.4414 90.804H72.9854ZM73.0494 100.5C72.9427 100.5 72.852 100.463 72.7774 100.388C72.7027 100.313 72.6654 100.223 72.6654 100.116V92.564C72.6654 92.4573 72.7027 92.3667 72.7774 92.292C72.852 92.2173 72.9427 92.18 73.0494 92.18H74.3774C74.4947 92.18 74.5854 92.2173 74.6494 92.292C74.724 92.356 74.7614 92.4467 74.7614 92.564V100.116C74.7614 100.223 74.724 100.313 74.6494 100.388C74.5854 100.463 74.4947 100.5 74.3774 100.5H73.0494ZM77.2681 100.5C77.1615 100.5 77.0708 100.463 76.9961 100.388C76.9215 100.313 76.8841 100.223 76.8841 100.116V92.564C76.8841 92.4573 76.9215 92.3667 76.9961 92.292C77.0708 92.2173 77.1615 92.18 77.2681 92.18H78.5801C78.6868 92.18 78.7775 92.2173 78.8521 92.292C78.9268 92.3667 78.9641 92.4573 78.9641 92.564V93.22C79.5935 92.42 80.4841 92.02 81.6361 92.02C82.6175 92.02 83.3961 92.3453 83.9721 92.996C84.5481 93.636 84.8361 94.5107 84.8361 95.62V100.116C84.8361 100.223 84.7988 100.313 84.7241 100.388C84.6601 100.463 84.5695 100.5 84.4521 100.5H83.0441C82.9375 100.5 82.8468 100.463 82.7721 100.388C82.6975 100.313 82.6601 100.223 82.6601 100.116V95.716C82.6601 95.0867 82.5055 94.6013 82.1961 94.26C81.8975 93.908 81.4601 93.732 80.8841 93.732C80.3188 93.732 79.8708 93.908 79.5401 94.26C79.2201 94.612 79.0601 95.0973 79.0601 95.716V100.116C79.0601 100.223 79.0228 100.313 78.9481 100.388C78.8841 100.463 78.7935 100.5 78.6761 100.5H77.2681ZM88.4398 100.5C88.3331 100.5 88.2424 100.463 88.1678 100.388C88.0931 100.313 88.0558 100.223 88.0558 100.116V91.268H85.0958C84.9891 91.268 84.8984 91.2307 84.8238 91.156C84.7491 91.0813 84.7118 90.9907 84.7118 90.884V89.7C84.7118 89.5827 84.7438 89.4867 84.8078 89.412C84.8824 89.3373 84.9784 89.3 85.0958 89.3H93.2558C93.3731 89.3 93.4691 89.3373 93.5438 89.412C93.6184 89.4867 93.6558 89.5827 93.6558 89.7V90.884C93.6558 90.9907 93.6184 91.0813 93.5438 91.156C93.4691 91.2307 93.3731 91.268 93.2558 91.268H90.3118V100.116C90.3118 100.223 90.2744 100.313 90.1998 100.388C90.1251 100.463 90.0291 100.5 89.9118 100.5H88.4398ZM97.2025 100.66C96.0185 100.66 95.0745 100.319 94.3705 99.636C93.6772 98.9427 93.3092 97.972 93.2665 96.724L93.2505 96.324L93.2665 95.924C93.3198 94.708 93.6932 93.7533 94.3865 93.06C95.0905 92.3667 96.0292 92.02 97.2025 92.02C98.4612 92.02 99.4318 92.404 100.115 93.172C100.808 93.94 101.155 94.964 101.155 96.244V96.58C101.155 96.6867 101.117 96.7773 101.043 96.852C100.968 96.9267 100.872 96.964 100.755 96.964H95.4425V97.092C95.4638 97.6787 95.6238 98.1747 95.9225 98.58C96.2318 98.9747 96.6532 99.172 97.1865 99.172C97.8158 99.172 98.3225 98.9267 98.7065 98.436C98.8025 98.3187 98.8772 98.244 98.9305 98.212C98.9945 98.18 99.0852 98.164 99.2025 98.164H100.579C100.675 98.164 100.755 98.196 100.819 98.26C100.893 98.3133 100.931 98.3827 100.931 98.468C100.931 98.724 100.776 99.028 100.467 99.38C100.168 99.7213 99.7358 100.02 99.1705 100.276C98.6052 100.532 97.9492 100.66 97.2025 100.66ZM98.9785 95.62V95.572C98.9785 94.9427 98.8185 94.436 98.4985 94.052C98.1892 93.668 97.7572 93.476 97.2025 93.476C96.6478 93.476 96.2158 93.668 95.9065 94.052C95.5972 94.436 95.4425 94.9427 95.4425 95.572V95.62H98.9785ZM106.453 100.66C105.28 100.66 104.341 100.335 103.637 99.684C102.944 99.0333 102.576 98.132 102.533 96.98L102.517 96.34L102.533 95.7C102.576 94.548 102.944 93.6467 103.637 92.996C104.341 92.3453 105.28 92.02 106.453 92.02C107.285 92.02 107.989 92.1693 108.565 92.468C109.152 92.7667 109.584 93.1347 109.861 93.572C110.149 93.9987 110.304 94.404 110.325 94.788C110.336 94.8947 110.298 94.9853 110.213 95.06C110.138 95.1347 110.048 95.172 109.941 95.172H108.533C108.426 95.172 108.341 95.1507 108.277 95.108C108.224 95.0547 108.17 94.9693 108.117 94.852C107.957 94.436 107.744 94.1373 107.477 93.956C107.221 93.7747 106.89 93.684 106.485 93.684C105.941 93.684 105.514 93.86 105.205 94.212C104.896 94.5533 104.73 95.076 104.709 95.78L104.693 96.372L104.709 96.9C104.752 98.2973 105.344 98.996 106.485 98.996C106.901 98.996 107.237 98.9053 107.493 98.724C107.749 98.5427 107.957 98.244 108.117 97.828C108.17 97.7107 108.224 97.6307 108.277 97.588C108.341 97.5347 108.426 97.508 108.533 97.508H109.941C110.048 97.508 110.138 97.5453 110.213 97.62C110.298 97.6947 110.336 97.7853 110.325 97.892C110.304 98.2653 110.154 98.6653 109.877 99.092C109.6 99.5187 109.173 99.8867 108.597 100.196C108.021 100.505 107.306 100.66 106.453 100.66ZM112.394 100.5C112.287 100.5 112.196 100.463 112.122 100.388C112.047 100.313 112.01 100.223 112.01 100.116V89.524C112.01 89.4067 112.047 89.316 112.122 89.252C112.196 89.1773 112.287 89.14 112.394 89.14H113.818C113.935 89.14 114.026 89.1773 114.09 89.252C114.164 89.316 114.202 89.4067 114.202 89.524V93.172C114.842 92.404 115.706 92.02 116.794 92.02C117.775 92.02 118.559 92.3453 119.146 92.996C119.732 93.636 120.026 94.5107 120.026 95.62V100.116C120.026 100.223 119.988 100.313 119.914 100.388C119.85 100.463 119.759 100.5 119.642 100.5H118.202C118.095 100.5 118.004 100.463 117.93 100.388C117.855 100.313 117.818 100.223 117.818 100.116V95.716C117.818 95.0867 117.663 94.6013 117.354 94.26C117.055 93.908 116.618 93.732 116.042 93.732C115.476 93.732 115.028 93.908 114.698 94.26C114.367 94.612 114.202 95.0973 114.202 95.716V100.116C114.202 100.223 114.164 100.313 114.09 100.388C114.026 100.463 113.935 100.5 113.818 100.5H112.394ZM125.208 100.66C124.408 100.66 123.736 100.543 123.192 100.308C122.648 100.063 122.243 99.78 121.976 99.46C121.72 99.1293 121.592 98.8467 121.592 98.612C121.592 98.5053 121.629 98.42 121.704 98.356C121.779 98.292 121.864 98.26 121.96 98.26H123.224C123.32 98.26 123.4 98.2973 123.464 98.372C123.507 98.404 123.619 98.5 123.8 98.66C123.981 98.8307 124.195 98.964 124.44 99.06C124.685 99.156 124.957 99.204 125.256 99.204C125.683 99.204 126.035 99.1187 126.312 98.948C126.589 98.7773 126.728 98.5427 126.728 98.244C126.728 98.02 126.664 97.8387 126.536 97.7C126.419 97.5613 126.2 97.4387 125.88 97.332C125.56 97.2147 125.085 97.092 124.456 96.964C123.549 96.772 122.877 96.4787 122.44 96.084C122.013 95.6893 121.8 95.1667 121.8 94.516C121.8 94.0893 121.928 93.6893 122.184 93.316C122.44 92.932 122.819 92.6227 123.32 92.388C123.832 92.1427 124.44 92.02 125.144 92.02C125.859 92.02 126.477 92.1373 127 92.372C127.523 92.596 127.917 92.868 128.184 93.188C128.461 93.4973 128.6 93.7747 128.6 94.02C128.6 94.116 128.563 94.2013 128.488 94.276C128.424 94.34 128.344 94.372 128.248 94.372H127.064C126.979 94.372 126.888 94.3347 126.792 94.26C126.717 94.2067 126.6 94.1053 126.44 93.956C126.28 93.8067 126.093 93.6893 125.88 93.604C125.667 93.5187 125.416 93.476 125.128 93.476C124.733 93.476 124.424 93.5613 124.2 93.732C123.987 93.9027 123.88 94.1267 123.88 94.404C123.88 94.6067 123.933 94.772 124.04 94.9C124.147 95.028 124.355 95.1507 124.664 95.268C124.973 95.3853 125.437 95.5027 126.056 95.62C127.08 95.8227 127.811 96.1373 128.248 96.564C128.696 96.9907 128.92 97.5133 128.92 98.132C128.92 98.8787 128.595 99.4867 127.944 99.956C127.293 100.425 126.381 100.66 125.208 100.66Z" fill="#063A4F"/>
<rect x="9" y="143" width="142" height="56" rx="8" fill="white" fill-opacity="0.6"/>
<circle cx="46.5" cy="170.5" r="7.5" fill="white"/>
<path d="M47 181C41.4797 180.994 37.0061 176.52 37 171V170.8C37.1099 165.305 41.6346 160.928 47.1307 161.001C52.6268 161.074 57.0337 165.569 56.9978 171.065C56.9619 176.562 52.4966 180.999 47 181ZM43.1157 171.293C42.7257 170.905 42.0949 170.905 41.7057 171.294C41.3159 171.684 41.3159 172.316 41.7057 172.706L43.9206 174.921C44.5168 175.517 45.4832 175.517 46.0794 174.921L52.295 168.705C52.6848 168.315 52.6859 167.684 52.2975 167.293C51.9072 166.899 51.2717 166.898 50.88 167.29L45.2303 172.94C45.1031 173.067 44.8967 173.067 44.7692 172.94L43.1157 171.293Z" fill="url(#paint1_linear_402_13132)"/>
<path d="M68.632 176.5C68.5253 176.5 68.4347 176.463 68.36 176.388C68.2853 176.313 68.248 176.223 68.248 176.116V165.7C68.248 165.583 68.28 165.487 68.344 165.412C68.4187 165.337 68.5147 165.3 68.632 165.3H73.272C74.52 165.3 75.448 165.577 76.056 166.132C76.6747 166.676 76.984 167.423 76.984 168.372C76.984 168.927 76.8453 169.401 76.568 169.796C76.3013 170.18 75.9867 170.457 75.624 170.628C76.072 170.831 76.4453 171.161 76.744 171.62C77.0533 172.079 77.208 172.601 77.208 173.188C77.208 174.18 76.872 174.98 76.2 175.588C75.5387 176.196 74.6053 176.5 73.4 176.5H68.632ZM72.984 169.892C73.5387 169.892 73.96 169.759 74.248 169.492C74.536 169.225 74.68 168.868 74.68 168.42C74.68 167.961 74.536 167.609 74.248 167.364C73.96 167.108 73.5387 166.98 72.984 166.98H70.472V169.892H72.984ZM73.144 174.804C73.6987 174.804 74.1307 174.655 74.44 174.356C74.7493 174.047 74.904 173.657 74.904 173.188C74.904 172.708 74.7493 172.319 74.44 172.02C74.1307 171.711 73.6987 171.556 73.144 171.556H70.472V174.804H73.144ZM82.6088 176.66C81.4248 176.66 80.4808 176.319 79.7768 175.636C79.0834 174.943 78.7154 173.972 78.6728 172.724L78.6568 172.324L78.6728 171.924C78.7261 170.708 79.0994 169.753 79.7928 169.06C80.4968 168.367 81.4354 168.02 82.6088 168.02C83.8674 168.02 84.8381 168.404 85.5208 169.172C86.2141 169.94 86.5608 170.964 86.5608 172.244V172.58C86.5608 172.687 86.5234 172.777 86.4488 172.852C86.3741 172.927 86.2781 172.964 86.1608 172.964H80.8488V173.092C80.8701 173.679 81.0301 174.175 81.3288 174.58C81.6381 174.975 82.0594 175.172 82.5928 175.172C83.2221 175.172 83.7288 174.927 84.1128 174.436C84.2088 174.319 84.2834 174.244 84.3368 174.212C84.4008 174.18 84.4914 174.164 84.6088 174.164H85.9848C86.0808 174.164 86.1608 174.196 86.2248 174.26C86.2994 174.313 86.3368 174.383 86.3368 174.468C86.3368 174.724 86.1821 175.028 85.8728 175.38C85.5741 175.721 85.1421 176.02 84.5768 176.276C84.0114 176.532 83.3554 176.66 82.6088 176.66ZM84.3848 171.62V171.572C84.3848 170.943 84.2248 170.436 83.9048 170.052C83.5954 169.668 83.1634 169.476 82.6088 169.476C82.0541 169.476 81.6221 169.668 81.3128 170.052C81.0034 170.436 80.8488 170.943 80.8488 171.572V171.62H84.3848ZM91.9879 176.5C91.0172 176.5 90.2865 176.249 89.7959 175.748C89.3159 175.236 89.0759 174.489 89.0759 173.508V169.876H87.8119C87.7052 169.876 87.6145 169.839 87.5399 169.764C87.4652 169.679 87.4279 169.583 87.4279 169.476V168.564C87.4279 168.457 87.4652 168.367 87.5399 168.292C87.6145 168.217 87.7052 168.18 87.8119 168.18H89.0759V165.524C89.0759 165.407 89.1132 165.316 89.1879 165.252C89.2625 165.177 89.3532 165.14 89.4599 165.14H90.7559C90.8732 165.14 90.9639 165.177 91.0279 165.252C91.1025 165.316 91.1399 165.407 91.1399 165.524V168.18H93.1399C93.2572 168.18 93.3479 168.217 93.4119 168.292C93.4865 168.356 93.5239 168.447 93.5239 168.564V169.476C93.5239 169.593 93.4865 169.689 93.4119 169.764C93.3372 169.839 93.2465 169.876 93.1399 169.876H91.1399V173.348C91.1399 173.807 91.2199 174.153 91.3799 174.388C91.5399 174.623 91.8065 174.74 92.1799 174.74H93.2839C93.3905 174.74 93.4812 174.777 93.5559 174.852C93.6305 174.927 93.6679 175.017 93.6679 175.124V176.116C93.6679 176.223 93.6305 176.313 93.5559 176.388C93.4919 176.463 93.4012 176.5 93.2839 176.5H91.9879ZM98.8473 176.5C97.8766 176.5 97.1459 176.249 96.6553 175.748C96.1753 175.236 95.9353 174.489 95.9353 173.508V169.876H94.6713C94.5646 169.876 94.4739 169.839 94.3993 169.764C94.3246 169.679 94.2873 169.583 94.2873 169.476V168.564C94.2873 168.457 94.3246 168.367 94.3993 168.292C94.4739 168.217 94.5646 168.18 94.6713 168.18H95.9353V165.524C95.9353 165.407 95.9726 165.316 96.0473 165.252C96.1219 165.177 96.2126 165.14 96.3193 165.14H97.6153C97.7326 165.14 97.8233 165.177 97.8873 165.252C97.9619 165.316 97.9993 165.407 97.9993 165.524V168.18H99.9993C100.117 168.18 100.207 168.217 100.271 168.292C100.346 168.356 100.383 168.447 100.383 168.564V169.476C100.383 169.593 100.346 169.689 100.271 169.764C100.197 169.839 100.106 169.876 99.9993 169.876H97.9993V173.348C97.9993 173.807 98.0793 174.153 98.2393 174.388C98.3993 174.623 98.6659 174.74 99.0393 174.74H100.143C100.25 174.74 100.341 174.777 100.415 174.852C100.49 174.927 100.527 175.017 100.527 175.124V176.116C100.527 176.223 100.49 176.313 100.415 176.388C100.351 176.463 100.261 176.5 100.143 176.5H98.8473ZM102.267 166.804C102.16 166.804 102.069 166.767 101.995 166.692C101.92 166.617 101.883 166.527 101.883 166.42V165.268C101.883 165.161 101.92 165.071 101.995 164.996C102.069 164.921 102.16 164.884 102.267 164.884H103.723C103.829 164.884 103.92 164.921 103.995 164.996C104.08 165.071 104.123 165.161 104.123 165.268V166.42C104.123 166.527 104.085 166.617 104.011 166.692C103.936 166.767 103.84 166.804 103.723 166.804H102.267ZM102.331 176.5C102.224 176.5 102.133 176.463 102.059 176.388C101.984 176.313 101.947 176.223 101.947 176.116V168.564C101.947 168.457 101.984 168.367 102.059 168.292C102.133 168.217 102.224 168.18 102.331 168.18H103.659C103.776 168.18 103.867 168.217 103.931 168.292C104.005 168.356 104.043 168.447 104.043 168.564V176.116C104.043 176.223 104.005 176.313 103.931 176.388C103.867 176.463 103.776 176.5 103.659 176.5H102.331ZM106.549 176.5C106.443 176.5 106.352 176.463 106.277 176.388C106.203 176.313 106.165 176.223 106.165 176.116V168.564C106.165 168.457 106.203 168.367 106.277 168.292C106.352 168.217 106.443 168.18 106.549 168.18H107.861C107.968 168.18 108.059 168.217 108.133 168.292C108.208 168.367 108.245 168.457 108.245 168.564V169.22C108.875 168.42 109.765 168.02 110.917 168.02C111.899 168.02 112.677 168.345 113.253 168.996C113.829 169.636 114.117 170.511 114.117 171.62V176.116C114.117 176.223 114.08 176.313 114.005 176.388C113.941 176.463 113.851 176.5 113.733 176.5H112.325C112.219 176.5 112.128 176.463 112.053 176.388C111.979 176.313 111.941 176.223 111.941 176.116V171.716C111.941 171.087 111.787 170.601 111.477 170.26C111.179 169.908 110.741 169.732 110.165 169.732C109.6 169.732 109.152 169.908 108.821 170.26C108.501 170.612 108.341 171.097 108.341 171.716V176.116C108.341 176.223 108.304 176.313 108.229 176.388C108.165 176.463 108.075 176.5 107.957 176.5H106.549ZM119.91 180.02C118.96 180.02 118.192 179.86 117.606 179.54C117.019 179.231 116.603 178.873 116.358 178.468C116.112 178.063 115.99 177.716 115.99 177.428C115.99 177.332 116.027 177.247 116.102 177.172C116.187 177.097 116.278 177.06 116.374 177.06H117.766C117.862 177.06 117.942 177.081 118.006 177.124C118.08 177.177 118.139 177.268 118.182 177.396C118.288 177.684 118.459 177.924 118.694 178.116C118.939 178.319 119.318 178.42 119.83 178.42C120.47 178.42 120.939 178.276 121.238 177.988C121.547 177.7 121.702 177.204 121.702 176.5V175.412C121.115 176.105 120.294 176.452 119.238 176.452C118.128 176.452 117.291 176.111 116.726 175.428C116.171 174.745 115.872 173.828 115.83 172.676L115.814 172.244L115.83 171.812C115.872 170.681 116.176 169.769 116.742 169.076C117.307 168.372 118.139 168.02 119.238 168.02C119.803 168.02 120.299 168.127 120.726 168.34C121.152 168.553 121.51 168.847 121.798 169.22V168.58C121.798 168.463 121.835 168.367 121.91 168.292C121.984 168.217 122.075 168.18 122.182 168.18H123.478C123.584 168.18 123.675 168.223 123.75 168.308C123.824 168.383 123.862 168.473 123.862 168.58L123.878 176.292C123.878 177.476 123.547 178.393 122.886 179.044C122.224 179.695 121.232 180.02 119.91 180.02ZM119.83 174.756C120.438 174.756 120.891 174.564 121.19 174.18C121.499 173.796 121.67 173.327 121.702 172.772C121.712 172.687 121.718 172.511 121.718 172.244C121.718 171.988 121.712 171.817 121.702 171.732C121.67 171.167 121.499 170.692 121.19 170.308C120.891 169.924 120.438 169.732 119.83 169.732C118.678 169.732 118.07 170.441 118.006 171.86L117.99 172.244C117.99 173.001 118.123 173.609 118.39 174.068C118.667 174.527 119.147 174.756 119.83 174.756Z" fill="#063A4F"/>
<rect x="9" y="-9" width="142" height="56" rx="8" fill="white" fill-opacity="0.2"/>
<rect x="9" y="219" width="142" height="56" rx="8" fill="white" fill-opacity="0.2"/>
<rect x="9" y="295" width="142" height="56" rx="8" fill="white" fill-opacity="0.2"/>
<rect x="168" y="100" width="164" height="56" rx="8" fill="white" fill-opacity="0.6"/>
<circle cx="221.5" cy="127.5" r="7.5" fill="white"/>
<path d="M222 138C216.48 137.994 212.006 133.52 212 128V127.8C212.11 122.305 216.635 117.928 222.131 118.001C227.627 118.074 232.034 122.569 231.998 128.065C231.962 133.562 227.497 137.999 222 138ZM218.116 128.293C217.726 127.905 217.095 127.905 216.706 128.294C216.316 128.684 216.316 129.316 216.706 129.706L218.921 131.921C219.517 132.517 220.483 132.517 221.079 131.921L227.295 125.705C227.685 125.315 227.686 124.684 227.297 124.293C226.907 123.899 226.272 123.898 225.88 124.29L220.23 129.94C220.103 130.067 219.897 130.067 219.769 129.94L218.116 128.293Z" fill="url(#paint2_linear_402_13132)"/>
<path d="M243.632 133.5C243.525 133.5 243.435 133.463 243.36 133.388C243.285 133.313 243.248 133.223 243.248 133.116V122.7C243.248 122.583 243.28 122.487 243.344 122.412C243.419 122.337 243.515 122.3 243.632 122.3H248.272C249.52 122.3 250.448 122.577 251.056 123.132C251.675 123.676 251.984 124.423 251.984 125.372C251.984 125.927 251.845 126.401 251.568 126.796C251.301 127.18 250.987 127.457 250.624 127.628C251.072 127.831 251.445 128.161 251.744 128.62C252.053 129.079 252.208 129.601 252.208 130.188C252.208 131.18 251.872 131.98 251.2 132.588C250.539 133.196 249.605 133.5 248.4 133.5H243.632ZM247.984 126.892C248.539 126.892 248.96 126.759 249.248 126.492C249.536 126.225 249.68 125.868 249.68 125.42C249.68 124.961 249.536 124.609 249.248 124.364C248.96 124.108 248.539 123.98 247.984 123.98H245.472V126.892H247.984ZM248.144 131.804C248.699 131.804 249.131 131.655 249.44 131.356C249.749 131.047 249.904 130.657 249.904 130.188C249.904 129.708 249.749 129.319 249.44 129.02C249.131 128.711 248.699 128.556 248.144 128.556H245.472V131.804H248.144ZM254.345 123.804C254.238 123.804 254.147 123.767 254.073 123.692C253.998 123.617 253.961 123.527 253.961 123.42V122.268C253.961 122.161 253.998 122.071 254.073 121.996C254.147 121.921 254.238 121.884 254.345 121.884H255.801C255.907 121.884 255.998 121.921 256.073 121.996C256.158 122.071 256.201 122.161 256.201 122.268V123.42C256.201 123.527 256.163 123.617 256.089 123.692C256.014 123.767 255.918 123.804 255.801 123.804H254.345ZM254.409 133.5C254.302 133.5 254.211 133.463 254.137 133.388C254.062 133.313 254.025 133.223 254.025 133.116V125.564C254.025 125.457 254.062 125.367 254.137 125.292C254.211 125.217 254.302 125.18 254.409 125.18H255.737C255.854 125.18 255.945 125.217 256.009 125.292C256.083 125.356 256.121 125.447 256.121 125.564V133.116C256.121 133.223 256.083 133.313 256.009 133.388C255.945 133.463 255.854 133.5 255.737 133.5H254.409ZM258.644 133.5C258.537 133.5 258.446 133.463 258.372 133.388C258.297 133.313 258.26 133.223 258.26 133.116V122.524C258.26 122.407 258.297 122.316 258.372 122.252C258.446 122.177 258.537 122.14 258.644 122.14H259.972C260.089 122.14 260.18 122.177 260.244 122.252C260.318 122.316 260.356 122.407 260.356 122.524V133.116C260.356 133.223 260.318 133.313 260.244 133.388C260.18 133.463 260.089 133.5 259.972 133.5H258.644ZM262.878 133.5C262.771 133.5 262.681 133.463 262.606 133.388C262.531 133.313 262.494 133.223 262.494 133.116V122.524C262.494 122.407 262.531 122.316 262.606 122.252C262.681 122.177 262.771 122.14 262.878 122.14H264.206C264.323 122.14 264.414 122.177 264.478 122.252C264.553 122.316 264.59 122.407 264.59 122.524V133.116C264.59 133.223 264.553 133.313 264.478 133.388C264.414 133.463 264.323 133.5 264.206 133.5H262.878ZM267.032 123.804C266.926 123.804 266.835 123.767 266.76 123.692C266.686 123.617 266.648 123.527 266.648 123.42V122.268C266.648 122.161 266.686 122.071 266.76 121.996C266.835 121.921 266.926 121.884 267.032 121.884H268.488C268.595 121.884 268.686 121.921 268.76 121.996C268.846 122.071 268.888 122.161 268.888 122.268V123.42C268.888 123.527 268.851 123.617 268.776 123.692C268.702 123.767 268.606 123.804 268.488 123.804H267.032ZM267.096 133.5C266.99 133.5 266.899 133.463 266.824 133.388C266.75 133.313 266.712 133.223 266.712 133.116V125.564C266.712 125.457 266.75 125.367 266.824 125.292C266.899 125.217 266.99 125.18 267.096 125.18H268.424C268.542 125.18 268.632 125.217 268.696 125.292C268.771 125.356 268.808 125.447 268.808 125.564V133.116C268.808 133.223 268.771 133.313 268.696 133.388C268.632 133.463 268.542 133.5 268.424 133.5H267.096ZM271.315 133.5C271.208 133.5 271.118 133.463 271.043 133.388C270.968 133.313 270.931 133.223 270.931 133.116V125.564C270.931 125.457 270.968 125.367 271.043 125.292C271.118 125.217 271.208 125.18 271.315 125.18H272.627C272.734 125.18 272.824 125.217 272.899 125.292C272.974 125.367 273.011 125.457 273.011 125.564V126.22C273.64 125.42 274.531 125.02 275.683 125.02C276.664 125.02 277.443 125.345 278.019 125.996C278.595 126.636 278.883 127.511 278.883 128.62V133.116C278.883 133.223 278.846 133.313 278.771 133.388C278.707 133.463 278.616 133.5 278.499 133.5H277.091C276.984 133.5 276.894 133.463 276.819 133.388C276.744 133.313 276.707 133.223 276.707 133.116V128.716C276.707 128.087 276.552 127.601 276.243 127.26C275.944 126.908 275.507 126.732 274.931 126.732C274.366 126.732 273.918 126.908 273.587 127.26C273.267 127.612 273.107 128.097 273.107 128.716V133.116C273.107 133.223 273.07 133.313 272.995 133.388C272.931 133.463 272.84 133.5 272.723 133.5H271.315ZM284.675 137.02C283.726 137.02 282.958 136.86 282.371 136.54C281.785 136.231 281.369 135.873 281.123 135.468C280.878 135.063 280.755 134.716 280.755 134.428C280.755 134.332 280.793 134.247 280.867 134.172C280.953 134.097 281.043 134.06 281.139 134.06H282.531C282.627 134.06 282.707 134.081 282.771 134.124C282.846 134.177 282.905 134.268 282.947 134.396C283.054 134.684 283.225 134.924 283.459 135.116C283.705 135.319 284.083 135.42 284.595 135.42C285.235 135.42 285.705 135.276 286.003 134.988C286.313 134.7 286.467 134.204 286.467 133.5V132.412C285.881 133.105 285.059 133.452 284.003 133.452C282.894 133.452 282.057 133.111 281.491 132.428C280.937 131.745 280.638 130.828 280.595 129.676L280.579 129.244L280.595 128.812C280.638 127.681 280.942 126.769 281.507 126.076C282.073 125.372 282.905 125.02 284.003 125.02C284.569 125.02 285.065 125.127 285.491 125.34C285.918 125.553 286.275 125.847 286.563 126.22V125.58C286.563 125.463 286.601 125.367 286.675 125.292C286.75 125.217 286.841 125.18 286.947 125.18H288.243C288.35 125.18 288.441 125.223 288.515 125.308C288.59 125.383 288.627 125.473 288.627 125.58L288.643 133.292C288.643 134.476 288.313 135.393 287.651 136.044C286.99 136.695 285.998 137.02 284.675 137.02ZM284.595 131.756C285.203 131.756 285.657 131.564 285.955 131.18C286.265 130.796 286.435 130.327 286.467 129.772C286.478 129.687 286.483 129.511 286.483 129.244C286.483 128.988 286.478 128.817 286.467 128.732C286.435 128.167 286.265 127.692 285.955 127.308C285.657 126.924 285.203 126.732 284.595 126.732C283.443 126.732 282.835 127.441 282.771 128.86L282.755 129.244C282.755 130.001 282.889 130.609 283.155 131.068C283.433 131.527 283.913 131.756 284.595 131.756Z" fill="#063A4F"/>
<rect x="168" y="176" width="164" height="56" rx="8" fill="white" fill-opacity="0.6"/>
<circle cx="195.5" cy="203.5" r="7.5" fill="white"/>
<path d="M196 214C190.48 213.994 186.006 209.52 186 204V203.8C186.11 198.305 190.635 193.928 196.131 194.001C201.627 194.074 206.034 198.569 205.998 204.065C205.962 209.562 201.497 213.999 196 214ZM192.116 204.293C191.726 203.905 191.095 203.905 190.706 204.294C190.316 204.684 190.316 205.316 190.706 205.706L192.921 207.921C193.517 208.517 194.483 208.517 195.079 207.921L201.295 201.705C201.685 201.315 201.686 200.684 201.297 200.293C200.907 199.899 200.272 199.898 199.88 200.29L194.23 205.94C194.103 206.067 193.897 206.067 193.769 205.94L192.116 204.293Z" fill="url(#paint3_linear_402_13132)"/>
<path d="M217.632 209.5C217.525 209.5 217.435 209.463 217.36 209.388C217.285 209.313 217.248 209.223 217.248 209.116V198.7C217.248 198.583 217.28 198.487 217.344 198.412C217.419 198.337 217.515 198.3 217.632 198.3H224.672C224.789 198.3 224.885 198.337 224.96 198.412C225.035 198.487 225.072 198.583 225.072 198.7V199.756C225.072 199.873 225.035 199.969 224.96 200.044C224.885 200.108 224.789 200.14 224.672 200.14H219.408V202.972H224.32C224.437 202.972 224.533 203.009 224.608 203.084C224.683 203.148 224.72 203.239 224.72 203.356V204.348C224.72 204.465 224.683 204.561 224.608 204.636C224.533 204.7 224.437 204.732 224.32 204.732H219.408V207.66H224.8C224.917 207.66 225.013 207.697 225.088 207.772C225.163 207.847 225.2 207.943 225.2 208.06V209.116C225.2 209.233 225.163 209.329 225.088 209.404C225.013 209.468 224.917 209.5 224.8 209.5H217.632ZM227.173 205.612C227.067 205.612 226.976 205.575 226.901 205.5C226.827 205.425 226.789 205.335 226.789 205.228V204.172C226.789 204.055 226.827 203.964 226.901 203.9C226.976 203.825 227.067 203.788 227.173 203.788H232.085C232.203 203.788 232.293 203.825 232.357 203.9C232.432 203.964 232.469 204.055 232.469 204.172V205.228C232.469 205.335 232.432 205.425 232.357 205.5C232.293 205.575 232.203 205.612 232.085 205.612H227.173ZM238.14 209.66C236.967 209.66 236.028 209.335 235.324 208.684C234.631 208.033 234.263 207.132 234.22 205.98L234.204 205.34L234.22 204.7C234.263 203.548 234.631 202.647 235.324 201.996C236.028 201.345 236.967 201.02 238.14 201.02C238.972 201.02 239.676 201.169 240.252 201.468C240.839 201.767 241.271 202.135 241.548 202.572C241.836 202.999 241.991 203.404 242.012 203.788C242.023 203.895 241.986 203.985 241.9 204.06C241.826 204.135 241.735 204.172 241.628 204.172H240.22C240.114 204.172 240.028 204.151 239.964 204.108C239.911 204.055 239.858 203.969 239.804 203.852C239.644 203.436 239.431 203.137 239.164 202.956C238.908 202.775 238.578 202.684 238.172 202.684C237.628 202.684 237.202 202.86 236.892 203.212C236.583 203.553 236.418 204.076 236.396 204.78L236.38 205.372L236.396 205.9C236.439 207.297 237.031 207.996 238.172 207.996C238.588 207.996 238.924 207.905 239.18 207.724C239.436 207.543 239.644 207.244 239.804 206.828C239.858 206.711 239.911 206.631 239.964 206.588C240.028 206.535 240.114 206.508 240.22 206.508H241.628C241.735 206.508 241.826 206.545 241.9 206.62C241.986 206.695 242.023 206.785 242.012 206.892C241.991 207.265 241.842 207.665 241.564 208.092C241.287 208.519 240.86 208.887 240.284 209.196C239.708 209.505 238.994 209.66 238.14 209.66ZM247.361 209.66C246.113 209.66 245.148 209.34 244.465 208.7C243.782 208.049 243.414 207.164 243.361 206.044L243.345 205.34L243.361 204.636C243.414 203.527 243.788 202.647 244.481 201.996C245.174 201.345 246.134 201.02 247.361 201.02C248.588 201.02 249.548 201.345 250.241 201.996C250.934 202.647 251.308 203.527 251.361 204.636C251.372 204.764 251.377 204.999 251.377 205.34C251.377 205.681 251.372 205.916 251.361 206.044C251.308 207.164 250.94 208.049 250.257 208.7C249.574 209.34 248.609 209.66 247.361 209.66ZM247.361 208.076C247.926 208.076 248.364 207.9 248.673 207.548C248.982 207.185 249.153 206.657 249.185 205.964C249.196 205.857 249.201 205.649 249.201 205.34C249.201 205.031 249.196 204.823 249.185 204.716C249.153 204.023 248.982 203.5 248.673 203.148C248.364 202.785 247.926 202.604 247.361 202.604C246.796 202.604 246.358 202.785 246.049 203.148C245.74 203.5 245.569 204.023 245.537 204.716L245.521 205.34L245.537 205.964C245.569 206.657 245.74 207.185 246.049 207.548C246.358 207.9 246.796 208.076 247.361 208.076ZM253.534 209.5C253.427 209.5 253.336 209.463 253.262 209.388C253.187 209.313 253.15 209.223 253.15 209.116V201.564C253.15 201.457 253.187 201.367 253.262 201.292C253.336 201.217 253.427 201.18 253.534 201.18H254.782C254.888 201.18 254.979 201.217 255.054 201.292C255.128 201.367 255.166 201.457 255.166 201.564V202.108C255.72 201.383 256.494 201.02 257.486 201.02C258.67 201.02 259.496 201.495 259.966 202.444C260.222 202.017 260.584 201.676 261.054 201.42C261.523 201.153 262.03 201.02 262.574 201.02C263.448 201.02 264.163 201.319 264.718 201.916C265.272 202.513 265.55 203.383 265.55 204.524V209.116C265.55 209.223 265.512 209.313 265.438 209.388C265.374 209.463 265.283 209.5 265.166 209.5H263.854C263.747 209.5 263.656 209.463 263.582 209.388C263.507 209.313 263.47 209.223 263.47 209.116V204.652C263.47 203.98 263.326 203.495 263.038 203.196C262.76 202.887 262.387 202.732 261.918 202.732C261.502 202.732 261.144 202.887 260.846 203.196C260.558 203.505 260.414 203.991 260.414 204.652V209.116C260.414 209.223 260.376 209.313 260.302 209.388C260.227 209.463 260.136 209.5 260.03 209.5H258.718C258.611 209.5 258.52 209.463 258.446 209.388C258.371 209.313 258.334 209.223 258.334 209.116V204.652C258.334 203.98 258.184 203.495 257.886 203.196C257.598 202.887 257.23 202.732 256.782 202.732C256.355 202.732 255.992 202.887 255.694 203.196C255.406 203.505 255.262 203.991 255.262 204.652V209.116C255.262 209.223 255.224 209.313 255.15 209.388C255.075 209.463 254.984 209.5 254.878 209.5H253.534ZM267.971 209.5C267.865 209.5 267.774 209.463 267.699 209.388C267.625 209.313 267.587 209.223 267.587 209.116V201.564C267.587 201.457 267.625 201.367 267.699 201.292C267.774 201.217 267.865 201.18 267.971 201.18H269.219C269.326 201.18 269.417 201.217 269.491 201.292C269.566 201.367 269.603 201.457 269.603 201.564V202.108C270.158 201.383 270.931 201.02 271.923 201.02C273.107 201.02 273.934 201.495 274.403 202.444C274.659 202.017 275.022 201.676 275.491 201.42C275.961 201.153 276.467 201.02 277.011 201.02C277.886 201.02 278.601 201.319 279.155 201.916C279.71 202.513 279.987 203.383 279.987 204.524V209.116C279.987 209.223 279.95 209.313 279.875 209.388C279.811 209.463 279.721 209.5 279.603 209.5H278.291C278.185 209.5 278.094 209.463 278.019 209.388C277.945 209.313 277.907 209.223 277.907 209.116V204.652C277.907 203.98 277.763 203.495 277.475 203.196C277.198 202.887 276.825 202.732 276.355 202.732C275.939 202.732 275.582 202.887 275.283 203.196C274.995 203.505 274.851 203.991 274.851 204.652V209.116C274.851 209.223 274.814 209.313 274.739 209.388C274.665 209.463 274.574 209.5 274.467 209.5H273.155C273.049 209.5 272.958 209.463 272.883 209.388C272.809 209.313 272.771 209.223 272.771 209.116V204.652C272.771 203.98 272.622 203.495 272.323 203.196C272.035 202.887 271.667 202.732 271.219 202.732C270.793 202.732 270.43 202.887 270.131 203.196C269.843 203.505 269.699 203.991 269.699 204.652V209.116C269.699 209.223 269.662 209.313 269.587 209.388C269.513 209.463 269.422 209.5 269.315 209.5H267.971ZM285.609 209.66C284.425 209.66 283.481 209.319 282.777 208.636C282.083 207.943 281.715 206.972 281.673 205.724L281.657 205.324L281.673 204.924C281.726 203.708 282.099 202.753 282.793 202.06C283.497 201.367 284.435 201.02 285.609 201.02C286.867 201.02 287.838 201.404 288.521 202.172C289.214 202.94 289.561 203.964 289.561 205.244V205.58C289.561 205.687 289.523 205.777 289.449 205.852C289.374 205.927 289.278 205.964 289.161 205.964H283.849V206.092C283.87 206.679 284.03 207.175 284.329 207.58C284.638 207.975 285.059 208.172 285.593 208.172C286.222 208.172 286.729 207.927 287.113 207.436C287.209 207.319 287.283 207.244 287.337 207.212C287.401 207.18 287.491 207.164 287.609 207.164H288.985C289.081 207.164 289.161 207.196 289.225 207.26C289.299 207.313 289.337 207.383 289.337 207.468C289.337 207.724 289.182 208.028 288.873 208.38C288.574 208.721 288.142 209.02 287.577 209.276C287.011 209.532 286.355 209.66 285.609 209.66ZM287.385 204.62V204.572C287.385 203.943 287.225 203.436 286.905 203.052C286.595 202.668 286.163 202.476 285.609 202.476C285.054 202.476 284.622 202.668 284.313 203.052C284.003 203.436 283.849 203.943 283.849 204.572V204.62H287.385ZM291.643 209.5C291.536 209.5 291.446 209.463 291.371 209.388C291.296 209.313 291.259 209.223 291.259 209.116V201.58C291.259 201.473 291.296 201.383 291.371 201.308C291.446 201.223 291.536 201.18 291.643 201.18H292.939C293.056 201.18 293.152 201.217 293.227 201.292C293.302 201.367 293.339 201.463 293.339 201.58V202.236C293.595 201.895 293.915 201.633 294.299 201.452C294.694 201.271 295.142 201.18 295.643 201.18H296.299C296.416 201.18 296.507 201.217 296.571 201.292C296.646 201.356 296.683 201.447 296.683 201.564V202.716C296.683 202.823 296.646 202.913 296.571 202.988C296.507 203.063 296.416 203.1 296.299 203.1H295.051C294.55 203.1 294.155 203.244 293.867 203.532C293.579 203.82 293.435 204.215 293.435 204.716V209.116C293.435 209.223 293.398 209.313 293.323 209.388C293.248 209.463 293.152 209.5 293.035 209.5H291.643ZM301.422 209.66C300.248 209.66 299.31 209.335 298.606 208.684C297.912 208.033 297.544 207.132 297.502 205.98L297.486 205.34L297.502 204.7C297.544 203.548 297.912 202.647 298.606 201.996C299.31 201.345 300.248 201.02 301.422 201.02C302.254 201.02 302.958 201.169 303.534 201.468C304.12 201.767 304.552 202.135 304.83 202.572C305.118 202.999 305.272 203.404 305.294 203.788C305.304 203.895 305.267 203.985 305.182 204.06C305.107 204.135 305.016 204.172 304.91 204.172H303.502C303.395 204.172 303.31 204.151 303.246 204.108C303.192 204.055 303.139 203.969 303.086 203.852C302.926 203.436 302.712 203.137 302.446 202.956C302.19 202.775 301.859 202.684 301.454 202.684C300.91 202.684 300.483 202.86 300.174 203.212C299.864 203.553 299.699 204.076 299.678 204.78L299.662 205.372L299.678 205.9C299.72 207.297 300.312 207.996 301.454 207.996C301.87 207.996 302.206 207.905 302.462 207.724C302.718 207.543 302.926 207.244 303.086 206.828C303.139 206.711 303.192 206.631 303.246 206.588C303.31 206.535 303.395 206.508 303.502 206.508H304.91C305.016 206.508 305.107 206.545 305.182 206.62C305.267 206.695 305.304 206.785 305.294 206.892C305.272 207.265 305.123 207.665 304.846 208.092C304.568 208.519 304.142 208.887 303.566 209.196C302.99 209.505 302.275 209.66 301.422 209.66ZM310.546 209.66C309.362 209.66 308.418 209.319 307.714 208.636C307.021 207.943 306.653 206.972 306.61 205.724L306.594 205.324L306.61 204.924C306.664 203.708 307.037 202.753 307.73 202.06C308.434 201.367 309.373 201.02 310.546 201.02C311.805 201.02 312.776 201.404 313.458 202.172C314.152 202.94 314.498 203.964 314.498 205.244V205.58C314.498 205.687 314.461 205.777 314.386 205.852C314.312 205.927 314.216 205.964 314.098 205.964H308.786V206.092C308.808 206.679 308.968 207.175 309.266 207.58C309.576 207.975 309.997 208.172 310.53 208.172C311.16 208.172 311.666 207.927 312.05 207.436C312.146 207.319 312.221 207.244 312.274 207.212C312.338 207.18 312.429 207.164 312.546 207.164H313.922C314.018 207.164 314.098 207.196 314.162 207.26C314.237 207.313 314.274 207.383 314.274 207.468C314.274 207.724 314.12 208.028 313.81 208.38C313.512 208.721 313.08 209.02 312.514 209.276C311.949 209.532 311.293 209.66 310.546 209.66ZM312.322 204.62V204.572C312.322 203.943 312.162 203.436 311.842 203.052C311.533 202.668 311.101 202.476 310.546 202.476C309.992 202.476 309.56 202.668 309.25 203.052C308.941 203.436 308.786 203.943 308.786 204.572V204.62H312.322Z" fill="#063A4F"/>
<rect x="168" y="29" width="164" height="51" rx="8" fill="white" fill-opacity="0.2"/>
<rect x="168" y="-42" width="164" height="51" rx="8" fill="white" fill-opacity="0.2"/>
<rect x="168" y="252" width="164" height="56" rx="8" fill="white" fill-opacity="0.2"/>
<rect x="168" y="328" width="164" height="56" rx="8" fill="white" fill-opacity="0.2"/>
<rect x="349" y="142" width="142" height="56" rx="8" fill="white" fill-opacity="0.6"/>
<circle cx="384.5" cy="169.5" r="7.5" fill="white"/>
<path d="M385 180C379.48 179.994 375.006 175.52 375 170V169.8C375.11 164.305 379.635 159.928 385.131 160.001C390.627 160.074 395.034 164.569 394.998 170.065C394.962 175.562 390.497 179.999 385 180ZM381.116 170.293C380.726 169.905 380.095 169.905 379.706 170.294C379.316 170.684 379.316 171.316 379.706 171.706L381.921 173.921C382.517 174.517 383.483 174.517 384.079 173.921L390.295 167.705C390.685 167.315 390.686 166.684 390.297 166.293C389.907 165.899 389.272 165.898 388.88 166.29L383.23 171.94C383.103 172.067 382.897 172.067 382.769 171.94L381.116 170.293Z" fill="url(#paint4_linear_402_13132)"/>
<path d="M410.136 175.66C409.187 175.66 408.371 175.516 407.688 175.228C407.005 174.94 406.488 174.561 406.136 174.092C405.784 173.623 405.597 173.116 405.576 172.572C405.576 172.476 405.608 172.396 405.672 172.332C405.736 172.268 405.816 172.236 405.912 172.236H407.336C407.464 172.236 407.56 172.263 407.624 172.316C407.699 172.359 407.768 172.433 407.832 172.54C407.939 172.903 408.184 173.207 408.568 173.452C408.952 173.697 409.475 173.82 410.136 173.82C410.893 173.82 411.464 173.697 411.848 173.452C412.232 173.196 412.424 172.844 412.424 172.396C412.424 172.097 412.323 171.852 412.12 171.66C411.928 171.468 411.635 171.303 411.24 171.164C410.856 171.025 410.28 170.855 409.512 170.652C408.253 170.353 407.331 169.959 406.744 169.468C406.168 168.967 405.88 168.257 405.88 167.34C405.88 166.721 406.045 166.172 406.376 165.692C406.717 165.212 407.203 164.833 407.832 164.556C408.472 164.279 409.213 164.14 410.056 164.14C410.931 164.14 411.688 164.295 412.328 164.604C412.968 164.913 413.453 165.303 413.784 165.772C414.125 166.231 414.307 166.689 414.328 167.148C414.328 167.244 414.296 167.324 414.232 167.388C414.168 167.452 414.088 167.484 413.992 167.484H412.504C412.28 167.484 412.125 167.383 412.04 167.18C411.976 166.839 411.763 166.556 411.4 166.332C411.037 166.097 410.589 165.98 410.056 165.98C409.459 165.98 408.989 166.092 408.648 166.316C408.307 166.54 408.136 166.865 408.136 167.292C408.136 167.591 408.221 167.836 408.392 168.028C408.563 168.22 408.829 168.391 409.192 168.54C409.565 168.689 410.099 168.855 410.792 169.036C411.731 169.249 412.477 169.489 413.032 169.756C413.597 170.023 414.013 170.359 414.28 170.764C414.547 171.169 414.68 171.687 414.68 172.316C414.68 172.999 414.488 173.596 414.104 174.108C413.731 174.609 413.197 174.993 412.504 175.26C411.821 175.527 411.032 175.66 410.136 175.66ZM419.922 175.66C418.748 175.66 417.81 175.335 417.106 174.684C416.412 174.033 416.044 173.132 416.002 171.98L415.986 171.34L416.002 170.7C416.044 169.548 416.412 168.647 417.106 167.996C417.81 167.345 418.748 167.02 419.922 167.02C420.754 167.02 421.458 167.169 422.034 167.468C422.62 167.767 423.052 168.135 423.33 168.572C423.618 168.999 423.772 169.404 423.794 169.788C423.804 169.895 423.767 169.985 423.682 170.06C423.607 170.135 423.516 170.172 423.41 170.172H422.002C421.895 170.172 421.81 170.151 421.746 170.108C421.692 170.055 421.639 169.969 421.586 169.852C421.426 169.436 421.212 169.137 420.946 168.956C420.69 168.775 420.359 168.684 419.954 168.684C419.41 168.684 418.983 168.86 418.674 169.212C418.364 169.553 418.199 170.076 418.178 170.78L418.162 171.372L418.178 171.9C418.22 173.297 418.812 173.996 419.954 173.996C420.37 173.996 420.706 173.905 420.962 173.724C421.218 173.543 421.426 173.244 421.586 172.828C421.639 172.711 421.692 172.631 421.746 172.588C421.81 172.535 421.895 172.508 422.002 172.508H423.41C423.516 172.508 423.607 172.545 423.682 172.62C423.767 172.695 423.804 172.785 423.794 172.892C423.772 173.265 423.623 173.665 423.346 174.092C423.068 174.519 422.642 174.887 422.066 175.196C421.49 175.505 420.775 175.66 419.922 175.66ZM425.862 175.5C425.756 175.5 425.665 175.463 425.59 175.388C425.516 175.313 425.478 175.223 425.478 175.116V164.524C425.478 164.407 425.516 164.316 425.59 164.252C425.665 164.177 425.756 164.14 425.862 164.14H427.286C427.404 164.14 427.494 164.177 427.558 164.252C427.633 164.316 427.67 164.407 427.67 164.524V168.172C428.31 167.404 429.174 167.02 430.262 167.02C431.244 167.02 432.028 167.345 432.614 167.996C433.201 168.636 433.494 169.511 433.494 170.62V175.116C433.494 175.223 433.457 175.313 433.382 175.388C433.318 175.463 433.228 175.5 433.11 175.5H431.67C431.564 175.5 431.473 175.463 431.398 175.388C431.324 175.313 431.286 175.223 431.286 175.116V170.716C431.286 170.087 431.132 169.601 430.822 169.26C430.524 168.908 430.086 168.732 429.51 168.732C428.945 168.732 428.497 168.908 428.166 169.26C427.836 169.612 427.67 170.097 427.67 170.716V175.116C427.67 175.223 427.633 175.313 427.558 175.388C427.494 175.463 427.404 175.5 427.286 175.5H425.862ZM439.205 175.66C437.957 175.66 436.991 175.34 436.309 174.7C435.626 174.049 435.258 173.164 435.205 172.044L435.189 171.34L435.205 170.636C435.258 169.527 435.631 168.647 436.325 167.996C437.018 167.345 437.978 167.02 439.205 167.02C440.431 167.02 441.391 167.345 442.085 167.996C442.778 168.647 443.151 169.527 443.205 170.636C443.215 170.764 443.221 170.999 443.221 171.34C443.221 171.681 443.215 171.916 443.205 172.044C443.151 173.164 442.783 174.049 442.101 174.7C441.418 175.34 440.453 175.66 439.205 175.66ZM439.205 174.076C439.77 174.076 440.207 173.9 440.517 173.548C440.826 173.185 440.997 172.657 441.029 171.964C441.039 171.857 441.045 171.649 441.045 171.34C441.045 171.031 441.039 170.823 441.029 170.716C440.997 170.023 440.826 169.5 440.517 169.148C440.207 168.785 439.77 168.604 439.205 168.604C438.639 168.604 438.202 168.785 437.893 169.148C437.583 169.5 437.413 170.023 437.381 170.716L437.365 171.34L437.381 171.964C437.413 172.657 437.583 173.185 437.893 173.548C438.202 173.9 438.639 174.076 439.205 174.076ZM448.674 175.66C447.426 175.66 446.46 175.34 445.778 174.7C445.095 174.049 444.727 173.164 444.674 172.044L444.658 171.34L444.674 170.636C444.727 169.527 445.1 168.647 445.794 167.996C446.487 167.345 447.447 167.02 448.674 167.02C449.9 167.02 450.86 167.345 451.554 167.996C452.247 168.647 452.62 169.527 452.674 170.636C452.684 170.764 452.69 170.999 452.69 171.34C452.69 171.681 452.684 171.916 452.674 172.044C452.62 173.164 452.252 174.049 451.57 174.7C450.887 175.34 449.922 175.66 448.674 175.66ZM448.674 174.076C449.239 174.076 449.676 173.9 449.986 173.548C450.295 173.185 450.466 172.657 450.498 171.964C450.508 171.857 450.514 171.649 450.514 171.34C450.514 171.031 450.508 170.823 450.498 170.716C450.466 170.023 450.295 169.5 449.986 169.148C449.676 168.785 449.239 168.604 448.674 168.604C448.108 168.604 447.671 168.785 447.362 169.148C447.052 169.5 446.882 170.023 446.85 170.716L446.834 171.34L446.85 171.964C446.882 172.657 447.052 173.185 447.362 173.548C447.671 173.9 448.108 174.076 448.674 174.076ZM454.862 175.5C454.756 175.5 454.665 175.463 454.59 175.388C454.516 175.313 454.478 175.223 454.478 175.116V164.524C454.478 164.407 454.516 164.316 454.59 164.252C454.665 164.177 454.756 164.14 454.862 164.14H456.19C456.308 164.14 456.398 164.177 456.462 164.252C456.537 164.316 456.574 164.407 456.574 164.524V175.116C456.574 175.223 456.537 175.313 456.462 175.388C456.398 175.463 456.308 175.5 456.19 175.5H454.862ZM461.849 175.66C461.049 175.66 460.377 175.543 459.833 175.308C459.289 175.063 458.883 174.78 458.617 174.46C458.361 174.129 458.233 173.847 458.233 173.612C458.233 173.505 458.27 173.42 458.345 173.356C458.419 173.292 458.505 173.26 458.601 173.26H459.865C459.961 173.26 460.041 173.297 460.105 173.372C460.147 173.404 460.259 173.5 460.441 173.66C460.622 173.831 460.835 173.964 461.081 174.06C461.326 174.156 461.598 174.204 461.897 174.204C462.323 174.204 462.675 174.119 462.953 173.948C463.23 173.777 463.369 173.543 463.369 173.244C463.369 173.02 463.305 172.839 463.177 172.7C463.059 172.561 462.841 172.439 462.521 172.332C462.201 172.215 461.726 172.092 461.097 171.964C460.19 171.772 459.518 171.479 459.081 171.084C458.654 170.689 458.441 170.167 458.441 169.516C458.441 169.089 458.569 168.689 458.825 168.316C459.081 167.932 459.459 167.623 459.961 167.388C460.473 167.143 461.081 167.02 461.785 167.02C462.499 167.02 463.118 167.137 463.641 167.372C464.163 167.596 464.558 167.868 464.825 168.188C465.102 168.497 465.241 168.775 465.241 169.02C465.241 169.116 465.203 169.201 465.129 169.276C465.065 169.34 464.985 169.372 464.889 169.372H463.705C463.619 169.372 463.529 169.335 463.433 169.26C463.358 169.207 463.241 169.105 463.081 168.956C462.921 168.807 462.734 168.689 462.521 168.604C462.307 168.519 462.057 168.476 461.769 168.476C461.374 168.476 461.065 168.561 460.841 168.732C460.627 168.903 460.521 169.127 460.521 169.404C460.521 169.607 460.574 169.772 460.681 169.9C460.787 170.028 460.995 170.151 461.305 170.268C461.614 170.385 462.078 170.503 462.697 170.62C463.721 170.823 464.451 171.137 464.889 171.564C465.337 171.991 465.561 172.513 465.561 173.132C465.561 173.879 465.235 174.487 464.585 174.956C463.934 175.425 463.022 175.66 461.849 175.66Z" fill="#063A4F"/>
<rect x="349" y="218" width="142" height="56" rx="8" fill="white" fill-opacity="0.6"/>
<circle cx="381.5" cy="245.5" r="7.5" fill="white"/>
<path d="M382 256C376.48 255.994 372.006 251.52 372 246V245.8C372.11 240.305 376.635 235.928 382.131 236.001C387.627 236.074 392.034 240.569 391.998 246.065C391.962 251.562 387.497 255.999 382 256ZM378.116 246.293C377.726 245.905 377.095 245.905 376.706 246.294C376.316 246.684 376.316 247.316 376.706 247.706L378.921 249.921C379.517 250.517 380.483 250.517 381.079 249.921L387.295 243.705C387.685 243.315 387.686 242.684 387.297 242.293C386.907 241.899 386.272 241.898 385.88 242.29L380.23 247.94C380.103 248.067 379.897 248.067 379.769 247.94L378.116 246.293Z" fill="url(#paint5_linear_402_13132)"/>
<path d="M403.632 251.5C403.525 251.5 403.435 251.463 403.36 251.388C403.285 251.313 403.248 251.223 403.248 251.116V240.7C403.248 240.583 403.28 240.487 403.344 240.412C403.419 240.337 403.515 240.3 403.632 240.3H410.576C410.693 240.3 410.789 240.337 410.864 240.412C410.939 240.487 410.976 240.583 410.976 240.7V241.82C410.976 241.937 410.939 242.033 410.864 242.108C410.789 242.172 410.693 242.204 410.576 242.204H405.44V245.244H410.256C410.373 245.244 410.469 245.281 410.544 245.356C410.619 245.431 410.656 245.527 410.656 245.644V246.764C410.656 246.881 410.619 246.977 410.544 247.052C410.469 247.116 410.373 247.148 410.256 247.148H405.44V251.116C405.44 251.233 405.403 251.329 405.328 251.404C405.253 251.468 405.157 251.5 405.04 251.5H403.632ZM412.985 241.804C412.879 241.804 412.788 241.767 412.713 241.692C412.639 241.617 412.601 241.527 412.601 241.42V240.268C412.601 240.161 412.639 240.071 412.713 239.996C412.788 239.921 412.879 239.884 412.985 239.884H414.441C414.548 239.884 414.639 239.921 414.713 239.996C414.799 240.071 414.841 240.161 414.841 240.268V241.42C414.841 241.527 414.804 241.617 414.729 241.692C414.655 241.767 414.559 241.804 414.441 241.804H412.985ZM413.049 251.5C412.943 251.5 412.852 251.463 412.777 251.388C412.703 251.313 412.665 251.223 412.665 251.116V243.564C412.665 243.457 412.703 243.367 412.777 243.292C412.852 243.217 412.943 243.18 413.049 243.18H414.377C414.495 243.18 414.585 243.217 414.649 243.292C414.724 243.356 414.761 243.447 414.761 243.564V251.116C414.761 251.223 414.724 251.313 414.649 251.388C414.585 251.463 414.495 251.5 414.377 251.5H413.049ZM417.268 251.5C417.161 251.5 417.071 251.463 416.996 251.388C416.921 251.313 416.884 251.223 416.884 251.116V243.564C416.884 243.457 416.921 243.367 416.996 243.292C417.071 243.217 417.161 243.18 417.268 243.18H418.58C418.687 243.18 418.777 243.217 418.852 243.292C418.927 243.367 418.964 243.457 418.964 243.564V244.22C419.593 243.42 420.484 243.02 421.636 243.02C422.617 243.02 423.396 243.345 423.972 243.996C424.548 244.636 424.836 245.511 424.836 246.62V251.116C424.836 251.223 424.799 251.313 424.724 251.388C424.66 251.463 424.569 251.5 424.452 251.5H423.044C422.937 251.5 422.847 251.463 422.772 251.388C422.697 251.313 422.66 251.223 422.66 251.116V246.716C422.66 246.087 422.505 245.601 422.196 245.26C421.897 244.908 421.46 244.732 420.884 244.732C420.319 244.732 419.871 244.908 419.54 245.26C419.22 245.612 419.06 246.097 419.06 246.716V251.116C419.06 251.223 419.023 251.313 418.948 251.388C418.884 251.463 418.793 251.5 418.676 251.5H417.268ZM428.44 251.5C428.333 251.5 428.242 251.463 428.168 251.388C428.093 251.313 428.056 251.223 428.056 251.116V242.268H425.096C424.989 242.268 424.898 242.231 424.824 242.156C424.749 242.081 424.712 241.991 424.712 241.884V240.7C424.712 240.583 424.744 240.487 424.808 240.412C424.882 240.337 424.978 240.3 425.096 240.3H433.256C433.373 240.3 433.469 240.337 433.544 240.412C433.618 240.487 433.656 240.583 433.656 240.7V241.884C433.656 241.991 433.618 242.081 433.544 242.156C433.469 242.231 433.373 242.268 433.256 242.268H430.312V251.116C430.312 251.223 430.274 251.313 430.2 251.388C430.125 251.463 430.029 251.5 429.912 251.5H428.44ZM437.203 251.66C436.019 251.66 435.075 251.319 434.371 250.636C433.677 249.943 433.309 248.972 433.267 247.724L433.251 247.324L433.267 246.924C433.32 245.708 433.693 244.753 434.387 244.06C435.091 243.367 436.029 243.02 437.203 243.02C438.461 243.02 439.432 243.404 440.115 244.172C440.808 244.94 441.155 245.964 441.155 247.244V247.58C441.155 247.687 441.117 247.777 441.043 247.852C440.968 247.927 440.872 247.964 440.755 247.964H435.443V248.092C435.464 248.679 435.624 249.175 435.923 249.58C436.232 249.975 436.653 250.172 437.187 250.172C437.816 250.172 438.323 249.927 438.707 249.436C438.803 249.319 438.877 249.244 438.931 249.212C438.995 249.18 439.085 249.164 439.203 249.164H440.579C440.675 249.164 440.755 249.196 440.819 249.26C440.893 249.313 440.931 249.383 440.931 249.468C440.931 249.724 440.776 250.028 440.467 250.38C440.168 250.721 439.736 251.02 439.171 251.276C438.605 251.532 437.949 251.66 437.203 251.66ZM438.979 246.62V246.572C438.979 245.943 438.819 245.436 438.499 245.052C438.189 244.668 437.757 244.476 437.203 244.476C436.648 244.476 436.216 244.668 435.907 245.052C435.597 245.436 435.443 245.943 435.443 246.572V246.62H438.979ZM446.453 251.66C445.28 251.66 444.341 251.335 443.637 250.684C442.944 250.033 442.576 249.132 442.533 247.98L442.517 247.34L442.533 246.7C442.576 245.548 442.944 244.647 443.637 243.996C444.341 243.345 445.28 243.02 446.453 243.02C447.285 243.02 447.989 243.169 448.565 243.468C449.152 243.767 449.584 244.135 449.861 244.572C450.149 244.999 450.304 245.404 450.325 245.788C450.336 245.895 450.298 245.985 450.213 246.06C450.138 246.135 450.048 246.172 449.941 246.172H448.533C448.426 246.172 448.341 246.151 448.277 246.108C448.224 246.055 448.17 245.969 448.117 245.852C447.957 245.436 447.744 245.137 447.477 244.956C447.221 244.775 446.89 244.684 446.485 244.684C445.941 244.684 445.514 244.86 445.205 245.212C444.896 245.553 444.73 246.076 444.709 246.78L444.693 247.372L444.709 247.9C444.752 249.297 445.344 249.996 446.485 249.996C446.901 249.996 447.237 249.905 447.493 249.724C447.749 249.543 447.957 249.244 448.117 248.828C448.17 248.711 448.224 248.631 448.277 248.588C448.341 248.535 448.426 248.508 448.533 248.508H449.941C450.048 248.508 450.138 248.545 450.213 248.62C450.298 248.695 450.336 248.785 450.325 248.892C450.304 249.265 450.154 249.665 449.877 250.092C449.6 250.519 449.173 250.887 448.597 251.196C448.021 251.505 447.306 251.66 446.453 251.66ZM452.394 251.5C452.287 251.5 452.196 251.463 452.122 251.388C452.047 251.313 452.01 251.223 452.01 251.116V240.524C452.01 240.407 452.047 240.316 452.122 240.252C452.196 240.177 452.287 240.14 452.394 240.14H453.818C453.935 240.14 454.026 240.177 454.09 240.252C454.164 240.316 454.202 240.407 454.202 240.524V244.172C454.842 243.404 455.706 243.02 456.794 243.02C457.775 243.02 458.559 243.345 459.146 243.996C459.732 244.636 460.026 245.511 460.026 246.62V251.116C460.026 251.223 459.988 251.313 459.914 251.388C459.85 251.463 459.759 251.5 459.642 251.5H458.202C458.095 251.5 458.004 251.463 457.93 251.388C457.855 251.313 457.818 251.223 457.818 251.116V246.716C457.818 246.087 457.663 245.601 457.354 245.26C457.055 244.908 456.618 244.732 456.042 244.732C455.476 244.732 455.028 244.908 454.698 245.26C454.367 245.612 454.202 246.097 454.202 246.716V251.116C454.202 251.223 454.164 251.313 454.09 251.388C454.026 251.463 453.935 251.5 453.818 251.5H452.394ZM465.208 251.66C464.408 251.66 463.736 251.543 463.192 251.308C462.648 251.063 462.243 250.78 461.976 250.46C461.72 250.129 461.592 249.847 461.592 249.612C461.592 249.505 461.629 249.42 461.704 249.356C461.779 249.292 461.864 249.26 461.96 249.26H463.224C463.32 249.26 463.4 249.297 463.464 249.372C463.507 249.404 463.619 249.5 463.8 249.66C463.981 249.831 464.195 249.964 464.44 250.06C464.685 250.156 464.957 250.204 465.256 250.204C465.683 250.204 466.035 250.119 466.312 249.948C466.589 249.777 466.728 249.543 466.728 249.244C466.728 249.02 466.664 248.839 466.536 248.7C466.419 248.561 466.2 248.439 465.88 248.332C465.56 248.215 465.085 248.092 464.456 247.964C463.549 247.772 462.877 247.479 462.44 247.084C462.013 246.689 461.8 246.167 461.8 245.516C461.8 245.089 461.928 244.689 462.184 244.316C462.44 243.932 462.819 243.623 463.32 243.388C463.832 243.143 464.44 243.02 465.144 243.02C465.859 243.02 466.477 243.137 467 243.372C467.523 243.596 467.917 243.868 468.184 244.188C468.461 244.497 468.6 244.775 468.6 245.02C468.6 245.116 468.563 245.201 468.488 245.276C468.424 245.34 468.344 245.372 468.248 245.372H467.064C466.979 245.372 466.888 245.335 466.792 245.26C466.717 245.207 466.6 245.105 466.44 244.956C466.28 244.807 466.093 244.689 465.88 244.604C465.667 244.519 465.416 244.476 465.128 244.476C464.733 244.476 464.424 244.561 464.2 244.732C463.987 244.903 463.88 245.127 463.88 245.404C463.88 245.607 463.933 245.772 464.04 245.9C464.147 246.028 464.355 246.151 464.664 246.268C464.973 246.385 465.437 246.503 466.056 246.62C467.08 246.823 467.811 247.137 468.248 247.564C468.696 247.991 468.92 248.513 468.92 249.132C468.92 249.879 468.595 250.487 467.944 250.956C467.293 251.425 466.381 251.66 465.208 251.66Z" fill="#063A4F"/>
<rect x="349" y="66" width="142" height="56" rx="8" fill="white" fill-opacity="0.2"/>
<rect x="349" y="-10" width="142" height="56" rx="8" fill="white" fill-opacity="0.2"/>
<rect x="349" y="294" width="142" height="56" rx="8" fill="white" fill-opacity="0.2"/>
</g>
<defs>
<linearGradient id="paint0_linear_402_13132" x1="41.3489" y1="76.2264" x2="57.2523" y2="101.543" gradientUnits="userSpaceOnUse">
<stop stop-color="#F0AA22"/>
<stop offset="1" stop-color="#F05822"/>
</linearGradient>
<linearGradient id="paint1_linear_402_13132" x1="46.3489" y1="152.226" x2="62.2523" y2="177.543" gradientUnits="userSpaceOnUse">
<stop stop-color="#F0AA22"/>
<stop offset="1" stop-color="#F05822"/>
</linearGradient>
<linearGradient id="paint2_linear_402_13132" x1="221.349" y1="109.226" x2="237.252" y2="134.543" gradientUnits="userSpaceOnUse">
<stop stop-color="#F0AA22"/>
<stop offset="1" stop-color="#F05822"/>
</linearGradient>
<linearGradient id="paint3_linear_402_13132" x1="195.349" y1="185.226" x2="211.252" y2="210.543" gradientUnits="userSpaceOnUse">
<stop stop-color="#F0AA22"/>
<stop offset="1" stop-color="#F05822"/>
</linearGradient>
<linearGradient id="paint4_linear_402_13132" x1="384.349" y1="151.226" x2="400.252" y2="176.543" gradientUnits="userSpaceOnUse">
<stop stop-color="#F0AA22"/>
<stop offset="1" stop-color="#F05822"/>
</linearGradient>
<linearGradient id="paint5_linear_402_13132" x1="381.349" y1="227.226" x2="397.252" y2="252.543" gradientUnits="userSpaceOnUse">
<stop stop-color="#F0AA22"/>
<stop offset="1" stop-color="#F05822"/>
</linearGradient>
</defs>
</svg>
