<svg width="77" height="50" viewBox="0 0 77 50" fill="none" xmlns="http://www.w3.org/2000/svg">
<path d="M66.7689 10.7189C67.0582 16.0893 63.4983 20.6926 58.5591 22.0735C58.4924 22.1174 58.4479 22.1393 58.4034 22.1612C53.5754 23.4326 50.0155 27.7728 50.0155 32.9459C50.0155 32.9898 49.971 33.0556 49.9265 33.1213C49.2368 38.6233 44.4533 42.8758 38.6909 42.8758H38.4684C32.7059 42.8758 27.9224 38.6233 27.2327 33.1213C27.166 33.0336 27.1437 32.9898 27.1437 32.9459C27.1437 27.7947 23.5839 23.4326 18.7559 22.1612C18.7114 22.1393 18.6669 22.1174 18.6002 22.0735C13.6609 20.6926 10.1011 16.0893 10.3903 10.7189C10.6796 5.15112 15.2183 0.591719 20.8695 0.197155C27.4997 -0.263169 33.0174 4.91 33.0174 11.3326C33.0174 11.3984 33.0174 11.4861 33.0174 11.5518C33.3289 13.9411 34.3968 16.1551 36.0433 17.8648C37.4227 19.2897 39.7143 19.2897 41.0938 17.8648C42.7402 16.1551 43.8304 13.9411 44.1196 11.5518C44.1196 11.4861 44.1196 11.3984 44.1196 11.3326C44.1196 4.91 49.6373 -0.263169 56.2675 0.197155C61.8964 0.591719 66.4574 5.15112 66.7689 10.7189Z" fill="#00B8C2"/>
<path d="M65.5453 49.8684C71.7997 49.8684 76.8699 44.8731 76.8699 38.711C76.8699 32.549 71.7997 27.5537 65.5453 27.5537C59.2908 27.5537 54.2206 32.549 54.2206 38.711C54.2206 44.8731 59.2908 49.8684 65.5453 49.8684Z" fill="#FDB515"/>
<path d="M11.3247 49.978C17.5791 49.978 22.6493 44.9827 22.6493 38.8206C22.6493 32.6586 17.5791 27.6632 11.3247 27.6632C5.07023 27.6632 0 32.6586 0 38.8206C0 44.9827 5.07023 49.978 11.3247 49.978Z" fill="#FDB515"/>
</svg>
