<svg width="83" height="83" viewBox="0 0 83 83" fill="none" xmlns="http://www.w3.org/2000/svg">
<rect width="83" height="83" rx="41.5" fill="#00B8C2" fill-opacity="0.1"/>
<path d="M60.8167 50.259L55.5215 48.2734L45.9655 51.8724C44.7243 52.3687 43.3592 52.5756 42.0768 52.5756C40.7528 52.5756 39.4292 52.3275 38.1881 51.8724L28.632 48.2734L23.3369 50.259C22.468 50.59 22.4268 51.3761 22.4268 51.6242C22.4268 51.8723 22.5096 52.6584 23.3369 52.9893L39.2223 58.9877C41.0426 59.6909 43.111 59.6909 44.9312 58.9877L60.8166 52.9893C61.6855 52.6584 61.7267 51.8723 61.7267 51.6242C61.7267 51.3761 61.6439 50.59 60.8166 50.259H60.8167Z" fill="#00B8C2"/>
<path d="M60.8167 40.3723L55.5215 38.3867L45.9655 41.9857C44.7243 42.482 43.3592 42.6889 42.0768 42.6889C40.7528 42.6889 39.4292 42.4407 38.1881 41.9857L28.632 38.3867L23.3369 40.3723C22.468 40.7033 22.4268 41.4893 22.4268 41.7375C22.4268 41.9856 22.5096 42.7717 23.3369 43.1026L39.2223 49.101C41.0426 49.8042 43.111 49.8042 44.9312 49.101L60.8166 43.1026C61.6855 42.7716 61.7267 41.9856 61.7267 41.7375C61.7267 41.4893 61.6439 40.7033 60.8166 40.3723H60.8167Z" fill="#00B8C2"/>
<path d="M23.3369 33.2561L39.2223 39.2544C41.0426 39.9576 43.111 39.9576 44.9312 39.2544L60.8166 33.2561C61.6855 32.9251 61.7267 32.0977 61.7267 31.8909C61.7267 31.6427 61.6439 30.8567 60.8166 30.5257L44.9312 24.5274C43.1109 23.8242 41.0425 23.8242 39.2223 24.5274L23.3369 30.5257C22.468 30.8567 22.4268 31.6428 22.4268 31.8909C22.4268 32.0978 22.5096 32.9251 23.3369 33.2561Z" fill="url(#paint0_linear_402_13038)"/>
<defs>
<linearGradient id="paint0_linear_402_13038" x1="40.7992" y1="17.0769" x2="47.4061" y2="43.2707" gradientUnits="userSpaceOnUse">
<stop stop-color="#F0AA22"/>
<stop offset="1" stop-color="#F05822"/>
</linearGradient>
</defs>
</svg>
