<svg width="78" height="85" viewBox="0 0 78 85" fill="none" xmlns="http://www.w3.org/2000/svg">
<path opacity="0.06" d="M18 35C27.9411 35 36 27.165 36 17.5C36 7.83502 27.9411 0 18 0C8.05888 0 0 7.83502 0 17.5C0 27.165 8.05888 35 18 35Z" fill="#00B8C2"/>
<path opacity="0.06" d="M44 85C62.7777 85 78 69.7777 78 51C78 32.2223 62.7777 17 44 17C25.2223 17 10 32.2223 10 51C10 69.7777 25.2223 85 44 85Z" fill="#00B8C2"/>
<path d="M44.4919 10H11.0581V37.1649H36.0376L44.4919 42.4921V10ZM41.5944 37.243L36.8732 34.2681H13.9549V12.8968H41.5944V37.243Z" fill="#FDB515"/>
<path d="M4.06445 50.7918V53.5644C4.06445 56.6353 6.57706 59.1479 9.64795 59.1479H11.0166C14.0875 59.1479 16.6001 56.6353 16.6001 53.5644V50.7918C16.6001 47.7209 14.0875 45.2083 11.0166 45.2083H9.64795C6.57706 45.209 4.06445 47.7209 4.06445 50.7918ZM6.96201 50.7918C6.96201 49.3105 8.1674 48.1059 9.64868 48.1059H11.0173C12.4986 48.1059 13.704 49.3113 13.704 50.7918V53.5644C13.704 55.0457 12.4986 56.2511 11.0173 56.2511H9.64868C8.1674 56.2511 6.96201 55.0464 6.96201 53.5644V50.7918Z" fill="#063A4F"/>
<path d="M13.4102 63.4127H7.25545C3.26517 63.4127 0 66.6778 0 70.6681V75H20.6657V70.6681C20.6649 66.6778 17.4005 63.4127 13.4102 63.4127ZM17.7681 72.1032H2.89683V70.6681C2.89683 68.2653 4.85189 66.3095 7.25472 66.3095H13.4095C15.8123 66.3095 17.7681 68.2645 17.7681 70.6681V72.1032Z" fill="#063A4F"/>
<path d="M44.0288 53.5644C44.0288 56.6353 46.5414 59.1479 49.6123 59.1479H50.9809C54.0518 59.1479 56.5644 56.6353 56.5644 53.5644V50.7918C56.5644 47.7209 54.0518 45.2083 50.9809 45.2083H49.6123C46.5414 45.2083 44.0288 47.7209 44.0288 50.7918V53.5644ZM46.9256 50.7918C46.9256 49.3105 48.131 48.1059 49.6123 48.1059H50.9809C52.4622 48.1059 53.6676 49.3113 53.6676 50.7918V53.5644C53.6676 55.0457 52.4622 56.2511 50.9809 56.2511H49.6123C48.131 56.2511 46.9256 55.0464 46.9256 53.5644V50.7918Z" fill="#063A4F"/>
<path d="M53.3736 63.4127H47.2188C43.2285 63.4127 39.9634 66.6778 39.9634 70.6681V75H60.6291V70.6681C60.6291 66.6778 57.3639 63.4127 53.3736 63.4127ZM57.7322 72.1032H42.8609V70.6681C42.8609 68.2653 44.816 66.3095 47.2188 66.3095H53.3736C55.7772 66.3095 57.7322 68.2645 57.7322 70.6681V72.1032Z" fill="#063A4F"/>
</svg>
