<svg width="303" height="303" viewBox="0 0 303 303" fill="none" xmlns="http://www.w3.org/2000/svg">
<g opacity="0.15">
<circle cx="69.6945" cy="86.0472" r="4.28528" fill="#063A4F"/>
<circle cx="86.0563" cy="86.0472" r="4.28528" fill="#063A4F"/>
<circle cx="102.419" cy="86.0472" r="4.28528" fill="#063A4F"/>
<circle cx="118.781" cy="86.0472" r="4.28528" fill="#063A4F"/>
<circle cx="135.143" cy="86.0472" r="4.28528" fill="#063A4F"/>
<circle cx="151.505" cy="86.0472" r="4.28528" fill="#063A4F"/>
<circle cx="167.866" cy="86.0472" r="4.28528" fill="#063A4F"/>
<circle cx="184.229" cy="86.0472" r="4.28528" fill="#063A4F"/>
<circle cx="200.59" cy="86.0472" r="4.28528" fill="#063A4F"/>
<circle cx="216.952" cy="86.0472" r="4.28528" fill="#063A4F"/>
<circle cx="69.6945" cy="102.409" r="4.28528" fill="#063A4F"/>
<circle cx="86.0563" cy="102.409" r="4.28528" fill="#063A4F"/>
<circle cx="102.419" cy="102.409" r="4.28528" fill="#063A4F"/>
<circle cx="118.781" cy="102.409" r="4.28528" fill="#063A4F"/>
<circle cx="135.143" cy="102.409" r="4.28528" fill="#063A4F"/>
<circle cx="151.505" cy="102.409" r="4.28528" fill="#063A4F"/>
<circle cx="167.866" cy="102.409" r="4.28528" fill="#063A4F"/>
<circle cx="184.229" cy="102.409" r="4.28528" fill="#063A4F"/>
<circle cx="200.59" cy="102.409" r="4.28528" fill="#063A4F"/>
<circle cx="216.952" cy="102.409" r="4.28528" fill="#063A4F"/>
<circle cx="69.6945" cy="118.771" r="4.28528" fill="#063A4F"/>
<circle cx="86.0563" cy="118.771" r="4.28528" fill="#063A4F"/>
<circle cx="102.419" cy="118.771" r="4.28528" fill="#063A4F"/>
<circle cx="118.781" cy="118.771" r="4.28528" fill="#063A4F"/>
<circle cx="135.143" cy="118.771" r="4.28528" fill="#063A4F"/>
<circle cx="151.505" cy="118.771" r="4.28528" fill="#063A4F"/>
<circle cx="167.866" cy="118.771" r="4.28528" fill="#063A4F"/>
<circle cx="184.229" cy="118.771" r="4.28528" fill="#063A4F"/>
<circle cx="200.59" cy="118.771" r="4.28528" fill="#063A4F"/>
<circle cx="216.952" cy="118.771" r="4.28528" fill="#063A4F"/>
<circle cx="69.6945" cy="135.133" r="4.28528" fill="#063A4F"/>
<circle cx="86.0563" cy="135.133" r="4.28528" fill="#063A4F"/>
<circle cx="102.419" cy="135.133" r="4.28528" fill="#063A4F"/>
<circle cx="118.781" cy="135.133" r="4.28528" fill="#063A4F"/>
<circle cx="135.143" cy="135.133" r="4.28528" fill="#063A4F"/>
<circle cx="151.505" cy="135.133" r="4.28528" fill="#063A4F"/>
<circle cx="167.866" cy="135.133" r="4.28528" fill="#063A4F"/>
<circle cx="184.229" cy="135.133" r="4.28528" fill="#063A4F"/>
<circle cx="200.59" cy="135.133" r="4.28528" fill="#063A4F"/>
<circle cx="216.952" cy="135.133" r="4.28528" fill="#063A4F"/>
<circle cx="69.6945" cy="151.495" r="4.28528" fill="#063A4F"/>
<circle cx="86.0563" cy="151.495" r="4.28528" fill="#063A4F"/>
<circle cx="102.419" cy="151.495" r="4.28528" fill="#063A4F"/>
<circle cx="118.781" cy="151.495" r="4.28528" fill="#063A4F"/>
<circle cx="135.143" cy="151.495" r="4.28528" fill="#063A4F"/>
<circle cx="151.505" cy="151.495" r="4.28528" fill="#063A4F"/>
<circle cx="167.866" cy="151.495" r="4.28528" fill="#063A4F"/>
<circle cx="184.229" cy="151.495" r="4.28528" fill="#063A4F"/>
<circle cx="200.59" cy="151.495" r="4.28528" fill="#063A4F"/>
<circle cx="216.952" cy="151.495" r="4.28528" fill="#063A4F"/>
<circle cx="69.6945" cy="167.857" r="4.28528" fill="#063A4F"/>
<circle cx="86.0563" cy="167.857" r="4.28528" fill="#063A4F"/>
<circle cx="102.419" cy="167.857" r="4.28528" fill="#063A4F"/>
<circle cx="118.781" cy="167.857" r="4.28528" fill="#063A4F"/>
<circle cx="135.143" cy="167.857" r="4.28528" fill="#063A4F"/>
<circle cx="151.505" cy="167.857" r="4.28528" fill="#063A4F"/>
<circle cx="167.866" cy="167.857" r="4.28528" fill="#063A4F"/>
<circle cx="184.229" cy="167.857" r="4.28528" fill="#063A4F"/>
<circle cx="200.59" cy="167.857" r="4.28528" fill="#063A4F"/>
<circle cx="216.952" cy="167.857" r="4.28528" fill="#063A4F"/>
<circle cx="69.6945" cy="184.219" r="4.28528" fill="#063A4F"/>
<circle cx="86.0563" cy="184.219" r="4.28528" fill="#063A4F"/>
<circle cx="102.419" cy="184.219" r="4.28528" fill="#063A4F"/>
<circle cx="118.781" cy="184.219" r="4.28528" fill="#063A4F"/>
<circle cx="135.143" cy="184.219" r="4.28528" fill="#063A4F"/>
<circle cx="151.505" cy="184.219" r="4.28528" fill="#063A4F"/>
<circle cx="167.866" cy="184.219" r="4.28528" fill="#063A4F"/>
<circle cx="184.229" cy="184.219" r="4.28528" fill="#063A4F"/>
<circle cx="200.59" cy="184.219" r="4.28528" fill="#063A4F"/>
<circle cx="216.952" cy="184.219" r="4.28528" fill="#063A4F"/>
<circle cx="69.6945" cy="200.581" r="4.28528" fill="#063A4F"/>
<circle cx="86.0563" cy="200.581" r="4.28528" fill="#063A4F"/>
<circle cx="102.419" cy="200.581" r="4.28528" fill="#063A4F"/>
<circle cx="118.781" cy="200.581" r="4.28528" fill="#063A4F"/>
<circle cx="135.143" cy="200.581" r="4.28528" fill="#063A4F"/>
<circle cx="151.505" cy="200.581" r="4.28528" fill="#063A4F"/>
<circle cx="167.866" cy="200.581" r="4.28528" fill="#063A4F"/>
<circle cx="184.229" cy="200.581" r="4.28528" fill="#063A4F"/>
<circle cx="200.59" cy="200.581" r="4.28528" fill="#063A4F"/>
<circle cx="216.952" cy="200.581" r="4.28528" fill="#063A4F"/>
<circle cx="69.6945" cy="216.943" r="4.28528" fill="#063A4F"/>
<circle cx="86.0563" cy="216.943" r="4.28528" fill="#063A4F"/>
<circle cx="102.419" cy="216.943" r="4.28528" fill="#063A4F"/>
<circle cx="118.781" cy="216.943" r="4.28528" fill="#063A4F"/>
<circle cx="135.143" cy="216.943" r="4.28528" fill="#063A4F"/>
<circle cx="151.505" cy="216.943" r="4.28528" fill="#063A4F"/>
<circle cx="167.866" cy="216.943" r="4.28528" fill="#063A4F"/>
<circle cx="184.229" cy="216.943" r="4.28528" fill="#063A4F"/>
<circle cx="200.59" cy="216.943" r="4.28528" fill="#063A4F"/>
<circle cx="216.952" cy="216.943" r="4.28528" fill="#063A4F"/>
<circle cx="69.6945" cy="233.305" r="4.28528" fill="#063A4F"/>
<circle cx="86.0563" cy="233.305" r="4.28528" fill="#063A4F"/>
<circle cx="102.419" cy="233.305" r="4.28528" fill="#063A4F"/>
<circle cx="118.781" cy="233.305" r="4.28528" fill="#063A4F"/>
<circle cx="135.143" cy="233.305" r="4.28528" fill="#063A4F"/>
<circle cx="151.505" cy="233.305" r="4.28528" fill="#063A4F"/>
<circle cx="167.866" cy="233.305" r="4.28528" fill="#063A4F"/>
<circle cx="184.229" cy="233.305" r="4.28528" fill="#063A4F"/>
<circle cx="200.59" cy="233.305" r="4.28528" fill="#063A4F"/>
<circle cx="216.952" cy="233.305" r="4.28528" fill="#063A4F"/>
</g>
<g opacity="0.15">
<circle cx="4.28528" cy="151.457" r="4.28528" fill="#063A4F"/>
<circle cx="20.6471" cy="151.457" r="4.28528" fill="#063A4F"/>
<circle cx="37.0094" cy="151.457" r="4.28528" fill="#063A4F"/>
<circle cx="53.3712" cy="151.457" r="4.28528" fill="#063A4F"/>
<circle cx="69.7335" cy="151.457" r="4.28528" fill="#063A4F"/>
<circle cx="86.0953" cy="151.457" r="4.28528" fill="#063A4F"/>
<circle cx="102.457" cy="151.457" r="4.28528" fill="#063A4F"/>
<circle cx="118.819" cy="151.457" r="4.28528" fill="#063A4F"/>
<circle cx="135.181" cy="151.457" r="4.28528" fill="#063A4F"/>
<circle cx="151.543" cy="151.457" r="4.28528" fill="#063A4F"/>
<circle cx="4.28528" cy="167.819" r="4.28528" fill="#063A4F"/>
<circle cx="20.6471" cy="167.819" r="4.28528" fill="#063A4F"/>
<circle cx="37.0094" cy="167.819" r="4.28528" fill="#063A4F"/>
<circle cx="53.3712" cy="167.819" r="4.28528" fill="#063A4F"/>
<circle cx="69.7335" cy="167.819" r="4.28528" fill="#063A4F"/>
<circle cx="86.0953" cy="167.819" r="4.28528" fill="#063A4F"/>
<circle cx="102.457" cy="167.819" r="4.28528" fill="#063A4F"/>
<circle cx="118.819" cy="167.819" r="4.28528" fill="#063A4F"/>
<circle cx="135.181" cy="167.819" r="4.28528" fill="#063A4F"/>
<circle cx="151.543" cy="167.819" r="4.28528" fill="#063A4F"/>
<circle cx="4.28528" cy="184.181" r="4.28528" fill="#063A4F"/>
<circle cx="20.6471" cy="184.181" r="4.28528" fill="#063A4F"/>
<circle cx="37.0094" cy="184.181" r="4.28528" fill="#063A4F"/>
<circle cx="53.3712" cy="184.181" r="4.28528" fill="#063A4F"/>
<circle cx="69.7335" cy="184.181" r="4.28528" fill="#063A4F"/>
<circle cx="86.0953" cy="184.181" r="4.28528" fill="#063A4F"/>
<circle cx="102.457" cy="184.181" r="4.28528" fill="#063A4F"/>
<circle cx="118.819" cy="184.181" r="4.28528" fill="#063A4F"/>
<circle cx="135.181" cy="184.181" r="4.28528" fill="#063A4F"/>
<circle cx="151.543" cy="184.181" r="4.28528" fill="#063A4F"/>
<circle cx="4.28528" cy="200.543" r="4.28528" fill="#063A4F"/>
<circle cx="20.6471" cy="200.543" r="4.28528" fill="#063A4F"/>
<circle cx="37.0094" cy="200.543" r="4.28528" fill="#063A4F"/>
<circle cx="53.3712" cy="200.543" r="4.28528" fill="#063A4F"/>
<circle cx="69.7335" cy="200.543" r="4.28528" fill="#063A4F"/>
<circle cx="86.0953" cy="200.543" r="4.28528" fill="#063A4F"/>
<circle cx="102.457" cy="200.543" r="4.28528" fill="#063A4F"/>
<circle cx="118.819" cy="200.543" r="4.28528" fill="#063A4F"/>
<circle cx="135.181" cy="200.543" r="4.28528" fill="#063A4F"/>
<circle cx="151.543" cy="200.543" r="4.28528" fill="#063A4F"/>
<circle cx="4.28528" cy="216.905" r="4.28528" fill="#063A4F"/>
<circle cx="20.6471" cy="216.905" r="4.28528" fill="#063A4F"/>
<circle cx="37.0094" cy="216.905" r="4.28528" fill="#063A4F"/>
<circle cx="53.3712" cy="216.905" r="4.28528" fill="#063A4F"/>
<circle cx="69.7335" cy="216.905" r="4.28528" fill="#063A4F"/>
<circle cx="86.0953" cy="216.905" r="4.28528" fill="#063A4F"/>
<circle cx="102.457" cy="216.905" r="4.28528" fill="#063A4F"/>
<circle cx="118.819" cy="216.905" r="4.28528" fill="#063A4F"/>
<circle cx="135.181" cy="216.905" r="4.28528" fill="#063A4F"/>
<circle cx="151.543" cy="216.905" r="4.28528" fill="#063A4F"/>
<circle cx="4.28528" cy="233.267" r="4.28528" fill="#063A4F"/>
<circle cx="20.6471" cy="233.267" r="4.28528" fill="#063A4F"/>
<circle cx="37.0094" cy="233.267" r="4.28528" fill="#063A4F"/>
<circle cx="53.3712" cy="233.267" r="4.28528" fill="#063A4F"/>
<circle cx="69.7335" cy="233.267" r="4.28528" fill="#063A4F"/>
<circle cx="86.0953" cy="233.267" r="4.28528" fill="#063A4F"/>
<circle cx="102.457" cy="233.267" r="4.28528" fill="#063A4F"/>
<circle cx="118.819" cy="233.267" r="4.28528" fill="#063A4F"/>
<circle cx="135.181" cy="233.267" r="4.28528" fill="#063A4F"/>
<circle cx="151.543" cy="233.267" r="4.28528" fill="#063A4F"/>
<circle cx="4.28528" cy="249.629" r="4.28528" fill="#063A4F"/>
<circle cx="20.6471" cy="249.629" r="4.28528" fill="#063A4F"/>
<circle cx="37.0094" cy="249.629" r="4.28528" fill="#063A4F"/>
<circle cx="53.3712" cy="249.629" r="4.28528" fill="#063A4F"/>
<circle cx="69.7335" cy="249.629" r="4.28528" fill="#063A4F"/>
<circle cx="86.0953" cy="249.629" r="4.28528" fill="#063A4F"/>
<circle cx="102.457" cy="249.629" r="4.28528" fill="#063A4F"/>
<circle cx="118.819" cy="249.629" r="4.28528" fill="#063A4F"/>
<circle cx="135.181" cy="249.629" r="4.28528" fill="#063A4F"/>
<circle cx="151.543" cy="249.629" r="4.28528" fill="#063A4F"/>
<circle cx="4.28528" cy="265.991" r="4.28528" fill="#063A4F"/>
<circle cx="20.6471" cy="265.991" r="4.28528" fill="#063A4F"/>
<circle cx="37.0094" cy="265.991" r="4.28528" fill="#063A4F"/>
<circle cx="53.3712" cy="265.991" r="4.28528" fill="#063A4F"/>
<circle cx="69.7335" cy="265.991" r="4.28528" fill="#063A4F"/>
<circle cx="86.0953" cy="265.991" r="4.28528" fill="#063A4F"/>
<circle cx="102.457" cy="265.991" r="4.28528" fill="#063A4F"/>
<circle cx="118.819" cy="265.991" r="4.28528" fill="#063A4F"/>
<circle cx="135.181" cy="265.991" r="4.28528" fill="#063A4F"/>
<circle cx="151.543" cy="265.991" r="4.28528" fill="#063A4F"/>
<circle cx="4.28528" cy="282.353" r="4.28528" fill="#063A4F"/>
<circle cx="20.6471" cy="282.353" r="4.28528" fill="#063A4F"/>
<circle cx="37.0094" cy="282.353" r="4.28528" fill="#063A4F"/>
<circle cx="53.3712" cy="282.353" r="4.28528" fill="#063A4F"/>
<circle cx="69.7335" cy="282.353" r="4.28528" fill="#063A4F"/>
<circle cx="86.0953" cy="282.353" r="4.28528" fill="#063A4F"/>
<circle cx="102.457" cy="282.353" r="4.28528" fill="#063A4F"/>
<circle cx="118.819" cy="282.353" r="4.28528" fill="#063A4F"/>
<circle cx="135.181" cy="282.353" r="4.28528" fill="#063A4F"/>
<circle cx="151.543" cy="282.353" r="4.28528" fill="#063A4F"/>
<circle cx="4.28528" cy="298.715" r="4.28528" fill="#063A4F"/>
<circle cx="20.6471" cy="298.715" r="4.28528" fill="#063A4F"/>
<circle cx="37.0094" cy="298.715" r="4.28528" fill="#063A4F"/>
<circle cx="53.3712" cy="298.715" r="4.28528" fill="#063A4F"/>
<circle cx="69.7335" cy="298.715" r="4.28528" fill="#063A4F"/>
<circle cx="86.0953" cy="298.715" r="4.28528" fill="#063A4F"/>
<circle cx="102.457" cy="298.715" r="4.28528" fill="#063A4F"/>
<circle cx="118.819" cy="298.715" r="4.28528" fill="#063A4F"/>
<circle cx="135.181" cy="298.715" r="4.28528" fill="#063A4F"/>
<circle cx="151.543" cy="298.715" r="4.28528" fill="#063A4F"/>
</g>
<g opacity="0.15">
<circle cx="151.457" cy="4.28528" r="4.28528" fill="#063A4F"/>
<circle cx="167.819" cy="4.28528" r="4.28528" fill="#063A4F"/>
<circle cx="184.181" cy="4.28528" r="4.28528" fill="#063A4F"/>
<circle cx="200.544" cy="4.28528" r="4.28528" fill="#063A4F"/>
<circle cx="216.905" cy="4.28528" r="4.28528" fill="#063A4F"/>
<circle cx="233.267" cy="4.28528" r="4.28528" fill="#063A4F"/>
<circle cx="249.63" cy="4.28528" r="4.28528" fill="#063A4F"/>
<circle cx="265.991" cy="4.28528" r="4.28528" fill="#063A4F"/>
<circle cx="282.353" cy="4.28528" r="4.28528" fill="#063A4F"/>
<circle cx="298.715" cy="4.28528" r="4.28528" fill="#063A4F"/>
<circle cx="151.457" cy="20.647" r="4.28528" fill="#063A4F"/>
<circle cx="167.819" cy="20.647" r="4.28528" fill="#063A4F"/>
<circle cx="184.181" cy="20.647" r="4.28528" fill="#063A4F"/>
<circle cx="200.544" cy="20.647" r="4.28528" fill="#063A4F"/>
<circle cx="216.905" cy="20.647" r="4.28528" fill="#063A4F"/>
<circle cx="233.267" cy="20.647" r="4.28528" fill="#063A4F"/>
<circle cx="249.63" cy="20.647" r="4.28528" fill="#063A4F"/>
<circle cx="265.991" cy="20.647" r="4.28528" fill="#063A4F"/>
<circle cx="282.353" cy="20.647" r="4.28528" fill="#063A4F"/>
<circle cx="298.715" cy="20.647" r="4.28528" fill="#063A4F"/>
<circle cx="151.457" cy="37.0093" r="4.28528" fill="#063A4F"/>
<circle cx="167.819" cy="37.0093" r="4.28528" fill="#063A4F"/>
<circle cx="184.181" cy="37.0093" r="4.28528" fill="#063A4F"/>
<circle cx="200.544" cy="37.0093" r="4.28528" fill="#063A4F"/>
<circle cx="216.905" cy="37.0093" r="4.28528" fill="#063A4F"/>
<circle cx="233.267" cy="37.0093" r="4.28528" fill="#063A4F"/>
<circle cx="249.63" cy="37.0093" r="4.28528" fill="#063A4F"/>
<circle cx="265.991" cy="37.0093" r="4.28528" fill="#063A4F"/>
<circle cx="282.353" cy="37.0093" r="4.28528" fill="#063A4F"/>
<circle cx="298.715" cy="37.0093" r="4.28528" fill="#063A4F"/>
<circle cx="151.457" cy="53.3711" r="4.28528" fill="#063A4F"/>
<circle cx="167.819" cy="53.3711" r="4.28528" fill="#063A4F"/>
<circle cx="184.181" cy="53.3711" r="4.28528" fill="#063A4F"/>
<circle cx="200.544" cy="53.3711" r="4.28528" fill="#063A4F"/>
<circle cx="216.905" cy="53.3711" r="4.28528" fill="#063A4F"/>
<circle cx="233.267" cy="53.3711" r="4.28528" fill="#063A4F"/>
<circle cx="249.63" cy="53.3711" r="4.28528" fill="#063A4F"/>
<circle cx="265.991" cy="53.3711" r="4.28528" fill="#063A4F"/>
<circle cx="282.353" cy="53.3711" r="4.28528" fill="#063A4F"/>
<circle cx="298.715" cy="53.3711" r="4.28528" fill="#063A4F"/>
<circle cx="151.457" cy="69.7333" r="4.28528" fill="#063A4F"/>
<circle cx="167.819" cy="69.7333" r="4.28528" fill="#063A4F"/>
<circle cx="184.181" cy="69.7333" r="4.28528" fill="#063A4F"/>
<circle cx="200.544" cy="69.7333" r="4.28528" fill="#063A4F"/>
<circle cx="216.905" cy="69.7333" r="4.28528" fill="#063A4F"/>
<circle cx="233.267" cy="69.7333" r="4.28528" fill="#063A4F"/>
<circle cx="249.63" cy="69.7333" r="4.28528" fill="#063A4F"/>
<circle cx="265.991" cy="69.7333" r="4.28528" fill="#063A4F"/>
<circle cx="282.353" cy="69.7333" r="4.28528" fill="#063A4F"/>
<circle cx="298.715" cy="69.7333" r="4.28528" fill="#063A4F"/>
<circle cx="151.457" cy="86.0952" r="4.28528" fill="#063A4F"/>
<circle cx="167.819" cy="86.0952" r="4.28528" fill="#063A4F"/>
<circle cx="184.181" cy="86.0952" r="4.28528" fill="#063A4F"/>
<circle cx="200.544" cy="86.0952" r="4.28528" fill="#063A4F"/>
<circle cx="216.905" cy="86.0952" r="4.28528" fill="#063A4F"/>
<circle cx="233.267" cy="86.0952" r="4.28528" fill="#063A4F"/>
<circle cx="249.63" cy="86.0952" r="4.28528" fill="#063A4F"/>
<circle cx="265.991" cy="86.0952" r="4.28528" fill="#063A4F"/>
<circle cx="282.353" cy="86.0952" r="4.28528" fill="#063A4F"/>
<circle cx="298.715" cy="86.0952" r="4.28528" fill="#063A4F"/>
<circle cx="151.457" cy="102.457" r="4.28528" fill="#063A4F"/>
<circle cx="167.819" cy="102.457" r="4.28528" fill="#063A4F"/>
<circle cx="184.181" cy="102.457" r="4.28528" fill="#063A4F"/>
<circle cx="200.544" cy="102.457" r="4.28528" fill="#063A4F"/>
<circle cx="216.905" cy="102.457" r="4.28528" fill="#063A4F"/>
<circle cx="233.267" cy="102.457" r="4.28528" fill="#063A4F"/>
<circle cx="249.63" cy="102.457" r="4.28528" fill="#063A4F"/>
<circle cx="265.991" cy="102.457" r="4.28528" fill="#063A4F"/>
<circle cx="282.353" cy="102.457" r="4.28528" fill="#063A4F"/>
<circle cx="298.715" cy="102.457" r="4.28528" fill="#063A4F"/>
<circle cx="151.457" cy="118.819" r="4.28528" fill="#063A4F"/>
<circle cx="167.819" cy="118.819" r="4.28528" fill="#063A4F"/>
<circle cx="184.181" cy="118.819" r="4.28528" fill="#063A4F"/>
<circle cx="200.544" cy="118.819" r="4.28528" fill="#063A4F"/>
<circle cx="216.905" cy="118.819" r="4.28528" fill="#063A4F"/>
<circle cx="233.267" cy="118.819" r="4.28528" fill="#063A4F"/>
<circle cx="249.63" cy="118.819" r="4.28528" fill="#063A4F"/>
<circle cx="265.991" cy="118.819" r="4.28528" fill="#063A4F"/>
<circle cx="282.353" cy="118.819" r="4.28528" fill="#063A4F"/>
<circle cx="298.715" cy="118.819" r="4.28528" fill="#063A4F"/>
<circle cx="151.457" cy="135.181" r="4.28528" fill="#063A4F"/>
<circle cx="167.819" cy="135.181" r="4.28528" fill="#063A4F"/>
<circle cx="184.181" cy="135.181" r="4.28528" fill="#063A4F"/>
<circle cx="200.544" cy="135.181" r="4.28528" fill="#063A4F"/>
<circle cx="216.905" cy="135.181" r="4.28528" fill="#063A4F"/>
<circle cx="233.267" cy="135.181" r="4.28528" fill="#063A4F"/>
<circle cx="249.63" cy="135.181" r="4.28528" fill="#063A4F"/>
<circle cx="265.991" cy="135.181" r="4.28528" fill="#063A4F"/>
<circle cx="282.353" cy="135.181" r="4.28528" fill="#063A4F"/>
<circle cx="298.715" cy="135.181" r="4.28528" fill="#063A4F"/>
<circle cx="151.457" cy="151.543" r="4.28528" fill="#063A4F"/>
<circle cx="167.819" cy="151.543" r="4.28528" fill="#063A4F"/>
<circle cx="184.181" cy="151.543" r="4.28528" fill="#063A4F"/>
<circle cx="200.544" cy="151.543" r="4.28528" fill="#063A4F"/>
<circle cx="216.905" cy="151.543" r="4.28528" fill="#063A4F"/>
<circle cx="233.267" cy="151.543" r="4.28528" fill="#063A4F"/>
<circle cx="249.63" cy="151.543" r="4.28528" fill="#063A4F"/>
<circle cx="265.991" cy="151.543" r="4.28528" fill="#063A4F"/>
<circle cx="282.353" cy="151.543" r="4.28528" fill="#063A4F"/>
<circle cx="298.715" cy="151.543" r="4.28528" fill="#063A4F"/>
</g>
</svg>
